<mxfile host="app.diagrams.net" agent="Mozilla/5.0 (Macintosh; Intel Mac OS X 10_15_7) AppleWebKit/537.36 (KHTML, like Gecko) Chrome/131.0.0.0 Safari/537.36" version="25.0.1">
  <diagram name="Page-1" id="dEE6nWE-Vz4LDORWU1GO">
    <mxGraphModel dx="2074" dy="1145" grid="1" gridSize="10" guides="1" tooltips="1" connect="1" arrows="1" fold="1" page="1" pageScale="1" pageWidth="850" pageHeight="1100" math="0" shadow="0">
      <root>
        <mxCell id="0" />
        <mxCell id="1" parent="0" />
        <mxCell id="NWTZMO9rAcA71ZL6jhak-2" value="" style="rounded=1;whiteSpace=wrap;html=1;fontFamily=Ubuntu;strokeColor=none;fillColor=#FAA627;" vertex="1" parent="1">
          <mxGeometry x="1110" y="279.46" width="120" height="320" as="geometry" />
        </mxCell>
        <mxCell id="rASXjI5uIFe1J0LXfNXR-1" value="&lt;font style=&quot;font-size: 20px;&quot; color=&quot;#ffffff&quot;&gt;wilhelm&lt;/font&gt;" style="rounded=1;whiteSpace=wrap;html=1;strokeColor=none;fillColor=#61DBFB;fontFamily=Ubuntu;" parent="1" vertex="1">
          <mxGeometry x="240" y="409.46" width="120" height="60" as="geometry" />
        </mxCell>
        <mxCell id="rASXjI5uIFe1J0LXfNXR-4" value="&lt;font color=&quot;#ffffff&quot; style=&quot;font-size: 20px;&quot;&gt;wilhelm-ws&lt;/font&gt;" style="rounded=1;whiteSpace=wrap;html=1;fontFamily=Ubuntu;strokeColor=none;fillColor=#FAA627;" parent="1" vertex="1">
          <mxGeometry x="540" y="409.46" width="120" height="60" as="geometry" />
        </mxCell>
        <mxCell id="rASXjI5uIFe1J0LXfNXR-5" value="wilhelm-vocabulary" style="rounded=1;whiteSpace=wrap;html=1;fontFamily=Ubuntu;strokeColor=none;fillColor=#60C203;fontSize=20;fontColor=#FFFFFF;" parent="1" vertex="1">
          <mxGeometry x="1250" y="400" width="230" height="60" as="geometry" />
        </mxCell>
        <mxCell id="rASXjI5uIFe1J0LXfNXR-17" value="" style="shape=image;verticalLabelPosition=bottom;labelBackgroundColor=default;verticalAlign=top;aspect=fixed;imageAspect=0;image=data:image/png,iVBORw0KGgoAAAANSUhEUgAAB9EAAAHxCAYAAADa2kzuAAAAAXNSR0IArs4c6QAAACBjSFJNAAB6JgAAgIQAAPoAAACA6AAAdTAAAOpgAAA6mAAAF3CculE8AAAAUGVYSWZNTQAqAAAACAACARIAAwAAAAEAAQAAh2kABAAAAAEAAAAmAAAAAAADoAEAAwAAAAEAAQAAoAIABAAAAAEAAAfRoAMABAAAAAEAAAHxAAAAAHkiDR0AAAFZaVRYdFhNTDpjb20uYWRvYmUueG1wAAAAAAA8eDp4bXBtZXRhIHhtbG5zOng9ImFkb2JlOm5zOm1ldGEvIiB4OnhtcHRrPSJYTVAgQ29yZSA2LjAuMCI+CiAgIDxyZGY6UkRGIHhtbG5zOnJkZj0iaHR0cDovL3d3dy53My5vcmcvMTk5OS8wMi8yMi1yZGYtc3ludGF4LW5zIyI+CiAgICAgIDxyZGY6RGVzY3JpcHRpb24gcmRmOmFib3V0PSIiCiAgICAgICAgICAgIHhtbG5zOnRpZmY9Imh0dHA6Ly9ucy5hZG9iZS5jb20vdGlmZi8xLjAvIj4KICAgICAgICAgPHRpZmY6T3JpZW50YXRpb24+MTwvdGlmZjpPcmllbnRhdGlvbj4KICAgICAgPC9yZGY6RGVzY3JpcHRpb24+CiAgIDwvcmRmOlJERj4KPC94OnhtcG1ldGE+Chle4QcAAEAASURBVHgB7N0JeF3Veej9d+9zNMuaLGHZyAPYwcYDNhgsT0mcocFJmtzkSwR2Ulqakg5JG2OgJLd9eq/uze13Q0Kw3TZt0pvmI00TT+lthiZAQ4oSMJIMJgY8AQYEyHiQrckaz7DX9y6BwYOGc47OfP77eU6ks/faa73rt4/F8+Q9612OcCCAQM4JbNxUP82IM8f4nFkSljnGNXWOI9WekUpXpErEVOr1SkfE/waO0dNO+ZtQQf3ZZ4wzpPcMimMGxEi/nutwHHPKCzsnHNecMsY95Trhdsdznt++rfXkm/fyAwEEEEAAAQQQQAABBBBAAAEEEEAAAQQQQAABBBBAAIG0FtAcGQcCCGSrgE2Wh11niSa7rxHjLNPk+CKd69X6KkrynG2S/ai+nneMOeqJ+6wm2Z9aVPlbLzQ2NnpJjoXhEEAAAQQQQAABBBBAAAEEEEAAAQQQQAABBBBAAAEEEBhTgCT6mDRcQCCzBDQZ7R7u/fkSXfm91rjOal0dvlpnMCfNZ3FW43vGiOzTFe1PmHDer3dve+zVNI+Z8BBAAAEEEEAAAQQQQAABBBBAAAEEEEAAAQQQQAABBLJYgCR6Fj9cppb9AhvuXjPDBMIfEkc+qKvM33deyfVMnnybzuNRY6TJOPLr3Vua7Qp2DgQQQAABBBBAAAEEEEAAAQQQQAABBBBAAAEEEEAAAQSSIkASPSnMDIJA/ARuvmPFUse4n9TV2x/SXrVEu+h+5dl8mOeN4/5ExPv5qbKiR5sam0LZPFvmhgACCCCAAAIIIIAAAggggAACCCCAAAIIIIAAAgggkFoBkuip9Wd0BCISaNi8ap5PzE2aOP8dvcHuaZ6jh+nRVer/IY6zu6is4Kf3NzYN5SgE00YAAQQQQAABBBBAAAEEEEAAAQQQQAABBBBAAAEEEEiQAEn0BMHSLQKTFbjlrmtKAqHijVqq/Tbtq36y/WXh/f1q82PH835woqL4IVaoZ+ETZkoIIIAAAggggAACCCCAAAIIIIAAAggggAACCCCAQAoESKKnAJ0hERhPoGHTmvmOG/6cI+b3smSP8/GmG69rnfrHbJdxvG/uvG/v0/HqlH4QQAABBBBAAAEEEEAAAQQQQAABBBBAAAEEEEAAAQRyT4Akeu49c2acpgI3bV75fjFyt+PI+zTELN/nPKEPodUY5x8L/P07v3fvM/0JHYnOEUAAAQQQQAABBBBAAAEEEEAAAQQQQAABBBBAAAEEsk6AJHrWPVImlEkCjY2N7pHun3/QOO5fadyUbI/rwzM9RpzvGp+3dfe9e1+Oa9d0hgACCCCAAAIIIIAAAggggAACCCCAAAIIIIAAAgggkLUCJNGz9tEysXQXuOn2VR9zHGOT59ele6wZHp+n8f+reO7Xdm57/IkMnwvhI4AAAggggAACCCCAAAIIIIAAAggggAACCCCAAAIIJFiAJHqCgekegYsFbr5jxVIx7hY9/56Lr/E+wQKO+bXjma/u2Lr3Zwkeie4RQAABBBBAAAEEEEAAAQQQQAABBBBAAAEEEEAAAQQyVIAkeoY+OMLOPIGGzauqHDH/Xf/R/alGz57nqX2ErUbkr3dtaflpasNgdAQQQAABBBBAAAEEEEAAAQQQQAABBBBAAAEEEEAAgXQTIImebk+EeLJOwO57frj7wc+II1/VyVVm3QQze0J7NJneqMn0hzN7GkSPAAIIIIAAAggggAACCCCAAAIIIIAAAggggAACCCAQLwGS6PGSpB8ERhHYcPeaGeFg+Nu67PyDo1zmVPoIPCKOt3nnfXufTp+QiAQBBBBAAAEEEEAAAQQQQAABBBBAAAEEEEAAAQQQQCAVAiTRU6HOmDkhcPMdqxrEmG/qZKtyYsKZP0lPxPm+k+d+acdX97ye+dNhBggggAACCCCAAAIIIIAAAggggAACCCCAAAIIIIAAArEIkESPRY17EBhH4Ja7rikJhIv/P23SME6zcS/5fY6Ul+VJUYErpSV+KdSfhfk+8fkdKchzJF9/t4dtd/ERCmuBcj1CIU/s78GQkbC+hgJhPWd/ejI0FJbBYU+G9Vz/QFhz/Rf3ktPv+1X1/y0sL7zv/samoZyWYPIIIIAAAggggAACCCCAAAIIIIAAAggggAACCCCAQA4KXJqBy0EEpoxAvAQaNq2Z7/rCPxQji6Pts0KT5nW1hVJdlS+lxf5ob59U+4HBkAwMetI3ENJXWM72h6SnNziShJ9Ux5l9c5srzp9s39L8YGZPg+gRQAABBBBAAAEEEEAAAQQQQAABBBBAAAEEEEAAAQSiESCJHo0WbREYR2DD7Ss+bBzn+1oSvHycZqNeWjC3VObNLhn1WipPDg2HpUuT6Xa1erf+PN0ZyMXE+r/7Q+ZPvv+3re2pfBaMjQACCCCAAAIIIIAAAggggAACCCCAAAIIIIAAAgggkBwBkujJcWaULBZobGx0j3Q/8L80gf5FnaYby1SnVuaLTaRX6mr0dD96+0LS2R0YSap3aFJ9WMvDZ/9hevSP5d0Lyj/4bX3euTDh7H+kzBABBBBAAAEEEEAAAQQQQAABBBBAAAEEEEAAAQQQGEOAJPoYMJxGIFKBmzav/Ir+Q7IJ9EkfBfmuVJbnSbUm1WtrCnQv9Df2Pp90xwnswJaCP3UmIMc7hkeS61m+v/ojnue/dfe2x15NICldI4AAAggggAACCCCAAAIIIIAAAggggAACCCCAAAIIpFCAJHoK8Rk6OwRu3ryyU2dSmYjZFBX6pHyKfySpXq6r1KeU+MXvS99/tqGwkY7OYTmpCfUT+rLvs/A4a4xz+66tzd/JwrkxJQQQQAABBBBAAAEEEEAAAQQQQAABBBBAAAEEEEAg5wXSNxuX848GgEwRuHnzqhdFzJXJiNfRf7HlU/KkQhPqFWVvJNfTdbX6uYT6sRNDWbqXuvNj1/P+aPu21pPJePaMgQACCCCAAAIIIIAAAggggAACCCCAAAIIIIAAAgggkBwBkujJcWaULBbYsHnFOz3j2+k4ZnoqpmlXq0+teCOxXl2VL6XF/lSEMe6YNqF+omNI2toHR/ZSH7dxBl3UdfYdGu6ndm1peTiDwiZUBBBAAAEEEEAAAQQQQAABBBBAAAEEEEAAAQQQQACBcQRIoo+DwyUEIhVobGx0D/f+fInxfMvFMUv1H9ZyvXeZvkoi7SNe7c7tq25Xq0/VvdUr9Wc6Hb19IXn19UFpPz6YLeXePePJVxZWrv8r/Rx46WRNLAgggAACCCCAAAIIIIAAAggggAACCCCAAAIIIIAAAtELkESP3ow7EIhIwCbWn+v52dVhx71WjHODrlRfpj9tcj2pifVzSfVqTahfNjVfiovSY6W6XZ1uE+ltxwakrz8ckWlaN3LMrx2/f+OOr+55Pa3jJDgEEEAAAQQQQAABBBBAAAEEEEAAAQQQQAABBBBAAIFxBUiij8vDRQTiK3BJYj0FK9Zt+fdp1QVSq6+K8jzx+1L/Z+C4lnp/8ZWBjC/1PlLe3TE377qv9ZH4fnLoDQEEEEAAAQQQQAABBBBAAAEEEEAAAQQQQAABBBBAIFkCqc+eJWumjINAmgrYxPrBsw9c63qyVsRZo2Gu19eUZIRrE+h2H/XamgJdpV4g+XluMoYdc4zTnQF54ZV+OdMVGLNNBlwIOo781Y77Wu7JgFgJEQEEEEAAAQQQQAABBBBAAAEEEEAAAQQQQAABBBBA4CIBkugXgfAWgVQLrGtc5685O7jUZ5z3e568TxOymlyXomTEZfdQn64JdZtULyzwJWPIUcfo6g3KkRf7MjqZruX7v1NYVvT5+xubhkadJCcRQAABBBBAAAEEEEAAAQQQQAABBBBAAAEEEEAAAQTSUoAkelo+FoJC4G2BW+66piQULnln2NGEuvE+qqvVr3r7auJ+O5dQnzGtMGUr1G2Z9+de6svkPdP3uJ75xPZtrScT96ToGQEEEEAAAQQQQAABBBBAAAEEEEAAAQQQQAABBBBAIJ4CJNHjqUlfCCRBoOGuFVe4Yccm0xt0uFX6SmgNdl0JP7KH+uW1hVJTVZCSPdTb2gfkhbZ+GQ54SRCO+xBtnudbv3vbnufi3jMdIoAAAggggAACCCCAAAIIIIAAAggggAACCCCAAAIIxF2AJHrcSekQgeQJNGxaO8vnBtcbcT6io96or7xEjm73UK+bXiQ2oV5ZltChLplGKGxGSrzbhHoGHp2OeB/bsWXvoxkYOyEjgAACCCCAAAIIIIAAAggggAACCCCAAAIIIIAAAjklQBI9px43k81mgY13Lq8Oh/N1hbrZoKvH36dzTegK9dISn9TVFsmsGUVJLffe2xeSZ470Srfum55hx6ARuXnXlpafZljchIsAAggggAACCCCAAAIIIIAAAggggAACCCCAAAII5JQASfScetxMNlcENm6qn2Yc+aRx5SYxzlqdd8IS6udWp9tkelmpP2nEdkX6kRf7xK5Qz6DDEyN/tHNry7czKGZCRQABBBBAAAEEEEAAAQQQQAABBBBAAAEEEEAAAQRySoAkek49biabiwJ2hbrx/P+Plnz/XZ1/QvdQr9AS73NnF8v0msKkUA8MhuTpI2flTFcgKePFaRDd2N3csXNL67Y49Uc3CCCAAAIIIIAAAggggAACCCCAAAIIIIAAAggggAACcRQgiR5HTLpCIN0F7B7qji98mxjzGf3Hf3mi4i0q9MncWcUj+6fbleqJPuyq9IMvnNVpJXqkOPbvOXfv3Nb8tTj2SFcIIIAAAggggAACCCCAAAIIIIAAAggggAACCCCAAAJxEPDFoQ+6QACBDBE41Ppqz8Hm9kca1t+2tWP46GOa3i7S0K/SV1z/FoRCRk6dCchrxwclqL/bMu++BCbT7Qr4Wl39fqY7IIFghmTSHfmtRavqig62tD+cIR8fwkQAAQQQQAABBBBAAAEEEEAAAQQQQAABBBBAAAEEckIg8UtEc4KRSSKQuQINd624wgm6t4nj/L7jmOmJmMm5fdPnaan3woK45usvCNfuj37guV5pPzF0wfl0fmMc58u77mv+b+kcI7EhgAACCCCAAAIIIIAAAggggAACCCCAAAIIIIAAArkkkLhsVi4pMlcEMljg0OPHug+2tv9nzfp520oD4QM6lVn6qovnlDxdHN7dG5SXtey6XSluV44nYmW66zojK9KLi3xyujMgdtx0P/SbTO9eXD9zQJ/B4+keK/EhgAACCCCAAAIIIIAAAggggAACCCCAAAIIIIAAArkgwEr0XHjKzBGBKAU2bF7xTiPu3Xrbh/TlRnn7hM3tyvQ5M4tl3uwSSdSe6X0DIXny2W7p6w9PGE8aNPAcY76wY2vrN9IgFkJAAAEEEEAAAQQQQAABBBBAAAEEEEAAAQQQQAABBHJagCR6Tj9+Jo/A+AI337FiqWPcP9YF3b+nLe3+6XE9Ep1Mt+Xd9x/qkRMdw3GNO0GdecY4n921tfk7CeqfbhFAAAEEEEAAAQQQQAABBBBAAAEEEEAAAQQQQAABBCIQIIkeARJNEMh1gYZNa2c5buhO/YPxB2pREm+PgnxXrp5XKnW1cc/Tj4R65KU+OdrWH++wE9GfFruXT+za0vLTRHROnwgggAACCCCAAAIIIIAAAggggAACCCCAAAIIIIAAAhMLkESf2IgWCCDwpsDGO5dXh728u/QPxxf0VNwz3nav9EVXTZFK/Rnvo/3EoDx9uFdM+u+TPuh48p4d21pa421AfwgggAACCCCAAAIIIIAAAggggAACCCCAAAIIIIAAAhMLkESf2IgWCCBwkYBdme5zQ/9V89F2ZXpcM96O/lW6fFqhLJhbKoUFvotGntzb052BkX3SbZn3dD60rPtxY3wrd2977NV0jpPYEEAAAQQQQAABBBBAAAEEEEAAAQQQQAABBBBAAIFsFCCJno1PlTkhkCSBhk1r5ruu95ci5tM6pBvPYRO1X3rfQEha93fL4FA4nuEmoq/DXn5w1e579vUkonP6RAABBBBAAAEEEEAAAQQQQAABBBBAAAEEEEAAAQQQGF2AJProLpxFAIEoBG6+Y8VS47lf01XkvxXFbRE1LSr0ydIFZVJdlR9R+0gaDQ2HpWV/l/T1p3ciXUvP/+JUReGHmhqbQpHMizYIIIAAAggggAACCCCAAAIIIIAAAggggAACCCCAAAKTF4hvreTJx0MPCCCQgQIHm4+dPNjS/r1Fq+r26DdzbtAp1MRrGqGQkfYTQxIIGqmqyBfXnfx3f/x+V2Zoyfgz3UEZGvbiFWrc+9EvJcwtCYSLDza3/yLundMhAggggAACCCCAAAIIIIAAAggggAACCCCAAAIIIIDAqAIk0Udl4SQCCMQioIn0l2rWz/tW6XCwU8RZo30UxNLPaPd09wbl2MkhKSvxS3HR5P90+XyO1NYUpH8iXWT14tUzD2ki/dBoLpxDAAEEEEAAAQQQQAABBBBAAAEEEEAAAQQQQAABBBCIr8Dkl3TGNx56QwCBLBHYcPeaGSbofSUR+6XX1RbK4vllYvdNn+wRCht54pluOdMVmGxXiby/35Vw/fYtTxxM5CD0jQACCCCAAAIIIIAAAggggAACCCCAAAIIIIAAAgggoEtFQUAAAQQSKbBh84p3GnH/VsdYGs9x4rlXekYk0o286BUEl+++Z19PPB3pCwEEEEAAAQQQQAABBBBAAAEEEEAAAQQQQAABBBBA4EKByddEvrA/3iGAAAIXCBxoOfaqlnj/dmkgZJO/a/WVf0GDGN/YvdJteXfPiFRXTq5Lu8/69MsK5bSuRk/bPdIdqXLCvqu0ZP6uGMm4DQEEEEAAAQQQQAABBBBAAAEEEEAAAQQQQAABBBBAIAIBkugRINEEAQQmJ9DW1Obpnt7NS941+37Nel+hvV09uR7fvruzOyinzgQ0kZ4neXnu2xei/M0m0mdMS/NEurotXll3TBPpT0U5PZojgAACCCCAAAIIIIAAAggggAACCCCAAAIIIIAAAghEKEA59wihaIYAAvETuGnzyo9ob/+gf4Auj1evdn/0pQvLZHpN4aS6DAQ9efypTunrD0+qnwTePOh5vmt3b9vzXALHoGsEEEAAAQQQQAABBBBAAAEEEEAAAQQQQAABBBBAIGcFWImes4+eiSOQOgFdSf38wlUz73ccmalRLIlHJLas+4mOYQkEjVw2tSDmLn2ajK+tKZDj2pctGZ+GR57jmNU3rJ/3z/ub2kJpGB8hIYAAAggggAACCCCAAAIIIIAAAggggAACCCCAAAIZLUASPaMfH8EjkLkCh1raB7XE+/9dtHLm05pMf4/OpDQes+nuDcoZLfE+rbpAbEI8lsPvdzURny/tx9/Ycz2WPhJ8z/RgIFyofr9I8Dh0jwACCCCAAAIIIIAAAggggAACCCCAAAIIIIAAAgjknABJ9Jx75EwYgfQS0FXpRxa+e9r/ccO+Co3s+nhENzgUlvYTQ1JVkS9FBbH9mcvX/dUryvLk2MmheIQU9z706wErl6ya8ciBlmOvxr1zOkQAAQQQQAABBBBAAAEEEEAAAQQQQAABBBBAAAEEclggtmWaOQzG1BFAIHECN9+xqkGM+ZaOUBmPUXSFuyy9ukzqaoti7q79xKA8fbhXw4q5i0TeeLiovPC6+xub0jPTn8iZ0zcCCCCAAAIIIIAAAggggAACCCCAAAIIIIAAAgggkCCB2JZoJigYukUAgdwW0PLkhxbWz9nuuOHlIs7seGjYfdLtfunVlfkxdVdWmieu68jprkBM9yf4pprwUNCnq9F/meBx6B4BBBBAAAEEEEAAAQQQQAABBBBAAAEEEEAAAQQQyBkBkug586iZKAKZIXCo9dWehhs/+8+nh1/o0kT6+zTqSf+d6tQ90nv7QnKZ7pNuE+LRHrYs/MBgeKSPaO9NeHvHWbm4ftaDB1tfez3hYzEAAggggAACCCCAAAIIIIAAAggggAACCCCAAAIIIJADAtFnk3IAhSkigEB6CGzYtLLeuLJDo5kTj4jsHucrllaI3e882iMUNtLymy7p7g1Ge2sy2j91dfn6GxobG71kDMYYCCCAAAIIIIAAAggggAACCCCAAAIIIIAAAggggEA2C0x6hWc24zA3BBBIrcCB1vZjC9897X4n7LtKI7l6stEMDXvy+qlhqa3Ol7woE+l2BftlU/Pl2MkhCWtCPc2O6WeGXujQsu5PpFlchIMAAggggAACCCCAAAIIIIAAAggggAACCCCAAAIIZJwASfSMe2QEjEBuCRzac3y4Yf1tP4xXefdQyIwk0m2J9qKC6P4E+v2ulOse6TaRnnaH46y6Zs20fzrQfHwg7WIjIAQQQAABBBBAAAEEEEAAAQQQQAABBBBAAAEEEEAggwSiyyBl0MQIFQEEskegqanJHGw51rpk1YwmY9z1jiNTJjM7u5L8uCbCbXn34qLo/gza9nZV+umuwGRCSMS9RWJ8ZQda2n+WiM7pEwEEEEAAAQQQQAABBBBAAAEEEEAAAQQQQAABBBDIFYHoske5osI8EUAgLQW0XPmrutr6u8b4btAAr5hMkJ5WZLcrym1SvExXl0dz2FXsvX0h6RsIR3NbMtpet7h+1gMHW197PRmDMQYCCCCAAAIIIIAAAggggAACCCCAAAIIIIAAAgggkI0CbjZOijkhgED2Cmz/+r7TJ8sLP6A58HsmO0ujnTx9uFfaTwxG3dWyheVSVJh230NyxfW2RD0ZbkAAAQQQQAABBBBAAAEEEEAAAQQQQAABBBBAAAEEEHhLIO0yQG9Fxi8IIIDAGAJtTW3ewZb2h5esuvy4iLNem03qb9nJ08NRr0i3Jd0ry/Ok/Xj0CfgxphWv07OWrJzxpK7afyFeHdIPAggggAACCCCAAAIIIIAAAggggAACCCCAAAIIIJBLApNKPOUSFHNFAIH0E9BE8b4lq2f+UheUf9QRKZlMhLEk0osKfGLLwnd2ByczdPzvdZ1rGm687Vt2L/n4d06PCCCAAAIIIIAAAggggAACCCCAAAIIIIAAAggggEB2C5BEz+7ny+wQyHqBA83try1cO+OHjnE+oJOtmcyET3REvyK9ujJfTp0JyNCwN5mh433vZR3DR1/W1fpPx7tj+kMAAQQQQAABBBBAAAEEEEAAAQQQQAABBBBAAAEEsl2AJHq2P2Hmh0AOCBx6/Fj3wndP+xcn7KvX6V4xmSnbFen5ea5UlOVF3E1VRZ68ciy9yrrryvxlN6yf9639TW2hiCdCQwQQQAABBBBAAAEEEEAAAQQQQAABBBBAAAEEEEAAgcntI4wfAgggkC4Ch/YcH65ZP+/7U4ZDl2lM108mLruyvLjIJ2WlkSXSbdLd7pF+uiswmWHjfW9FeCh4QkvePxHvjukPAQQQQAABBBBAAAEEEEAAAQQQQAABBBBAAAEEEMhmAVaiZ/PTZW4I5JhAW1Obd6Cl/WeLVtaJ48i6yUzfrkivKs8fSaZH0k9VRb6c0b3RB4fCkTRPThvHWahfLPiGdUnOgIyCAAIIIIAAAggggAACCCCAAAIIIIAAAggggAACCGS+AEn0zH+GzAABBC4S0L3Af7VoVV2bljT/sF6K+e+c3SN9alW+FBVE1sVULev+2vEh8cxFAaXubUXJcOgl9kZP3QNgZAQQQAABBBBAAAEEEEAAAQQQQAABBBBAAAEEEMg8ATfzQiZiBBBAYGKBXVtavqu57E9oy5g3Kw+FjTz5TLf0DUS2rXhxkV8WzC2dOLgkttAvEnyxsbGRv/VJNGcoBBBAAAEEEEAAAQQQQAABBBBAAAEEEEAAAQQQyGwBEiuZ/fyIHgEExhHQRPpPHfFuFDE94zQb99JwwJPW/d0yNBxZmfY5dcUytTJ/3D6TfPHqw70P2S8TcCCAAAIIIIAAAggggAACCCCAAAIIIIAAAggggAACCEQgQBI9AiSaIIBA5grs2LL3UXHMu3VVekess7D7nLfs75JAMLKtxZfMn2L3ZE+fw5g70ycYIkEAAQQQQAABBBBAAAEEEEAAAQQQQAABBBBAAAEE0lsgso1+03sORIcAAgiMK3Cw+djJhfWzf6LJ9I9rbrts3MZjXAwEjXSfDcn0ywrFdcfPkOfnuSP7ond2B8foLemn6xbXz/r5wdbXXk/6yAyIAAIIIIAAAggggAACCCCAAAIIIIAAAggggAACCGSYACvRM+yBES4CCMQmsHvbnueMz3un3t0WWw8iZ7oCcuC53ohunze7RAry0+hPrGv+LKLAaYQAAggggAACCCCAAAIIIIAAAggggAACCCCAAAII5LhAGmV4cvxJMH0EEEi4wO57977sef53i5EXYx2s/cSQtLUPTHi73+fI1fNKJ2yXvAbmkxs31U9L3niMhAACCCCAAAIIIIAAAggggAACCCCAAAIIIIAAAghkpgBJ9Mx8bkSNAAIxCuze9tir/rBZN5lE+sEXzsrpzsCEEdTVFsnUyvwJ2yWpQZFxnT9I0lgMgwACCCCAAAIIIIAAAggggAACCCCAAAIIIIAAAghkrABJ9Ix9dASOAAKxCnz/b1vbJ5NIN0bkyWe7pW8gNGEIS+ZPEWf8LdQn7CNeDTTszzY2NvJ3P16g9IMAAggggAACCCCAAAIIIIAAAggggAACCCCAAAJZKUAyJSsfK5NCAIGJBCabSA+FzUgi3f4c7ygt9svsy4vHa5LMa3MO9T7w7mQOyFgIIIAAAggggAACCCCAAAIIIIAAAggggAACCCCAQKYJkETPtCdGvAggEDcBm0j3jP+9sZZ27+sPy/5DPRPGs2BuqRTkp8efW8e4vz9hwDRAAAEEEEAAAQQQQAABBBBAAAEEEEAAAQQQQAABBHJYIE2KDOfwE2DqCCBwicCtjesK+7uCsx3Hu9pxzZWOZ6q1JnqlEadEG5eJGH1Jub4GtbT6gJZLH7a/iyNBfX/a8Zx28UmbEzavOmLatm9rPanXxzwaNq2d5bqhx7TBzDEbjXPBJsnnzbahjX20tQ/IgefPjt0geVf6830D07537zP9yRuSkRBAAAEEEEAAAQQQQAABBBBAAAEEEEAAAQQQQACBzBEgiZ45z4pIEchKgU99aW1laDi0VpPk7xLPLHUcZ64myefoZOO5dHtQ+zusf/D2eiItPgk/Ob/8w4d1f3B9+8bRsGnNfNcN/0rfTTt3LtKfds/z+qWVUl2VP+Yttuz7r1rPyOBQeMw2ybqgBehv3bWl5bvJGo9xEEAAAQQQQAABBBBAAAEEEEAAAQQQQAABBBBAAIFMEtDUDwcCCCCQPIGGLy4vd4P5H3CMea9xZK2WUl+oo8czYR7hZEyPMc5ex5UHPdf7t9337n355jtWLBXjPqIdVEbYyVvNbLn2d9dPlfy8safSfmJQy7/3vnVPqn7R1fq/2LW15QOpGp9xEUAAAQQQQAABBBBAAAEEEEAAAQQQQAABBBBAAIF0FiCJns5Ph9gQyBKBW+66pmQ4XPxe/YNzi07pt/VVlH5Tc14yYv5dV5W/oon9/6nxjV+ffZQJTK3Ml1XXjp9/b2o9LXYv9RQfnusGp23/+r7TKY6D4RFAAAEEEEAAAQQQQAABBBBAAAEEEEAAAQQQQACBtBPwp11EBIQAAlkhsK5xnX9a7/DHNSH96UDYfEAT6GmYOD+fWvdeF/mCxmuPt8q8n99iot/PdAXk6Cv94+6PPv/KUtn3bM9EXSX6uhsO539UB/lOogeifwQQQAABBBBAAAEEEEAAAQQQQAABBBBAAAEEEEAg0wRIomfaEyNeBNJcwK46D4aLPm16Bu8Uca5K83DHCm/smuxj3fHm+ede6hO7Ir2yLG/UltNrCqWibEC6e4OjXk/WSccxH9exSKInC5xxEEAAAQQQQAABBBBAAAEEEEAAAQQQQAABBBBAIGMEKOeeMY+KQBFIb4GNm+qn6R7nm4zj/LFGOn5N8/SeyqSjKyr0jeyP7veN/if2dGdAWvZ3TXqcSXYw6OUHp+++Z1/Kl8VPch7cjgACCCCAAAIIIIAAAggggAACCCCAAAIIIIAAAgjEVcAX197oDAEEck7g1sZ1hQuurb1bk+c/FMd5rwKkedn2xD+iUMhIKGzksqkFow5WXOSTU2cCMjQcU9X4UfuM4WSehPzPHGxpPxDDvdyCAAIIIIAAAggggAACCCCAAAIIIIAAAggggAACCGStQMwli7NWhIkhgEDEAjdtXvmRwZ7hg7qN+F/rTSUR35gDDV85NiB2xflYx9zZxWNdStp51/Xen7TBGAgBBBBAAAEEEEAAAQQQQAABBBBAAAEEEEAAAQQQyBAB9kTPkAdFmAikk8DGzTcs8sT3LY1pjYim0DkuETDK8ptDPSNl3fPzLv2+kt0bvbSkT/r6w5fcm6wTnnFuTNZYjIMAAggggAACCCCAAAIIIIAAAggggAACCCCAAAIIZIoA5dwz5UkRJwJpINDY2OjWXjv4WSPuDzWcuWkQUlqHENaS7sMBT2o1YT7a4fc7cqJjeLRLSTmnO7aXXbNq+g8PtLzekZQBGQQBBBBAAAEEEEAAAQQQQAABBBBAAAEEEEAAAQQQyACBS5dHZkDQhIgAAskX2Lipftrhngd/bMSxK9Ap3R7hI2g/MSTHO4ZGbV1XWyQF+an9M+yJS0n3UZ8OJxFAAAEEEEAAAQQQQAABBBBAAAEEEEAAAQQQQCBXBSjnnqtPnnkjEIXATbev+pjnmH/SW6qiuI2mbwoceO6s1FQViN+na78vOq6YWSxHXuy76Gwy3zo2ib4tmSPGMta6xnX+mq7QDJ8vXOd5MttxzXTHM9XiOJXGNRUm7Ey1/TqO2M3mi94awzF9xnOGjSMh15EuLbN/Whv1OMY7Y4z7imOcY66EX92+rfXkW/fwCwIIIIAAAggggAACCCCAAAIIIIAAAggggAACCOS0wKUZnZzmYPIIIHCxwIbNK/9Ct/f+sp5P7ZLpiwPLsPdz6opl8VVTLok6pCXfH36sQ+zP1Bym5+ryD1ZpqX4vNeNfOmrDXSuucD3f9SZsljmuLNAWV+trnr7yLm0dtzOD2tNhcc3zjuc8q/vFHzLG99TubY+9GrcR6AgBBBBAAAEEEEAAAQQQQAABBBBAAAEEEEAAAQQyQoAkekY8JoJEIPkCtzauKxzsGf5HEXNL8kfPzhHXXF8llWWX5oEPPH9W2toHUjZpXYm9ePuWJw6mIgD7ORvoHVwlnvMuXS1er/9Rul5fNamIZYwx7Qr1JzSmZl3B3nSirGBvU2NTaIy2nEYAAQQQQAABBBBAAAEEEEAAAQQQQAABBBBAAIEsECCJngUPkSkgEG+BjXcur/a8vB9pv2vi3Xcu91da4pN19dWXEAwMhuSRljOipcZTcxj57M6tLd9O1uANm9bMd93Qei2+bkvJv0dfJckaOw7j9OtzelxXyD+oq9V/sntL89E49EkXCCCAAAIIIIAAAggggAACCCCAAAIIIIAAAgggkEYCJNHT6GEQCgLpILBxU/00z3Ue0VhsCW2OOAssmFsq82ZfmjNu/k2XnOkKxHm0yLpzHPOdHfe1/kFkrWNr1bB51TyfmJt0tflGMbI4tl7S8q7D+t2HnziOt33nfXufTssICQoBBBBAAAEEEEAAAQQQQAABBBBAAAEEEEAAAQSiEiCJHhUXjRHIbgES6Il/vn6fI+tWTpXCAt8Fgx3vGJJ9z/ZccC6Jbw7v3NKyMN7jNXxxebkb8N+qK85/V/u+Lt79p2F/h/U/qv8S9vz/wl7qafh0CAkBBBBAAAEEEEAAAQQQQAABBBBAAAEEEEAAgQgFSKJHCEUzBLJdgAR68p5wbU2BXL+k4pIBf/n4aRkcCl9yPgknPC8/WLX7nn1xyeI33Fm/3Gfkc8Y4GzX2oiTEn25DeJ7IQ/of2H9YWL7+Z42NjfqWAwEEEEAAAQQQQAABBBBAAAEEEEAAAQQQQAABBDJFgCR6pjwp4kQggQJv7oH+ax2CEu4JdD6/65XLKqW6Kv/8U3L0lX458mLfBeeS9cYz7urdWx9vjnU8TRS7h7of+qiWhv+S9lEfaz9ZeF+beM7fe4WBf4zXlxSy0IgpIYAAAggggAACCCCAAAIIIIAAAggggAACCCCQVgIX1hNOq9AIBgEEkiGwrnGdv2TI/ETHuiEZ4zHGGwLdZ4Myp674Ao7iIp+89NrABeeS9cYR03Kwpf2paMezyfPLrh367dPDR3/gOLJZ76+Lto8sb18hjvyWE/Z9ftGqutol75r9zIE9r53N8jkzPQQQQAABBBBAAAEEEEAAAQQQQAABBBBAAAEEMlrAn9HREzwCCExaoLZ38FtGnPdMuqNROijId6Wo0Kf7f7tSWuKXQn1foL/n+VzJ19/z8xzx+91L7vQ8I6GQJ8NBI+GQkWBYfx/2pG8gLGf7QzIwGJah4bAYc8mtGXOirz8sbe0DFyTS7T7pUyvz5UxXIOnzMI4siWZQmzw/3PvQJw73PPg/tKQJFQwmxpuiTl8wwfBnb9q88m/039xXd29p7pz4NloggAACCCCAAAIIIIAAAggggAACCCCAAAIIIIBAsgUo555sccZDII0Ebr5j5R1i5OvxCKm0xCcVU/JGkuX2Z9kUvybJL02Qx2Osc330DYSkuzcopzsDYld228R0Jh1+nyPvX1sj9ue5o/3EoOw/1HvubdJ+6hcSfrFra8sHIhnw5k2rbxBf+F4xzrsiaU+bUQXO6ndA/r7AN/Dl7937TP+oLTiJAAIIIIAAAggggAACCCCAAAIIIIAAAggggAACKRF4O3OTkuEZFAEEUiWwcfOq9Z6Yn+n4MWW6bdK8urJAV07nydSK/IQnzCNxCgQ9OdMdkJMdw3JCX6Fw+i9VnzenRBZcWfrW9GzMDz/WkYrYT+7c0lL7ViCj/PLpP6uvC+U59+gXLzbo5Zg+N6N0m+unXjPG+cKurc0/ynUI5o8AAggggAACCCCAAAIIIIAAAggggAACCCCAQLoIkERPlydBHAgkUWDjncurw17eIf0DUBPpsLrftVRpsnx6TYHU6suWHk/nwyajOzqH0z6hblehr1s59QLPJ5/tHvkSQLJ9830DpaOtiral24/0PHCbliC/V2Oakuy4cmS8R1wJ/9n2LU8czJH5Mk0EEEAAAQQQQAABBBBAAAEEEEAAAQQQQAABBNJWIL2zYGnLRmAIZLbAopWzd2pO/NqJZmET5xVleTJvdoksW1gucy4vHnk/2j7mE/WV7Ouu68gU3Ye9tqZQ5sws1jLzPt1H3Rt5JTuW8cbT7d/Fvi6bWvBWM0fXeB8/NfzW+2T9Yoz7gwMtr3ecP17D5lXzzgwf3S3i/JmefzvI8xvxezwErjDi/v6ilXX+G9bPa93f1BaKR6f0gQACCCCAAAIIIIAAAggggAACCCCAAAIIIIAAAtELkESP3ow7EMhogZtuX/UZTY7/+XiTsKujZ2nCfNnCspEEuk2k+87bt3u8e9Pxmk2ol5XmyawZRVKjyeqgln3vH0yf/dN7dD/3GdMK3yqJX1Tok7b2gZHkelI9jfz8QMuxF+yYdvX5tKXDdzmO2aVv35HUOHJ3sDz9t7kuNBz60OLVM1oPNh87mbsUzBwBBBBAAAEEEEAAAQQQQAABBBBAAAEEEEAAgdQJkERPnT0jI5B0gYa7VlzhGufHOvCoK4oL8l15h+7Rfd3iipGS7fl52bftdZGWobcJa7tCfTiQPsl0u0rexmUPm/Tv1sR630ByE/1aeOBxTaI/Ycv9nxx6ebcmdD+n4eSNBMX/JFNguq78/wNdle42rL/t0aamJq1VwIEAAggggAACCCCAAAIIIIAAAggggAACCCCAAALJEiCJnixpxkEgDQQWr5i5SxOjV18cip6TeZo8X67J8+rK/JEk7sVtsu29/cKATVrbleln+0IpL/NuE+Y2Fpvkt4dnTNL3RTeO8+ySVTOGPeN/WL8+cV22PfMMm4/Prko/HXjhPQtXXPGfh1pf7cmw+AkXAQQQQAABBBBAAAEEEEAAAQQQQAABBBBAAIGMFdDUGQcCCOSCwIbbV3zYOO6/XzxXu1f49UsqpLTYf/GlnHrffmJQDh/tG1mdnqqJT9UvMKy6tnJk+ICWnP/FYx2iufSkHcY4x7V8+zQdMPtKECRNMREDmR7dr/7WXVubf5SI3ukTAQQQQAABBBBAAAEEEEAAAQQQQAABBBBAAAEELhQgiX6hB+8QyEqBdY3r/NN6h34jRhafP0G7Av19q6ul8M3Vz+dfGxoOSyBoJKAlz4cCYQmFjITCb77s7yFv5H1Qfw/r+YuPc3uo5/kdsXus+/2uvhwp1BXgBQXuyJglRb639gG/+P5UvLfzO/Bcrxw7OZTU5PX5c125rFKqq/JHTj32ZKd09wbPv8zvuSvg6b+yry0sX/8Xul+9l7sMzBwBBBBAAAEEEEAAAQQQQAABBBBAAAEEEEAAgcQLkERPvDEjIJBygQ23139eS3X/3WiBFBX6xJY2D4U9TYaLBHUFtE0mJ+uwifySYt/ISvjSEr+UT/HLFP2ZypXxpzsD8vSRXhkcSu6e5Na8oixP1l5fNcJ/5KU+OdrWn6xHwTgZIKDZ8wfyCvyf/sFXHuvKgHAJEQEEEEAAAQQQQAABBBBAAAEEEEAAAQQQQACBjBQgiZ6Rj42gEYhcoOGLy8udQN4L+o+9JvK7Ut/Srl4v14RyZXmeVFfkS4X+tOeSddhy6s9oIv1Ex3CyhnxrnOVLymV6TaHYZH7LfnKlb8HwyzmBw57P+/Due/e+fO4EPxFAAAEEEEAAAQQQQAABBBBAAAEEEEAAAQQQQCB+AsnLSMUvZnpCAIEoBG66Y9XXHGPuiuKWtGxqV6xXaTK9Rkudz7isQIqLkrOHe1v7gBx84WxSy7vbferX1VePVAR46Nenkjp2Wj58DeriigXnbwtwbssA13XEvs4/PC2Cbr8QYbcdsFsU2K0H+gbCMqRVBuzPvv5QUisvnB/bJH/vdBznIzvua358kv1wOwIIIIAAAggggAACCCCAAAIIIIAAAggggAACCFwkcGG24aKLvEUAgcwWuOWua0oC4eIOnUVRZs/k0uhtorlWV2vPuKxQykoTm1C3K8J/c6hHhnV/+GQdyxaWSV1tkTS1ntZEb/LLyidrnmONY59vdWWBlrf36/PNS+gzHhgMSU+fvs6GpKsnKJ3dgUz54kK/K84nt29pfnAsR84jgAACCCCAAAIIIIAAAggggAACCCCAAAIIIIBA9AIk0aM34w4EMkZgwx2rVhtj9mRMwDEGavcRr6stlLrpRQkr+W4TrXuf6U5aQtvuVf++1dXy5LPdKSkpH+OjiPm2gnx3pMpAtVYaqK7Ml8ICX8x9TfbGkK5W79Zk+mlNpp/oGEraM48x7qAxzk27tjb/KMb7uQ0BBBBAAAEEEEAAAQQQQAABBBBAAAEEEEAAAQQuEkhdluKiQHiLAALxF7j+xnkdoeHQR7Tn2vj3nj49Dg17cupMQF58tV8GBsOaSHe13Ht8/7zl5bkyY1qhnOkOalnwxK9ID2n58TdKkzvS3RtMH+w4RmK/KDCnrlgWX1UmC+dNGaksYFed+/1uHEeJvivrbj8/Nplv47Nf0CjQpL5Nrifj2UcZsU9L3X9i0cqZRw+2tB+I8l6aI4AAAggggAACCCCAAAIIIIAAAggggAACCCCAwCgCrEQfBYVTCGSTgC3pHgqXvNMYb64nTrXmB2uNayrEc0p1npUipkZ3nJ6uv0/Jpnnb1elz6opGSqLHc142kbpfS7uf6BiOZ7ej9mX3Ac/X5H0yy8iPGkgcT/p9+gGsKRh5LnbVeaYdtiLBq8eH5LXXB9PtuXi6Iv13dEX69kwzJV4EEEAAAQQQQAABBBBAAAEEEEAAAQQQQAABBNJNgCR6uj0R4kEgRQK3Nq4r7O8bmO54zhzx3Cs0uT7TceUqMbJAQ5qvr5IUhTapYe1q5/lXlsQ9mZ4rZdYnhX/ezee+1GD3sbeJ9Gw4jmup92MnhuTk6eF02UM9aEQ+sWtLy0+zwZc5IIAAAggggAACCCCAAAIIIIAAAggggAACCCCQKoHsyGSkSo9xEcgRgcbGRvdg389n+0Ky0BP3el0hfb2uel3uOMauYM+Io7TEJ/NmxzeZTiJ94kc/daQkepFM1+R5th59AyFpax+U9uODIyXfUzzPQU2kf1QT6Q+nOA6GRwABBBBAAAEEEEAAAQQQQAABBBBAAAEEEEAgYwVIomfsoyNwBFIv8Ok/q68L+tx3uo55l3Fkra5aX6hRpXZD6wlY7IroRVdNkUr9GY+DRPqlirYM/ezLi+XKmUW6t7j/0gZZeiYQ9OT5l/vTIZl+VhzvnTvv2/t0llIzLQQQQAABBBBAAAEEEEAAAQQQQAABBBBAAAEEEipAEj2hvHSOQG4JNGxeVeWIWaOzfr9j5MPiyNx0FLBJ3sunFcqCuaVSWOCbVIh2j/SW33RJd29wUv1kw83xdM1kj3RIputq9GNunm/Fjq/ueT2TLYkdAQQQQAABBBBAAAEEEEAAAQQQQAABBBBAAIFUCJBET4U6YyKQIwINm9bMd93Qei39/mFNsK7VaRel09Tt3tw2kT6nrnhSYdmk6aNPdMrgUHhS/WTyzbZs+6J3TJGy0txZeT7R8xoaDsvRVwa01PvARE0Tdf2pfN/Au7537zP9iRqAfhFAAAEEEEAAAQQQQAABBBBAAAEEEEAAAQQQyEYBkujZ+FSZEwJpKHDLXdeUDHtFH3eMc7OGd6O+4lNPPQ5ztQngaxeWTWpVut0X+zFNpNuV6bl0xLs8fjbadWmVgoPPn01VtYLdV5ev39DY2Ohloy1zQgABBBBAAAEEEEAAAQQQQAABBBBAAAEEEEAgEQIk0ROhSp8IIDCuwKe+tLYyNBT+uIjZoCvU12njlCfU7ar0xfOnSF1t7IvlT3cGpPXpLjE5kEeP1yr+cT8oWXax/cSgHD7aJ8OBJOezPefunduav5ZlnEwHAQQQQAABBBBAAAEEEEAAAQQQQAABBBBAAIGECZBETxgtHSOAQCQCG+5eM0OC4Vs17/xZbT8nknsS2aautlCT6WVik8SxHDZRuv9Qbyy3ZsQ95/Y9X6il2/Pz3KTHbEvnh0L60sr5Yc9IOGT043NpUjrP54rP70ievmycqYh1NBwb/6EXzsqxk0PJ/LJF0Djmxl33tT4yWkycQwABBBBAAAEEEEAAAQQQQAABBBBAAAEEEEAAgQsFYssSXdgH7xBAAIFJC2i5afdQz4Pv1T9Kf6idfUxfKVudXlrik+sWVcS8v/f+Qz3SfmJo0ibp1kFRoU+WLiiT6qr8hIVmy+Gf7Q9Jv5bH7xsIy5DuMz847MnAoP6ue4zHusrfJv8LC3xSXOSTogJXCnUu5VP8MqXEL6XFyd/H3VYtePpIrwzq/JJxGOMc9/kC12z/+r7TyRiPMRBAAAEEEEAAAQQQQAABBBBAAAEEEEAAAQQQyGQBkuiZ/PSIHYEsFdi4qX5aWJwvOK78sU6xKhXTtEnXpVeXxVTe3SaCH3vyjPT1JydBmgyfya7QHytGu194j7667etsUJPnsSfKxxpjovP2WZcU+6S6skAqyvz6yktKYt1+Tg4815u8L1y4ZsfOr7dunMiD6wgggAACCCCAAAIIIIAAAggggAACCCCAAAII5LoASfRc/wQwfwTSWODWxnWFAz1DN+sfqi9qmFenItQ5dcWy+KopUQ/d2xeSx/d1atnxzN4gvSDfHdkrfnpNYdQGo90wMBiSU2cCcrpLX7oaO1197LxrdMW9XXVfXZk/sop9tPnE49zxjiF5WrcASIaFrkj/1K6tzdvjETd9IIAAAggggAACCCCAAAIIIIAAAggggAACCCCQrQIk0bP1yTIvBLJIwJZ6P9z70Ce0lvdf6rSWJntqtTUFsmxhedT7pLe1D8iB588mO9y4jWdXZF+/pHzSCWS72vyYlrc/eXo4aeXL44agHdmV6uVT8sR+DuwrEeXf7ZcLnjrYO7IiP56xj9JXl5PnW7zjq3teH+UapxBAAAEEEEAAAQQQQAABBBBAAAEEEEAAAQQQQEAFSKLzMUAAgYwReHPf9A/rH65GDfq6ZAZuE8orllZIfp4b1bBPPtstJzqGo7onHRrHugL/XOznEufHTw3JcMA7dzorfpaW+DSZXiizphfqHuvx20/drkQ/8mKf2C9fJPSgrHtCeekcAQQQQAABBBBAAAEEEEAAAQQQQAABBBBAIPMFSKJn/jNkBgjknMB5K9P/h04+aWXeiwp9suraiqgSp0PDYWlqOZOUUt3x+CD4fY4sXVgmsZRvt3Nt1xXnrxwbzMgV59H62RXqVRX5MlOT6Tapbu3icSSjvLsrzge3b2l+MB7x0gcCCCCAAAIIIIAAAggggAACCCCAAAIIIIAAAtkmEJ//xz/bVJgPAghkhIBNph/peeA2T5z/pX/MapIRtE2k1y+riKqkd6aUdbdzu+GaCikrjW51td3bvO3YwEi5dpPZW8DH/BGye6jPnFEkcy4vmnT5extE30BIbBWDvv5wzDGNf6N5vqi8aOn9jU1D47fjKgIIIIAAAggggAACCCCAAAIIIIAAAggggAACuSfgy70pM2MEEMgWgaamJnOg5di+he+e9o/i+f2aSL9B55bQv2uhkJHjp4alpqpAbOI0ksOWgj/THUzr1dm2RPnq6yqlpDiyBLotPf66lmp/6mCPvPTagCZ9E5XsjUQ49W3C6tGpz9ha9PaFRsr+FxfF/lG02wbUTS8aSaYnxtaZGh4ODR5oaX809XpEgAACCCCAAAIIIIAAAggggAACCCCAAAIIIIBAegmwEj29ngfRIIDAJAQaNq+ap2nte0XMf5lENxHdahPo9csqI161bVcW/6r1jKTjSu3amgJZtrA8onLkgaA3kih+7fXBrNvrPKIHH0Uj++WJubOLYyqNf/4w+w/1jJTJP/9cfH43Pa4bmrf96/tOx6c/ekEAAQQQQAABBBBAAAEEEEAAAQQQQAABBBBAIDsEYl8mlx3zZxYIIJBFAoda2jsPtrTvWLJyxpPiOKt1ahWJmp5deXyiY1imVReMrDqeaBy7stjTUud2tXI6HXW1hXLd4gpx3fG/U2WT5y+80i+/0ZXnp7sCYufPMb7A0LA3UrXArtgvKHBlSklkq/wv7tXut24/P6fOBC6+NMn3TqFnfEb/zTw8yY64HQEEEEAAAQQQQAABBBBAAAEEEEAAAQQQQACBrBIgiZ5Vj5PJIICAFdAS7y9ct7bq2yGT59PUsE2mj58hjpHNJpJtaffLpxWK3z9xaXe7MvnYySGxJeHT4ZhTVyzXLCgbNxRbtv35treT5/aLABzRCQSCb3xObBK8WPedj6XMu/3sTNG96u0XN+J56D+M5ctuuPy7z+491hvPfukLAQQQQAABBBBAAAEEEEAAAQQQQAABBBBAAIFMFiCJnslPj9gRQGBMgWcePxm0K2wX1896QByzQhvWjtl4EhdsIv1U57DM0ES6z6bsxznsau/8PCfuidBxhhzz0rw5JbJw3pQxr9sLbe0Dsu9Aj3Ro8pfk+bhUEV20K9PbTwzJGa1GUKqr0osKovtPsF3JXlWeP/L5iePzyDOuU6x7o/8soknQCAEEEEAAAQQQQAABBBBAAAEEEEAAAQQQQACBHBCI7v/BzwEQpogAAtklcLD1tddr1s/7dkkg7GiK+506u/Ez3TFM3640tolRm0ifqCx6WWme2PLe9p5UHXYF+ngJ9NOdAdn7TNdIwpey7fF/SoNDYbF7yvf2haSqIi+iKgbnorCr2KdW5cup08PxLKm/6Jr6y799oPVY/7lx+IkAAggggAACCCCAAAIIIIAAAggggAACCCCAQC4LxD2ZlMuYzB0BBNJboOH21at0Z/LvaRp9biIira0pkOvC1NwjAABAAElEQVSXTLwNu01St+zvSkQIE/Zp90BftrB81HZdvUE58mKfnNE9z1N0DOqzeVGMtOl/nNrFmC5j3C7jyBmNp1MrCvTZuIxrLsBzQz7XuF65GKdULxe5jjfFeG65tqvTfqbruRn6ulxf0+x1faXN4dfqBbYqwLzZJVHFZJ/Vk890y3DAi+q+sRobx/nyrvua/9tY1zmPAAIIIIAAAggggAACCCCAAAIIIIAAAggggEAuCZBEz6WnzVwRQEBuueuakqBX9DfGOJ9JBIdNiC640uZyxz+af9OV9GT1WEn+oeHwSPLc7tduUrNA/mkd99+MuP9R6O975nv3PpOQFdGNjY3uwZ6HrvSZ8HxjfAsdn7dAPweL9Eldo6+UJtdLS3yy+B1lUq2rzCM97Er2Vv0yRpwS6Z35voFZibKPdE60QwABBBBAAAEEEEAAAQQQQAABBBBAAAEEEEAgHQRIoqfDUyAGBBBIusBNt6/6mOOY7+jAlfEefNnCMqmrHT8na1cS73myM95Dj9mfTdKuvX6q2JXP5x9233O7+jyke7unyaFLq81RR5z/9IzzkCkIPLL7nn09iYxtXeM6/7SuwLXihleL46wQT+oTVa1gonnYSgEL3zFF8vPciZqOXO8bCEnzU/FJpDvG/OmOra3fiGhgGiGAAAIIIIAAAggggAACCCCAAAIIIIAAAgggkMUCF2ZTsniiTA0BBBC4WKDhrhVXuGH3h3r+uouvTea93Xx99fIqqSzLG7ebZK1Gt4nztTdUSWmx/6147CrmZ470Srcm89P8sAE+Jp7zgJcX/uHue/e+nIx4GzatneVzg+uNODfqeL+lrynJGNeOUZDvyuL5U2R6TWFEQ8Ytke7IgZ33tSyJaFAaIYAAAggggAACCCCAAAIIIIAAAggggAACCCCQxQIk0bP44TI1BBCYWODWxnWFQ72D34h3efeiQp+8UxPX460oTtbe6OevjA8EPXn+5X6xK9Az8LAbgP/KaAWBAnfw35JVetyuVK/tGVjlOb6P6mrtmzWGmcmwi2ZVuq1s0KpbBEy6ooDnrti57fEnkjE/xkAAAQQQQAABBBBAAAEEEEAAAQQQQAABBBBAIF0FSKKn65MhLgQQSKqAlnf/jJZ3/zsddPw67FFENbUyX1ZdO361+Me0pHsiV4NX6Gr4tddXjUTdfmJQDh/ti9ce2lFIJKTpWf0P2PfD4nx995bmowkZYZRO7b7qR3ofWunZZLpxGvQzM32UZnE7Fc2qdPuljNanuya1r72afnPHlpY/idsE6AgBBBBAAAEEEEAAAQQQQAABBBBAAAEEEEAAgQwUIImegQ+NkBFAIDECDXfWL3c858f6h/HyeI2wYG6pzJtdMmZ3xzuGZN+zidvye96cEimf4pfnXuqTvv7wmHFk8AUt9+7s8Dz3r3dv2/NcMudhE+rP9Tz0AU/MZ3Tc39ZX3L6AcfE87Kr0xfPLLtnT/uJ29vP01IGeySTSu4rKC2fc39g0dHHfvEcAAQQQQAABBBBAAAEEEEAAAQQQQAABBBBAIFcESKLnypNmngggEJHAhrvXzDDB8E+1cVz2SY9kf/RfPn5aBoeyMsEdkXmcGnniyA7POP89mSvTz8W+8c7l1Z7n/7Qm9H9fzy09dz6eP0tLfHL9kooL9rYfrX9bcWD/od7RLkV0Trc2+Piurc0/iqgxjRBAAAEEEEAAAQQQQAABBBBAAAEEEEAAAQQQyEIBkuhZ+FCZUuIF7ArUg10P17niTXOc0GWe+Ka5jqnVDZv1vVQbT2r059Q3I9HVqU6BEVOg/+CKRYyr7/P12rmVnn36XlfT2sN06//0iGtO6opo+/tp40iX3nvKNeaVsJf/yqLK97fr+HZvaI4ECdh90gd7h/5JjHwqHkNMtD/60Vf65ciL+jHgiIdA0IjcV1xe2Jiq1dS2ooHruZv03/MGnVBePCZ1rg/7pYxF75gic+r0T8k4xxGtPHC0rX+cFuNdcr63c0vz747XgmsIIIAAAggggAACCCCAAAIIIIAAAggggAACCGSzAEn0bH66zG3SAhs31U8zrrnKGHe+cZ35jpF3aGLsKu14nr7imhyLIlibcD+mr5d1P+aXjTgHjZFn3DzfoR1f3fN6FP3QdBwB+0WJQ10Pftlx5S/GaRbxpdqagpFVxKPdEAh68ovHOiZTgnu0bnP8nHle/218fteWlodTBdGwae0sxw19Tv9D+1mN4Y2N6eMUTCTl3Z98tltOdAzHMmLnyfLCaU2NTaFYbuYeBBBAAAEEEEAAAQQQQAABBBBAAAEEEEAAAQQyXYAkeqY/QeKPm4Atx2zCvnpP3Ot19Xe9Lhev187jmviKW7Bjd9Qpjjmg5Zj3i3FajD/csvvevS+P3ZwrEwls2Fz/h5qM/Qdtpx+JyR3Ll5TL9JrCUTvZf6hH2k+cK04wahNOxiCgXzT5Tp47+IXv3ftMrMuyYxj1wltuueuakkCw5HP6d2WzxjP9wquxv5uovHsobKTlN13S3ftmoYsohjKOee+u+1ofieIWmiKAAAIIIIAAAggggAACCCCAAAIIIIAAAgggkDUCJNGz5lEykWgFNm6+YZEmzN+vqdGV4jkr9f450faRIe1Parn4Fk3eNevPR0+UFexlhWl0T+6m21d9TP1+oHdpaf7Yj4J8V95dP1Xy8y7Nx3dponPPk52xd86d4wkcdiXcsH3LEwfHa5Toa3abgKHuwT8wjnOXjjUnHuP5fc5IhYPqKrtDxKXH0HBYHn2iU4YD0e0AoSXx/0ZX8WtJeg4EEEAAAQQQQAABBBBAAAEEEEAAAQQQQAABBHJPgCR67j3znJ2xXWnumfz3OMa8VxNEH1aImTmK0a/l3x93XfmlY8L/nurEYqY8gw2bV7xTV6T/VL+IUD6ZmMcr6/7Lx0/L4FB4Mt1z79gCg7rH/Rd2bm359thNknNlXeM6/2U9Q5/W7SH+ShyZO9lR7T7pc2eXyIIrS0ftyn5B4/F9ndFtF+DIgZ33tSwZtUNOIoAAAggggAACCCCAAAIIIIAAAggggAACCCCQ5QIk0bP8Aef69G6+Y8VSE3Zv0n2t16vFMn1dugQ415GMvKhlpn/mivfDBeUf2qN7gUe3ZDWH/OznSYz7kE552mSmPVZZ9yMv9cnRtpRVHZ/MlDLmXv2P3jcXlK//fDp8zs+tTPcc579qXJdPFtF+QWPZwnKxq9MvPo6+0i9HXuy7+PR47z3XDU7b/vV9p8drxDUEEEAAAQQQQAABBBBAAAEEEEAAAQQQQAABBLJR4NL/pz0bZ8mcckrAlmkPG98ndXXmzTrxq3Nq8pOcrK7Q73DEedCI2X2qvPAByr5fCtqwedU8R0zTZJKeY5V17xsISVPLmUsH5Uy8BXYXlRf+7v2NTWmxCf1IMr13aJNWiPhLneiUyUy2oixPViytGHXLgCef7ZYTHcMRd2+M8/FdW5t/FPENNEQAAQQQQAABBBBAAAEEEEAAAQQQQAABBBBAIEsESKJnyYPM9Wk0bFoz33HCG0icx++TYBPq2tt2x/G+s/O+vU/Hr+fM76lh09pZrht+RMRcGets5tQVy+KrLs2XNrWelr5+SrrH6hrFfY94+cGP775nX08U9yS0qd1yIuzl/ZX+h/lPdKC8WAcrKvRJ/bIKKS32X9BFKGzkV61nIt4yQP8GsC/6BYK8QQABBBBAAAEEEEAAAQQQQAABBBBAAAEEEMgVAZLoufKks3CedvXmYO/wR4xnPqvJ8/fpFCnVnrjnfFiNv+s4wX+ivPMbyJNNpKunrF5eJZW6cvj8I4ay2+ffzu/RCTylJctvTLfP9JvbBnxLp1If3XTebm2rHVyrpd2rq/LfPqm/Rbk/+lM7t7Qsv6AD3iCAAAIIIIAAAggggAACCCCAAAIIIIAAAgggkAMCJNFz4CFn2xTfLKd9m87rM/oBrsm2+aX5fAbFNT92Qs7WHdtaWtM81oSHt3FT/TTPdXRFemzbBtjS22uvr7ogzt6+kPx6LyXdL0BJ7JvWfN/A+7537zNptRm97tnuHul54DYjzr06/UtLFkRgYr+osfTqMqmrLbqg9ZGX+uRoW0TTHTxZXljGtg4X8PEGAQQQQAABBBBAAAEEEEAAAQQQQAABBBBAIAcESKLnwEPOhimOJJS6f/5BT9xNrDpPmyfaqnsmbztVUbA7l5NsG+5eM8MEwr8WR+bG8mSWLbw0yfnLx09HXHI7ljETdY/f50he3qUFITzPSFhLidty4ul46F7kvyiuKPxouuyRfr7RyOcrGN6q5xrOPx/p7zaRPnd2iSy4svStW+xzeOzJMxFtG+BKePH2LU8cfOtmfkEAAQQQQAABBBBAAAEEEEAAAQQQQAABBBBAIAcESKLnwEPO5Cna5Pnh3oc+Icb8pc5jaSbPJVtj17ToMdeRvw3nBb+ZTvtLJ9P7jdLuoV/pmHOiHdfuX/3u+qliE9DnjgPPn5W29oFzb9Pmp42xtMQvdgV9abFvZM/tfC0bnp/nSGGBb8I4bfI2EAjLwKAnfQMhfYXlbH9IenqDqU+wO/KDq8vW36J/c7wJJ5KCBjdtXvkR/YR8Q4eeGcvwc+qKZfFVby9oj7Ssu35R5lO7tjZvj2VM7kEAAQQQQAABBBBAAAEEEEAAAQQQQAABBBBAIFMF3s7aZOoMiDsrBdY1rvNf1jP0af2AflEneHVWTjL7JnVWE+p/7y/w3/ODrzzWlX3TG39GDZvWzHfd8K+01bTxW156dd6cC1cKH+8Ykn3P9lzaMMlnbIJ/akXeyL7aVeV5UlzkT1gEtox9Z3dATnfpqzOQkqS6cZwv77qv+b8lbJKT7Ljhi8vLfYG8r+i/sz/Uri5d8j9B/7U1BbJM90k/94WNSL6s4Rjzv3dsbf2LCbrmMgIIIIAAAggggAACCCCAAAIIIIAAAggggAACWSVAEj2rHmfmT+bWxnWFgz2Df6T7AP+5fjgvz/wZ5eIMTI8jzt+Gxdmye0tzZy4JbNx8wyJPfL/WOV+40fkECDapuW7l1LdWcweCnvzHox0T3BX/y7b097TqArHJ1kQnzceL3q5Y7+gclmMnhpKdUPdccT68fUvzg+PFl+prN91R/x7HON/VOKJelW6rCKxYWqHVA1yxn7NftZ6R4cA4i+9ds2Pn11s3pnrOjI8AAggggAACCCCAAAIIIIAAAggggAACCCCAQDIFJq6/m8xoGCtnBWzZ9suuG/x0aCj8ryLOBs3lleUsRsZP3CnUKbxLn+HnFq2sy79ubdWTzzx+Mpjx04pgAgdaXu9YXD/rEXHMBm1eEMEtI010y/CRhGZtjaUT8WlS/bXjQxIK6YUEHzZxPrUyX+bOKh5ZpTxzepGUleaNurd5gkN5q3tX9weYomXjZ0wrlDkzi/XLBa4MDIXVKOEejqaTb1zyrtnfP7DntbNvBZRmvxxsPta2dN2c+03Yu1JDWxRNeEPDnrx+alhqq/NHvrSh+8GPrP4fp49OHe/+ca5zCQEEEEAAAQQQQAABBBBAAAEEEEAAAQQQQACBrBPQ9AkHAqkVeHNV5b0axXWpjYTREyGgOboOR8xfnywv+kZTY1MoEWOkW59vfqZ/pnEVRRqbTWavXl4llbpS2B5PPtstJzqGI7096na2VPvsy4tk1oyikVXJUXeQghtsmfcjL/VJt+6hntDDMb++uuyD70nX/dHPn/vNd6xqEOP9H/3yUfn55yf6vUD3sq9fVjnyBYX/fPz0OOXznZd2bmmeO1F/XEcAAQQQQAABBBBAAAEEEEAAAQQQQAABBBBAIJsEWImeTU8zw+ZiS18vWjXrG1r6+6sa+vQMC59wIxTQ3HCJJvjWlw6HGhavnnnqYHP7oQhvzdhmdqXwopUzX9LE+Md1EhF/WamrJyBz6opH5m1XXtv9weN5nFt1vvAdpXLNgjKpqsgfWfUezzES2VdxkW8k6T+l1C+DQ57YVdWJOZzZZ4aPBg60tD+amP7j16v997Rw7eU7tbz7Su21LtKew1oy/9XXB6WowCdB/X1QP29jHIUN62/7301NTQkvAzDG+JxGAAEEEEAAAQQQQAABBBBAAAEEEEAAAQQQQCDpAhEnd5IeGQNmrUDDF5eX+wJ5X9GMzB/qJN2snSgTG1VA054PaF75C7pf+tFRG2TRyQ2313/eOM7fRTOlZQvLpK62SI53DMm+Z3uiuXXctnaf86uuKNVS7f5x22XSxfYTg3L4aN/4e3rHPqFBz+ct2n3v3pdj7yJ5d9otMY70PvjnWp79yzrqG+UM4jS86wZrtn993+k4dUc3CCCAAAIIIIAAAggggAACCCCAAAIIIIAAAgikvQAr0dP+EWVXgDdtXvkRN+z7d53V+/TFlziy6/FGNBt96O/Q12d1v3T/Devnte5vasvaEu8HWo49sWj1zFKd7+qIcLRRV09Qy6wXSzBgpP3EUKS3jdrOrjyvqy2U6xaXj6xwtyW8s+mwe7dbq5CupE5Aifc8Xd0992BL+/ZMMLMrxQ80t+9ZuHLWw45j7N/XinjFbcT5gVZXOBmv/ugHAQQQQAABBBBAAAEEEEAAAQQQQAABBBBAAIF0F8iujEq6a+dwfBvuXjPj5s0r/1Vzej9Rhpk5TMHU3xAo0gRv42DP4NP6xYr3ZzPKwrIbv6hfF/lBpHMcDnhy4LneSJuP2W5qZf7IHuvLFpZLaXH2rD6/eMJ+nyOLr5oia66vErvPe5yP377p9lUfi3OfCe1u99bHm7384DId5P/GayAn7BbGqy/6QQABBBBAAAEEEEAAAQQQQAABBBBAAAEEEEAgEwQ0p8mBQOIE1jWu80/rHfqCGPmfOorujc2BwCUCnq6cvT+cF7pj9z374le//JJhUnfi1sZ1hYM9Q00aQX2kUdiE8Dj7VI/Zjb3P7nk+vSb38p52Rfr+Qz1yomN4TJ8YLrQVlRdefX9j0+TKAsQw8GRuseXdD3c9dKe45q+1n0mVdzeOee+u+1ofmUw83IsAAggggAACCCCAAAIIIIAAAggggAACCCCAQCYJkETPpKeVYbE2bF41zxXzLxp2xInDDJsi4cZXoE2TdZ/J1mTdxjuXV3vhvBZdlT43vmxv9zanrlgWzC0Vuzo7HodNSodCngwO6072eoRDZuRnMOxJnu+NQiY+/xtj5enP/Dx35DXSKIX/09Y+IAdfOCu6P3hcDseYP92xtfUbceksyZ3cvGn1DeJ6u3TYObEO7Yrzwe1bmh+M9X7uQwABBBBAAAEEEEAAAQQQQAABBBBAAAEEEEAg0wTik2nJtFkTb8IFtET37+mHyyadWH2ecO2sGsDTz80/5vkG7vrevc/0Z9XMdDIbN9+wyBN3j4hTHs+52dXndt/zyrLoFhzbJPnZ/pD0D4SkbyAsQ0PhkZ+2pHww6I3sNR5tnHYfdptMz8tzRsrIl5b49adPSrSkfEmRL2lJ9tOdAXny2e6Y5jDKnNtOlhe+o6mxKTTKtbQ/Zb/AEfLy/lm/9vDBWII1xvn4rq3NP4rlXu5BAAEEEEAAAQQQQAABBBBAAAEEEEAAAQQQQCATBUiiZ+JTS+OYP/WltZXh4dC3NMSGNA6T0NJf4LDnmlt2f711X/qHGl2EGzevWu+J+Zne9cZS7uhuv6R1bU2BXLOgbMLkdECT4r1nQ3K6OyBdPUEZGAzHVC7+kgCiPFGQ70pleZ5U657t5Zr0jzbxH81wffrlgNb93fGZp+PctPO+5t3RjJ9ObW159yM9D35JF+d/WeOK6rOnSfRPaRJ9ezrNh1gQQAABBBBAAAEEEEAAAQQQQAABBBBAAAEEEEikAEn0ROrmWN8Nt69e5TreD3Tac3Js6kw3MQJBXdX8Vzvua7knMd2nrtcNm1f+hSYz7V7VMR92xff8K0tl3uzRiz3YBLJdjd3dG5Tus0FdbR6OW3nzmIMe5UZbet4m06frlwGqq/JHVq+P0izmU0PDYWnZ3yV9/eGY+3jzxqd2bmlZPtlOUn3/httXfNg4zvejqYag2yzcotss2K05OBBAAAEEEEAAAQQQQAABBBBAAAEEEEAAAQQQyAkBkug58ZgTO0m7wvFQ70ONum/wX+pIUa1wTGxk9J4lArvzfQO/n03l3W+565oSr63vl6GZl9XH+owWXzVF7B7o5w670vzUmeGRxHmHJs9tSfZMPEpLfFJbUygzLiuUslJ/XKYQt0S6567Yue3xJ+ISVAo7GdlWwPh+LI7MjSQM/cLHR3dtaflpJG1pgwACCCCAAAIIIIAAAggggAACCCCAAAIIIIBANgj4smESzCF1AjYZeHLw1V2OmD/UKPhSRuoeRTaPvChs/J9cvPryRw82HzuZDRNdOtQ1z+08+0WvYkq7FOZXRTunqVoK/R1zSqSjKyCvHBuUQ0fPypEX++REx7D09oUkrHudZ+oRCBrp7A6OzOv1U0Mj07D7qrtu7H9e/H5XZkwrlNdPDUsoFLuNcaXnYHP7LzLV9lzcB1pe71i4aua/qOgKPXfFufNj/XTF+4cDLcdeHes65xFAAAEEEEAAAQQQQAABBBBAAAEEEEAAAQQQyDYBVg1n2xNN4nwaNq2ZHwgX66pM81+SOCxD5aSAc5UYt/mmO+p/Jxum74ijK4CdirwDL/fofM5GO6czmjx/eM9p2fdsj7S1D4yUKjex54ajHT5p7W0J9gPPn5WHH+sY+Wm/IBDrkZ/nyqprK8TuyR7rodU2braVN2K9P53u272lufNkeeEHNJH+zYniCrvOwERtuI4AAggggMD/z96ZwEdRZfv/3upO0lnIwhr2nRBAg0QSIihBxwEU2TQhqDjoPJ3xzf/JIqPOnpn3ns6iIDNvZt5z3nMhoEDGjU2ccQQXlqhsyuogIKsIEhKydbq77v/chDVk6e5UV9+q/tXnE+iuuvcs31tV3V3nnnNBAARAAARAAARAAARAAARAAARAAARAAATsRMAWwQA7DYhVfJk+J2ecpnlLyN50q9gMOy1PIJYLXpQ/Z8RCywcy9foy2tzry4z+YIflM5tDfWZ5KbNeThb44ONv2KZtpezEqfoM9UD1xsU62fXXJjO5DnuQW/e95W+PCLKvct3WF673Ll2w+WGqJPI9Ms7TpIG6Jid7YAMBEAABEAABEAABEAABEAABEAABEAABEAABEAABEACBiCGAIHrEDLUxjsrgZcHcEY/rTKymTNokY6RCCgj4T4DCn4/sKVtbLJcS8L+XWi050/pfsIj7xFTnka/lhBRsLRCQ2fYyC19m4K8vOR1UMD0lMYplDEpkPMg4uk7Z6C2YabnDSxeUPMeFPoUMb7QqglOrPWs5p2AwCIAACIAACIAACIAACIAACIAACIAACIAACIAACIAACLSCAILorYAXaV1lAH1v+Vt/oUDWr8l3nDuRdgKo5e9UWkpgQ96sUT3UMss/awQX/S5v6fjiWBo/W7H/8n143TwBWepdBtM//OQMO32mtvnGDY527uBifXsGNweDYu+jGoizxdulz360mnH9RnLmUAOHKk+0aYMgegMoeAsCIAACIAACIAACIAACIAACIAACIAACIAACIAACIGBvAgiE2nt8DfNOZv3uKlu7Sgj+gGFCIQgEWkcgg2vejdPnDB/cOjHm9xac97xS68X10ZsuqX1lB7w7T+BsuYdt3l7KPvnsLKuo8n/N9IF9Eli7lOhgOA7NezzTllU4ls3/aIemixE0UeqyJQb4a7LsezCg0AcEQAAEQAAEQAAEQAAEQAAEQAAEQAAEQAAEQAAEQAAErEoAQXSrjpyJdufNyWlLWb9v08ky3kS1UAUCLRKgrOCuOnN8UDA354YWGyvSILcw18mFGNjQHLk+unPXwU8a7g/h+0qSXSr/qEr6MVqe4cCVf+zIheMhtMEw0V+dcrP3Sr5hew9UMLmGuj/bdVTWPSY64I9BzVkbneOPfCu2eWVhycnlz27+tsb4eJo09d3YpJiHrOgHbAYBEAABEAABEAABEAABEAABEAABEAABEAABEAABEACB1hAIclXY1qhEXysRkOWyNc27lmxOt5LdsDXiCFRS0O+uVxZskueq0tuMYdHpXGi7mzKydmi//SI54Ypy7021bbC/mjFxhHH2FQXDjwrGj9M610cZ144LIUqFJkoZF2ecwndOlucOJrt4+qOZ7b1eVzuHQ29Ha4O3I/1tuc47kuxu9GHSh3T3YoL1pv3B1Upv4FCwbxPiHWxI/0TWvm3LmeYnTtXUlYUPRBdVEvj35fM3/TyQPmgLAiAAAiAAAiAAAiAAAiAAAiAAAiAAAiAAAiAAAiAAAiBgHQIIoltnrEy3dNrcrAyhO97iXHQ2XTkUgkDgBKoZ599ZNn9TceBdzesxY1jsVMpEf7UpjRSg3Vs7+lq65nijJcN5eeUJR1nlYdnf173jNs74m16Hb9/ghNu+LCws1JuSa+Z+GWzXvTG9ae33ayhwn0EfNNeQ/gz6a2uWHZyUdu3kYoP6t2HRUc1nm8tS8DKTPYBt1bIFm+8IoD2aggAIgAAIgAAIgAAIgAAIgAAIgAAIgAAIgAAIgAAIgAAIWIgAgugWGiwzTZUBdCa0d0mnaUEvM/2DLtsSoARp/uDyZzc9r6qH913n+hXZ9rPm7JOBdL1P57KLbcorda20Ipp7vX0puJ58cT9j/75oW41lMqLv+bfsbj6HyNC5diN9+IwiP7LoL+oyfwx/Kcu1Xzcoqdms9Bq3j63f/I3fZeAp437nsvmb5cQAbCAAAiAAAiAAAiAAAiAAAiAAAiAAAiAAAiAAAiAAAiAAAjYkgCC6DQe1tS7lzRqZpmm+90hOp9bKQn8QCAMBnTPx8NIFJc+FQXeLKu8b6iqiIOy9LTb0r4GlgugNXZpZmOuqKq/OYTq/iWviZia4XGvc8KC6zErv2TWODRnQpqEJF9/v/7KS7f2i4uL7Fl5UpyeNS1Al878FW3EYBEAABEAABEAABEAABEAABEAABEAABEAABEAABEAABEAgQAIIogcIzO7NEUC3+whHjH/KBtJnDI//hHt9mQaNhKWD6A0Z5M3Jaatxdgutq06l0vWJTZW0b9jP3/fJiVFs2OBEFhfrbLTL+pLTrKLS1+ixhjs1XaS+srDkZMP9eA8CIAACIAACIAACIAACIAACIAACIAACIAACIAACIAACIGB9As0vFGt9/+BBAARkAJ1zfR11QQZ6ANzQVEkCmmD8z/lzRnxHJesoc1mrL8lujFVccFstt1C8YNMZuab9sgWb7otNik3VGB9PgfQiolVpBLGz5R72/kdn2OkztY2Ky0hvdBn6Rtt6uaNPowewEwRAAARAAARAAARAAARAAARAAARAAARAAARAAARAAARAwPIEkIlu+SE0xgHKAO3HBXufc9HZGImRKyUm2lGZkhj9dUqb2PK2STHVcbFRXkkjJsbhi3M5WWyMU8j31W7vxeuvqsbLSs/WxFTUeKLKymvjzp5zt5V/1Mzw0tZSdwRtOuO8QAZmVfB5xrDodC603UbZQkH0P760vfr/GSVPVTmy7Ht1ufsOoYsHqTT7LWRnqyaAyfLuaX0SWL+e8Ve5/MlnZ9lXp9xX7W+4gy7iW5cv2PxOw/14DwIgAAIgAAIgAAIgAAIgAAIgAAIgAAIgAAIgAAIgAAIgYH0Cjde0tb5f8CAAAvf8W3Y3LxPv0jrNCKD7yS0+1nmmR2rikW6pCef69UjUUxJd8bGuqE4OjbcjETIy19tPUc010326OOrx+s6WlteWnfym0rvvUGnCl8fOdaMAO6oFNEfu0jGNCbGEMtJL1Qh4OtIZ1So3ahNM+J86bZTSMMh5sXB9DamVEyGK8+Zl9ea6434a1+9TLLxDMOYIGgK5/nlFpZcNHXQlwr4UWD952k3iW5Qc22ILNAABEAABEAABEAABEAABEAABEAABEAABEAABEAABEAABELAkgYuZsJa0Hka3mkDe45lJmifqQ4rrDWm1MPsK8PTqkrh/yIB2X6f3TnElt4npxTkPcxBbnK2o8nyx/0hZxWf7vkk+cKysn7vWd3VarX3HJFDPKpmujVm2cOPHgXY0sv1917l+RfJ+ZphMwRYv2l4zwzB5FhIks9Orymqm0YfY42Q2TU4IbmuXEs0yhySx6KhLye1+ZaNznq9KhYPgPEcvEAABEAABEAABEAABEAABEAABEAABEAABEAABEAABEACBpgggiN4UmQjYn1uY6+x4tmYNlTa+NQLcDcjF7qkJ/8wZ2vl4v+5JCQlx0YOos+pZp3pNrXf33oOl33z06cmOh46Xp5HNl6KCAXlvz8aUWHxK6I4bixdu2BcuDymIvpZ0jzVKv3Dw14o+qb7TKHlWlCPXmd999u2JXNPnMMFvCsaHhHgHGzE0hbliHHXdS2nt9I1bzjSbjS64mLF8fsniYPShDwiAAAiAAAiAAAiAAAiAAAiAAAiAAAiAAAiAAAiAAAiAgNoEEERXe3xCZp0MPO0pe/tFKi0dkVmsjYD1pPduuzs3q0tZl45t+lBZ9m6NtLHQLnH2xOnqXe9vOerasff0tWQ41lavH71Dmi5GvLKw5GQ4BvO+Ya6jVPWhq4G63160rWacgfIsLSp/bvYYWif+KXIiO1BHYl0Olj00mSXE1a9ysmlbKfumtLZJMTQpYyYtEfBSkw1wAARAAARAAARAAARAAARAAARAAARAAARAAARAAARAAARAwLIEEES37NC1zvD8uTm/4kIYV1a6deaErTeVad8z/sYep7qntqFAM08OmyEhVVwfUH9n4+GEvYfOZPix1nNIrVFAeElskiv3/Drbppkz/dHM9lHv7jplsEIE0RsBmj9nxLfow+1pOpTRyOEmd8VEaxRIT2GJCU524lQN2/JZWZNtKYg+kYLoK5tsgAMgAAIgAAIgAAIgAAIgAAIgAAIgAAIgAAIgAAIgAAIgAAKWJVBfu9ay5sPwYAjkz855gDPxTDB97dAnPtZ5Zuyonh8VjB9QkX1t6uCkhJieFEB32cG3xn3grjZxUT0y0tqn5g7vdrRD29hth46VJ3q8uuol6ht3p/V7u3k9nn55Yx98ff369RQLNWcbWlmayTV2v5HahNNR9ulxz3NGyrSDrF2bjx7IG/cvz52u2X+UcTaKfPLrXPf5BDv2VQ1r1zaadWgbw748Vs3kvsY2jel/3rn52OHGjmEfCIAACIAACIAACIAACIAACIAACIAACIAACIAACIAACICAtQkgiG7t8QvY+oK5OTdQCfe/UseIG/vU9rEH758yZPdtN/bqQZnn/ZwOrWPAAC3eQeM8MbV9fK+bMruyQf3afXTiVIW7vKK2ncXdCtx8wYecqv1C27Xp6LrAOwfXY2hnxxTGubGl1zXtBILojY+HnCBBwfStGbm9/qL79FjKTB9OLVusvqJTzPzEyfpAusPB2ZmznkYVUBD9mZ2bjxtdWaBRXdgJAiAAAiAAAiAAAiAAAiAAAiAAAiAAAiAAAiAAAiAAAiBgLoEWAwrmmgNtoSQwfVZ2J5/Gt9CgG7kmcyhNNkQ2rXW+Y0Jur5qURJcMommGCLWRkIqq2i2rPzjEaO30TBu55Y8ruhD8zuXPbnrDn8atbTPj+thXuU9Mba2cy/sLzvcWba1Ov3wfXjdOYNqsG4YzTf9vOjqs8RZX7nVSAD1jUCLburOMNbYEAo9ydF362w3Hr+yFdyAAAiAAAiAAAiAAAiAAAiAAAiAAAiAAAiAAAiAAAiAAAnYggCC6HUbRDx9yC3Odncpq/kZNx/jR3BZNMga23zJpTJ8YV7RziC0cCrETNbXenW+uO+COsGD6OV13DC9euGFfiPGy+4a5jjJh7AQWBNEDGzV5H0wtr3mUguK/oJ4tlniXa6TLzV2r1/1/2T/V6UnjEgoLC686cFkbvAQBEAABEAABEAABEAABEAABEAABEAABEAABEAABEAABELAoAQTRLTpwgZqdPzfnd1yIeYH2s2L7Xl0S99x9+4CqhLjoSMusNmS4ZDC9eO1+356DZzIMEai+kD3RjqrhRU9/WhkqU+/5t+xujg93HDFcPmfHFm2t6Wa4XJsLnD5n+GCdORaRm35lpTeCY+uyBZtxf2kEDHaBAAiAAAiAAAiAAAiAAAiAAAiAAAiAAAiAAAiAAAiAgB0IoLS1HUaxBR/yZ+dMpgD63BaaWf5wuxTXkYenDXn/obwhaQigBz+cMnN/xsSBGT+8f1iJZBq8JMv0TK/1xb0QSmsdG7YPDaV8yA6MwCsLPt51MsmVLXT2JPUMIpuc7wpMI1qDAAiAAAiAAAiAAAiAAAiAAAiAAAiAAAiAAAiAAAiAAAhYiQAy0S00WnmPZyYxn6OtprNEnXOnNJ3rPKUxFzTOq3xcdzuEFiOEWEtt2jTWzg77ohyae8qtfTcPTeuQRf60WKLZDj6b6EP1vkOlJUvf+ny4u9YXb6Je01VxJr63dEHJc6FQfN91rl+R3J8ZL1ucXbTN3eg9wHhd9pSYPzd7DBf8FfKuk98e6vyxZQs3/c7v9mgIAiAAAiAAAiAAAiAAAiAAAiAAAiAAAiAAAiAAAiAAAiBgKQIIoiswXDMLc13ussq+QvBeFBbvpWtaL8oc78m46MQE70Amtj3/F0X/Y7uMQHrvtjsKbhsQF+XU+l+2Gy8NJkATMU6uef/QwQ3bT4wwWLRK4qo15hsus5SNNoqC6HIiy1ij5TKGILoRTAseG9lFeHzLSdZIf+RpjI9/ZcEmOabYQAAEQAAEQAAEQAAEQAAEQAAEQAAEQAAEQAAEQAAEQAAEbEgAQXQTBzW3MNfZuawyTefOQVzXrxOcX0Pqh9BfLxPNsIWq+FjnmQemDtnTuX2cX0EvWzitgBOl5TUlf/nrrl5nz7n9z9pVwG6/TeBsZ2yia/iLhetr/O7TQkN53fd4c9MpmiCT3ELToA4v2laD+3hQ5K7sJMepY7n7KZrANO/KI1e980Q7qlKKnv608qoj2AECIAACIAACIAACIAACIAACIAACIAACIAACIAACIAACIGALAgi+hHAYpz+a2d6nR+VoQuQIjTIcBR9O6lBuvJXMMwa235L/7f7dOOf2DOS2kk/ou4uzq987tNeuWel0U/zvpQs2P2wUxxnDotO50HYbJa+hnMOTRkStL1zvbbgf74MjkD875wHOxX9T76Yqf6xbtmDzzcFJRy8QAAEQAAEQAAEQAAEQAAEQAAEQAAEQAAEQAAEQAAEQAAErEKhbV9sKhlrBxhnzro13e+Nv1bgYKxgbressjQJyGmWcU9VlK3igto1y7fO7J6RtSuuVchNZqqltrZ2t48m3j+494obrOpf8fsmOIXZbK50u1Yemz8l506hy3Vzn32YhnK7UveJMDJ1tCKIbdMktf3bT8/lzRhzmTPyVqgckNRRLt/O3G+7DexAAARAAARAAARAAARAAARAAARAAARAAARAAARAAARAAAXsRCGFox16gmvJm+pzhg3XdeRuFysdTm1H011T2YlMisN8PAqntYw8+PC3Di7XP/YBlYhOfLo7+36u7zh06Xp5uolozVB3Roz3XFP9mS1lrlc24PvZV7hNTWyunqf6emwd3eOWZLaebOo79wRGou7czxyrq3esKCVwfumz+Rzuu2Ic3IAACIAACIAACIAACIAACIAACIAACIAACIAACIAACIAACtiKATPQghlMGV3zCcRdlJE7TGUunAHoQUtDFXwIjh3beTJnPGdQepfD9hWZSO4fGuz2UN6R63UdHP/z7psNyEoldtu4Oj3M+OfPd1jrEdZHdWhnN9ddqna7mjuNYcAReWfDxrumzskfoGn+TJNSPoWBfpCfd9hljHwUnFL1AAARAAARAAARAAARAAARAAARAAARAAARAAARAAARAAAQsQQCZ6H4OU96sUT0cmvdeCpfnUxcZ0MUWegL6dyalv0/l23NDrwoaWkvgxOmqDf+99NPrPT5dlhe3xaYxPr41Zd1DvR66hFx9y7V9ip/+6KAtgCvoxMzCXFdNWc0CuvePFlz8YPn8knUKmgmTQAAEQAAEQAAEQAAEQAAEQAAEQAAEQAAEQAAEQAAEQAAEDCSAIHozMAsLC7XdZWtvJkgPUbPJ9IdS7c3wMvJQTLSj8pF7MnamJLpCmsVrpM2QxVhNrXfn7xfv6HD2nLuTTXgciXZUpRc9/WllMP7MGOqaSRUrXgimr799BNcHFW2t3eNve7QDARAAARAAARAAARAAARAAARAAARAAARAAARAAARAAARAAARBonoDW/OHIPJo3L6t3wezsJ/eUrT1OAfS/E4U8+kMA3aTToV2K68iPHxx+HAF0k4AbqMYV7Rzy6Mxhnu6pCf80UGw4RXV3++J+FqwBdP+4Jdi+6AcCIAACIAACIAACIAACIAACIAACIAACIAACIAACIAACIAACIBAeAshEv4z7tFk3DGdO31ym8ztpN4Lml7Ex66UMvn4//5pEzrldMpnNQqeanuplb3++e8fe05mqGRaEPR6N+a6Ta2QH2ve+Ya6jTLCugfYLpL3uYzct/rTmg0D6oC0IgAAIgAAIgAAIgAAIgAAIgAAIgAAIgAAIgAAIgAAIgAAIgEDTBCI+iH6+ZPvtFOj6Nyq7fGvTqHAk1AR6dUnc81De4M6M8eRQ64J8UwhUr37v4I4N20+MMEVbaJVsSE8adxPdL3R/1ZixHrq0BUF0f0cE7UAABEAABEAABEAABEAABEAABEAABEAABEAABEAABEAABEDAPwJO/5rZr5UMnu8pf/vOPeVrf04zCYawiJ9OEN4xTu/ddseMiQMHkBWx4bUE2g0kEHv76N5ZcbFRH/590+FRBsoNh6iRu8vfupsUL/ZXOdf5t3Ff8ZcW2oEACIAACIAACIAACIAACIAACIAACIAACIAACIAACIAACICAOgQiMnRcMDvrdsG1X9EwDFNnKCLXkoyB7bdMGztgEBFAAN2mp8HGHSfeW7X+4GgruycYOxbjqEorevrTSn/8mHF97KvcJ6b607ZVbbi4Y9FW96pWyUBnEACBiCOwfHleQm2sJ9tKjkdHRW3LH1d8xko2w1YQAAEQAAEQAAEQAAEQAAEQAAHrEpg+K7uTT+PXWNcDG1jOhU9wVn7RE10rYw6fzyl859La3HEmkMqhF2XghSEE5PXhdbJuhgiDkKAJaEJ4da3+GnFoUW5N49VS2HGX89z6wvXeoAWjYx2BiMpEL5iTdaNg2u8oGGaph8Z2PlcRQLfz6F7y7YaMzjKAbulAOs046ur2xs0jP355ybPGX8lKFwfefOpmWpqg8QYG7qV7WrSB4iAKBEAgQgjUuDzTOBP/ayV3az21PyJ7f20lm2ErCIAACIAACIAACIAACIAACICAdQn4uHYz/XZ+2boe2MByiqBzCuhc2uiNT2M609iesrVs2pwR5+jYWfqTk+6P0NPYo7pgX9Fz2SNM0w9qTue+pb/dcPxSf7wyioBw8Jmajuc0RvEMXg5nmq++t/D52PmXrJPbK68PWsmanaL7WCldE6fo7zTn+jd0AZ0UGj8tBPvGwfhJirTvP5UUcwhB96tHISKC6HmzRvXQNN9/CCbuIQTa1RiwJxwE5BroyEAPB/nw6LRFIJ2zx+l+8kLxwg8PN0dx/2u/Hqk5eHJzbYw6xnXmMkoW5IAACEQOAYfGptGPSktt9D2ugAxGEN1SowZjQQAEQAAEQAAEQAAEQAAEQAAEQCCkBNqQdPnXnf4y5KMOXpfXRK8oAC88PgokZpfR3r309zlj+hbauzXKUbPV34qjJBIbCFiWAF0OHejcpz9GyynT0zW6Lupy/+gSkZeKTvtk0LRTWY1n2uwRh3XOPncw9iW13MuF2O/jjn2Dk8YeiNSqD7YOos+Yd228xxv7E8G9s+kcQKlwgqDKJgPoD+UN7kz2YFxUGRQT7JCB9NKzNZs3bD8xwgR1oVAR63B4fkGCv9uccM3Bbm3uuJHH6MMMmehGAoUsEIgAAs+vyeug+2rHWM9VnrFo1ZT0+ya8vsd6tsNiEAABEAABEAABEAABEAABEAABEACB8BDgSaSXqhML+uMzBIUOa31xOmXp7uNcbNIZW0cZ6+8iYz08owOtyhCIokujLwXU+8rJKDLELmhGikZB9j1lb5XR9bJV6GwTzVL5WIvWPoqU68W2QfRpc3PyqFrBQroJykAtNoUIpLaPPVgfQDcnU1ch12EKEbh9dO+MihrPlh17T2daEQjN1JqZN2vkb4sXbtjXlP3C6biNey8UTmmqlTH76aNMfgnEBgIgAAJ+E3CK2unU2KLfAXVZVeinfjuLhiAAAiAAAiAAAiAAAiAAAiAAAiAAAiBwNQGZfJtOz3rTKRv3gfMZ659T8fh3mdBXuZLj/vFi4fqaq7thDwhEIoG6iShjuMYoKYfS+qjCQ/6cEcfo2imhWPsG3edY3Vy8xMrELPoAtWnkBY+N7EID+AeqSTC1vmxH021xxHwC8bHOMz+YPjSKZrGYUurafA+h0Q8CsbKMf1l57Z5Dx8vT/WivWhNNc3oLySgZhLpqm/5oZnv+7i5LThC4yhnsAAEQsCUBWgbibqs6RmWk5L0XQXSrDiDsBgEQAAEQAAEQAAEQAAEQAAEQAAFlCfABlIE7gHHt+9VlNZXT5uS8Q+HC10W0543i32yhkvDYQAAELhCgAHpXej2VYupTaTntZ+h6OUDXyypaY/2tmKSY9XaZhCJn29hio3r8WsGc7IeEx7ubHJpqC6fs54Tn0ZnDjjs03s1+rsGjAAnEPnjX4LbJbWJOBthPjeY6z582NyujMWOi/rH7243txz4QAAEQUIHAklV39iE7hqtgS3A28D5LVk7OCq4veoEACIAACIAACIAACIAACIAACIAACICAXwTiKeN2EgUKX9Rqo05QKevllHl7x8zCXJdfvdEIBCKOgOhD18sjtMb6WzQJ5QxdMytlzDZvTk5bK6OwRRA9b9aoHnvK31pHa1n8D2U4o7Sxomfkw9OGbHJFO4coah7MMpkA57zTnPuuK4+JdlSarNoIdbQUiOOXjQsS4xvfH6K9nLcLkWSIBQEQsCEBIbz55Jalv//RrFZZ0h0bCIAACIAACIAACIAACIAACIAACIAACJhBIJaU5FGAcEVVWc3h/Lk5v8ubl9XbDMXQAQIWJSCvmQkyZkuBlK8oS/0NuQS3FSehWPohqjx5JHhN826jFe5vsujJFBFmT8jt/V731ESMUUSMtv9ORjm1/o/ck7HTmksviEkNs9FzC3OdjIsJ/hNASxAAARAwl4DgbIa5Go3XRqXV8teto/stNhAAARAAARAAARAAARAAARAAARAAARAwkQAF0jvQUnPzNJ+2X2baTp+TM05WSTbRBKgCAasRoOWdxSRagns5Zagfyp814j9lYrRVnLDsxZ33eGYSzV5YJMETbEuXA7DKyRKsnem92+64IaPzjcH2Rz97E0hJdGXnje3/njW91B673O5ur23OoWoYyZfvw2sQAAEQUIXA4tWTrqF1igapYk8r7Eg9cS5lZCv6oysIgAAIgAAIgAAIgAAIgAAIgAAIgAAItIaAjK1NkKWr95St3SqTPRFMbw1O9I0QAp24xn5MidEHaRLKq9Nm3aD8kpOWzOKpA1urU/Bc9IqQE8uybsbHOs/cPSFNlpu27ISN1sB3V9Wyb46fZd5aH/N6vKymspZVlVVfFBkTF82i46JYVLSTueJjWJt2CaxNStzF45HyYmhahxs/2/fNjj0HzzS6zriyHAQroNI9Py1++qOD0kaHxqdRmWFTzeWCYxKRqcShDASsS0DX2d00Y9oWm5f7ZEl3i07AssUQwAkQAAEQAAEQAAEQAAEQAAEQAAEQAIF6Ahky2XNP2Vuf07rpTw5KGldEAXUdcEAABJokIOOFU5mmT6VgOi3VzZ5cvmDzO022DuMBywXR6Sb0Hcb0PxMzWVMfm+IE/rXg2n9SYDFbcTNbbZ7P62PHPv+aff3lN+z4F6dY2elz7KuDp1lVeU3AsqNinKxt5yTWoVsK69izHWvXJZl1T+9s9+C6du8daalP/uXjM5XVXisFhTWHry4b/WE50LrGbuHmxtADPr/QAQRAIHIJcCZoPXR7hNE543dRSfd/HTNmvTdyRxSegwAIgAAIgAAIgAAIgAAIgAAIgAAIqEOAD6CnLi9SZvrjlJn+i2XzNxWrYxssAQFlCYyh62YMBdM3cKb/aOmCjz5QyVLLPEmVC87XlFf/UQj+gEoAYUvTBOQ66FTGfXTTLSx9RD++/2vti+1H2JG9X7FDO48xjzu0z/E79WrHel/TjfW6pgvrNbgrk1nsdttKy2tKnn5xa7awViC6WtM8PZzrPqP1cLTdpo+JYIsXba+x/BrHpnODQhCIMAKL35w4Umj8Q1u5zcWEGRNWrLaVT3AGBEAABEAABEAABEAABEAABEBAGQL5s3Omcy5eVsYgGGItAly8z3yOecsWbvzYWob7Z23B3BGP03P8X/vXGq1AwG8Cr+kOfd6F6r9+9wpRQ0tkostF5mnBeSrfbv+M5hCNs+liu6cm/JMC6FmmKw6xwtPHStmeTQfYtnf2aKUny0Os7UrxJw99w+Tf5pU7mMxW73NtN3ZtbhpLy+rFHE7HlY0t+k6uj/6tET0+/Pumw6Ms5EKs0KMeogC6Kxw2CyePvPr/4QANnSBgdQIapyx0e21cZwXkEYLo9hpWeAMCIAACIAACIAACIAACIAACIAAC9iAg+E1UrnpzwZwRz/miPU8U/2ZLmT0cgxcgEFICUzWfNj5/bs7TcYkxT75YuD7wcs8Gmqf8OtXT5mZlcM27kXy2fUlwA8c13KI8/3LnEGmDLUruy3XNP3lrJ/u/J15lf/x/r7B3l5QwswPoDQdUZr3v+/gQK/7d22z+d19ibz+/gckAvx22MVndMtuluI5YyRdd8P8nnI7brGQzbAUBEIgcAlT23EkFPmwXRBecT1m+PC8hckYSnoIACIAACIAACIAACIAACIAACIAACFiMgEbPZL6v1Ubtk0sV01rpysfkLMYX5tqTQCwX4mfVZe5d+XOzx4TTRaUv2OlzcsYxoX1ANee7hhMSdAdGIH9c/41RTq1/YL3Ua30heP77hxez1c+9z47uO6mekWSRXHddZqfLAP/SJ9cwKjOvpJ0BGBX7g4Jr5aw8PYA+YW1KZZ06h8sA7hPx4dINvSAAAtYgcKQy6RayNNUa1gZkZXxNnHt8QD3QGARAAARAAARAAARAAARAAARAAARAAATMJ9CJ4lwv7ipbu6rgsZFdzFcPjSBgRQKiDxf8HZqAslAu+R0OD5QNohfMzv6BzoQs0dkmHGCgMzgCMoN4aFoHS5dxP1daVZfZ/cwDL9YFz2WQ2iqbzE7/yw//yooKV7DDu09Yxeyr7HRFO4dMyO39wVUHFN7hGdI7SWHzYBoIgEAEE+CcTbOr+/RFerpdfYNfIAACIAACIAACIAACIAACIAACIAAC9iJAAbnxwuPdTdm199rLM3gDAiEjoNEElEdoye+t0+cMHxwyLU0IVi6ILstZUK3731GJzv8im5WzrwmO2F1PQP/eXUNkGrRVy7jrn733Ofvv2UvrMrtlyXSrbgd2HGUv/OT1usx0OSnAitsNGakZyW1i1Ez/bwSoSE7ox5g428ihkO6iMvLtQ6oAwkEABCxN4IV1NEtTZ3da2onmjb/thdcnJzffBEdBAARAAARAAARAAARAAARAAARAAARAQBUCPImSAoqmzR2xZMa8a1FlVJVhgR2qE0jXmaMkf3aOqQk1SgWpZQB9b9naP1Kt+3mqjxbsu5rArTk9NibERWdefUT9PbIEOq15rr327Dt15dHVt9g/C2Vm+h+oHP0Hf93CfF6ff52UacWTZ0xM36+MOX4Y4uuQvMePZmgCAiAAAqYRcFQm3kHKEk1TaL6iTuAYWAAAQABJREFUGIeDTTZfLTSCAAiAAAiAAAiAAAiAAAiAAAiAAAiAQCsICHZ3rS9267S5WRmtkIKuIBBJBOJpad2XZXl3GU82w3FTlPjjSG5hrnNP2dsvCsa+7097tFGLQHys88yYrK5D1LKqZWvkuucr/mtdXQl0Vdc8b9mL5lvIjPp3l5TU+Wi19dI7t48bmd677Y7mPVTnqK97x16mW+PTMVvRdOhQCALWIRAJ5c4dGrvbOiMCS0EABEAABEAABEAABEAABEAABEAABEDgAgE+gAltA8q7X+CB/0GgZQKyvPuesrVLzVgnXYkgunS0U1nNy1QKeUbLeNBCRQL3TRy4kzFuqXKqp4+V1pU83/aPyEgePnnom7pAusxKt9JWcNuAOLJXt4LNIjG+My1FsdcKtsJGEAAB+xNYvGa8zEC/ze6e6kKMKVo7tbPd/YR/IAACIAACIAACIAACIAACIAACIAACtiQQL8u7m5lda0uKcCrSCORVna1ZEeolEcIeRJcZ6LQgfDGNbl6kjbBd/O3VJXFP99TEUVbyR659/tyjxUwGliNtk1npS59cw2QWvhW2KKfWXy4VYAVbpY16n85lZtrKmWhjpj7oAgEQsA4B3RszlayNsY7FQVvqFD4fvkcGjQ8dQQAEQAAEQAAEQAAEQAAEQAAEQAAEwk3gfHbtm6EOCobbT+gHAaMIcM5urdVj14TymglrEF3WrO90rrqIgE0wChrkmEuATlJ236SBcrHtsJ5L/not1wV/9Zm/Mbn2uSxzHqmbXCv9f+YuZ1Yp7547vGv/mGhHpRXGy9u94zAr2AkbQQAE7E8gksqcc8Hy7T+i8BAEQAAEQAAEQAAEQAAEQAAEQAAEQMDmBCbU6nGb82aN6mFzP+EeCBhDQPCban1xK0NV2j1sgU8ZQN9b/tZfmM4LjCEFKeEg8K0RPT50RTstsRa6zLx++T9Ws50f7g8HKuV0lp4sZy/+9A12YMcR5WxraBDnvNOkm/t80nC/ou+jhNNhXs18IbAmuqInAswCgXASeH5NXgdZ5jycNpiqW7CcJaun9jRVJ5SBAAiAAAiAAAiAAAiAAAiAAAiAAAiAgNEEBBvCNe/G6XOGDzZaNOSBgE0JjKGK54tk3Nlo/wwX6I+BdQH0srV/FII/4E97tFGTgMwMlhnCalp3pVXnSqvq1j8/sOPolQci/J3Mxl/61Fts98YvlCcxNK19hlWy0fWenSK3zIHyZxIMBIHIIOAUtdPJU2dkeFvnpSZ0n/QZGwiAAAiAAAiAAAiAAAiAAAiAAAiAAAhYmgAVAO6qM8f7BbNGZFvaERgPAuYRyNtdtvZJo9WFJYi+t2ztLwVj3zfaGcgzl8ADU9K3yAxhc7UGru30sVL2wo9ei8j1z/2hJQPpxb97m33y1k5/moexDU+2Sja6uSXdeXIYBwWqQQAEFCUQieXNBROobqTo+QizQAAEQAAEQAAEQAAEQAAEQAAEQAAEAibQVmjsH/lzRnwr4J7oAAIRSIAmnzyePzvH0CQb04Po5MADFED/aQSOn61c7p6a8M/uqYmjVHdKZqC//O+rmSxdjq15Aqufe1/5QLqFstFNLemeW5gbSdmmzZ/IOAoCIMDqyppTefPIQ8EzFq2akh55fsNjEAABEAABEAABEAABEAABEACBkBDgooLkekIiG0JBwD8C8RQYXFEwJ+tG/5qb2ErH9WEibajykwDn4v+MXAqBrj/zNjljhhSuIY1R5mm1rqYoh+ZOTIz+umNy3JluqQnnUpJifO2SYrjT6XS0iXO6pGdOpxZzuYder+72eHVvTa3upc0nj31T5hbHvqqIOfZ1ZdKp0qpOldXetpf3CfQ1p0H82fezdqq+FrpcA/2Fn7yODPQABzjvh2PZoBv6BtjLvOYbd5x4b9X6g6PN0xicJueRr0scXxw3pdyOuGVAQtHTn1YGZyl6gQAI2I3A4pWTnqAJi0/ZzS///BGFM+5Y8Uv/2qIVCIAACIAACIAACIAACIAACIAACDRPQCavdC6rTPMxx/XUchgTLJ2ej2fS61Y9Y29eK46CwFUEqjnTxy5d8NEHVx0J446G1weFjuS1MYz+YsNoFlRHOgHOdsYmuoa/WLi+prUo6Jw2Z5ORf51pGxjjSeZotJaW5DYxJwf3bXuwa2qCu2fnNq7EhJiuDo13IS9CUS2gmgLtRyuqas98faa6ev+XZ10ywH7sZEUfj0+/IijfGMVbc3p8OCarm9JZ6D6aP/DiT99gR/edbMwF7GuGQFSMkxX8aDzrk9G9mVbhO+TTxdGf/WGTXEZA8ck4oixm/Q5T7neemwd3eOWZLafDNyrQDAIgoBKBopUTt9P3rQyVbDLPFnGAgujqzgQzDwQ0gQAIgAAIgAAIgAAIgAAIgAAIhIhAYWGhtqv07/0514fR0/thXAgZOJS/wxFYDxFziJUERBnTHbcuW7jxY5V5yMB6p/KqwUJoQ8nOYZQZPJQJfh29bqOy3bDNXgQoweg3yxdsfqK1XpkSRJ8+K7uTrnF5YasZlWstxSD6y6D58CGd/jmwT1vesW1sTwqYdwtCjNFddApQHi+vcB+7EFw//NW5dl+dqupxIbgeE+2o/Pn3sypUXgtdBtBf/o/V7MCOo0bziRh5MpD+0DN5rH3XFCV9Xv3ewc0btp8YoaRxlxkV/d6OvfQleuBlu0Ly0jcqo/uSP5TghA8JXQgFAWsRkOXMudB3W8tqY63VOL/+nglvbDFWKqSBAAiAAAiAAAiAAAiAAAiAAAiAQPME8uZl9eZeR8b5wPp1QvBMCiB2br4XjoJAQATO6LrjhuKFG/YF1CvMjesmnpS93UfjjK4LmnQiKFuds6EUoOwQZtOg3r4EPIzrw5fN/2hHa1wMeRC9btZJWc3fyMgxrTHU6n1lCfSBvdruyLq2U2mfbkldo5xafwv5dDG4TnY7E+Ki5cw6ZbcP/rqFvbukRFn7rGJYSqdE9r35+SwmLlo5k2tqvTt/9eePhihnWAODnLsObnKcKgv5usSC64OKttbuaaAeb0EABCKQwKJVk/6DC/aTCHT9ksucPT1jwps/vLQDr0AABEAABEAABEAABEAABEAABEAgPATyHs9MctQ6rhWMU4lrjZ6rC1kWPo3+QlGBNjxOQqvZBA5puhjxysISy5fhLXhsZBfd48uk4PogmnQyGNeH2aeS7fWVpCeNu4EmcejBehryIHr+3JzfUSbmvGANtHq/Xl0S94we3vVkvx7J/RTJNrc60mbtP7DjCCsqXNlsGxz0n8CQUf3YnY9+2/8OJrb887JP/3nkqwqlJ6PwsxX7o7fv7xdqLAiih5ow5IOAdQgUrZz8Of3gUPreaALNr77Ycl3X1nxBNsFGqAABEAABEAABEAABEAABEAABEIhQAnWBdbfzccH5jyIUAdxuPYGSaEfVLUVPf1rZelFqSZj+aGZ7IZy/oaD6A2pZBmusSIDKus+ksu4vBWt7SGc75c/OmUwB9LnBGmfVfrLkuVw3/OcPZ+18KG9IelqvlFwE0EM/mudKq9ir8/8eekURpGHnh/vZJ2/tVNLjCaN7nVDSsMuMEskJFEAXZy/bhZcgAAIgEDICS1ZOzkIAvQ5v6oBhO24MGWgIBgEQAAEQAAEQAAEQAAEQAAEQAIFWECj+zZYyKmV9qBUi0BUEsmt98UtkmXS7oXjlmS2naQ3143bzC/6EhwBlkhfOLMx1Bas9ZBfY9DnDB9N6H4vJsJDpCNbpUPVrl+I68vC0Ie//4uFsbUxWt1GuaKfy5aZDxSIMcvU3Fr7DqsprwqDa3ir/9tJGdvpYqXJOdk9tc22UQ3MrZ1gDg4TT+UWDXYa/FV6tveFCIRAEQMByBAQT91jO6BAZ7NN800IkGmJBAARAAARAAARAAARAAARAAARAAARAQAECYtLus2t/poAhMAEEVCbQq7qs+nvBGugMtmNz/WRUv7qsZgm1iW+unV2OyZLteWP7lackuoaTT93t4peV/KBsae3AjqNWMtkytnrcXvbmH95l3/31nXLdCIUmxfDkrGs6bd6w/cQIlWHqPTt5HV9g4pzKYwTbQMAOBOTMY8G25dvBF0N8EDxv3brcR8aMWe81RB6EgAAIgAAIgAAIgAAIgAAIgAAIgECkEuBspyPaeZOZ7otqT7Q3SsRpOktkPme00PQk0h9LGcodNKb3o1L4VAGU9aWKfPTH5bGI3DhnPy+YnfXJ0mc/Wh2RABRwWgj2d6fLaXoyh8ft48zhqz/3PVHRzOlNcOgiTheOdhrXO9J1IRPvuuuC9eWcy2tFxi6jFEBmugmC8R/mFub+cX1h4M8JQxJEryp3/zulyGeYTsJkhantYw/mjU073rl9XA6pVii4aDKIMKtzV9WydUs/CrMV9lZ/dN9JWdZdu368WsUVbriuM6cgutLwfW3i2jmUthDGgQAI2IFAv8ztY2iNn1Q7+GKQD+2PVCbdQrLeNkgexIAACIAACIAACIAACIAACIAACIBAZBIQzPfyrz8sVdX5gsdGdhFefaQQYhQFlW9mgg0iWyMlXqPRhIIleXNyri9esGm/qmNkZ7vonHOH8fo44y9bCiI7O5VXDeaCZ9NyEtkUWM6ia0WtgI+/zgTYjuLVXTuededRt1cC7MoMD6LnzxnxLbuvg57cJubkjInp+88Hz3sHCh3tjSXw9vMbUMbdWKSNSpMTFdJG9GFtUuIaPR6OnVT94dqYaEelmxaACYd+v3SmXFgXnSf71T6IRppTROxsyyBwoQsI2JKA0KiUu6wXgu0iAU0X99IbBNEvEsELEAABEAABEAABEAABEAABEAABELAfgaW/3SDLgBaf/2MUUG6rcXYLBQhp2TtxG+23efYtT9KYWEYVoke+WLge693a7xQ3xKPzWdg7SJj8e04KzZs1qodD84yjgPod9FYmo8TK/XbcaPnxWeRXwEF0Q2fj3P3EqBSK6D9PhhgqV5UBk+sv54/r/95jD2QmUgB9pF39VIW3P3Yc3n2CbfvHHn+aok0rCcj15tctKWmlFMO7x96U2XWb4VINFEjlXFio10UXTIs20GSIAgEQsBiBF9bluiiAPtliZofcXJqJPbGOTcg1QQEIgAAIgAAIgAAIgAAIgAAIgAAIgIAqBCgj+8yy+ZuKly3YNFmP9nSgx7MzZcltss/O6QfDas5W/1yVMYAd1iBQvPDDw0sXlDy3bMHmO+ha6cyZ+B5lqe+0hvUBW5k9bW5WRqC9DA12+zyeP5EBtlwTPGNg+y0//9fsU0PTOowmH207GyPQEyjc7f++aGO4TYgo/XLCwuljpUr5PHxIR+WvRz0loTaU0LjOXKGUD9kgAAJqE3BWtBlHFqaobWVYrEt0VCbKmbTYQAAEQAAEQAAEQAAEQAAEQAAEQAAEIpBA8W+2lC1fsPml5c9u/rauiSxCsIr+bBlMp2SCxwvmZN0YgcMMlw0gIK8VGVBPTxyXQRNPJtoxmC6E9kCgqAwLohfMzrqd6bwgUANUbx8f6zzz8LQh708bOyDTofFuqtsbSfYd2HGEybW6sZlL4L2lH5ursAVtCXHRg2RJ9xaahfdwYrxh99rGHOGaiGlsP/aBAAhECAHOp0eIpwG7Ses8gU3A1NABBEAABEAABEAABEAABEAABEAABOxHoPiZki0y45bp2gjyTgbT7bZpVLF0Sd7jmUl2cwz+mEegsLBQp4knK+uC6VzMIM22CcJRJfVpcm34QGgaEtiRF6Xg2p8DUWyFtjL7/McPDvd0T028yQr2RpqNG15Xuoq3bYdj54f7VctGjx3YJ2WvysC93TsOCaV9QheJoZQP2SAAAuoSWL48L4EJPkldC8Nu2W2L14zHPTLswwADQAAEQAAEQAAEQAAEQAAEQAAEQEANAssWbvxYBtM553LJXrutFdvdURv1azVIwworE6gLps8vWaxpniFME0ut7MtltndKLavKuex9iy8NCaKfvyhtU8Zdrn3+nUnp6yn7/Dq6kXZqkSIamE7g+P6v2YEdR03XC4X1BDa+vl0pFDdkpKqdic5YfO2w/id8fbuUCKdjC5VCOaYUQBgDAiBgWQK1cR65FjqqUTQ9gjG6N2Zq04dxBARAAARAAARAAARAAARAAARAAARAIBIJLJ2/aWNskmsYF+Ip8t9jFwZUivuhglkjsu3iD/wIL4FXntlyetkzJdPpvJpJllj+OtG5Y2IgRFsdRC+Ym3ODvCgDUapy23YpriM//X7W4bReKblkZ6v5qOyrlW17f/knVjbf8rbLtdHPlVYp40eXjm36KGNME4aIxPjOlJGeXTvqmkz36KFd3blDPTKo7uuQtIkxcbaJbtgNAiAAAs0SEEK/u9kGOMgcGgMjnAcgAAIgAAIgAAIgAAIgAAIgAAIgAAJXEXixcH3N0mdLfkzrpefYaA1oTWjsfwItW30VHOwAgcsIUIn3lwQXYymWUXbZbsu95EI3L4hO6fyaEOJPRMkWwWZZvv3R+65rE+XU+ltu5CPIYBm83ffxoQjyWE1Xt1MgXZXNofFucgKMKvb4aUeUDKp7B/fOcedel1yXqS4D6sFkqXPezk+daAYCIGAjAs+vyevAGL/VRi6FxBVdiDFFa6d2DolwCAUBEAABEAABEAABEAABEAABEAABELA8Ableemyiazg5Umx5Z+odyOhUXvOITXyBG4oQWD6/ZJ2usVvIHNUrAzdDjA+459+yuzXT4IpDrQp+7zm79gGSlnGFRIu+mZDb+z1Zvp0eRidb1IWIMVul4G3EQG/E0W3vqBNEl+YNG9jxy0bMtMyuukx1GVCnLPWLAXVkqFtm/GAoCISDQJTuuYv0OsOh22I6ncyry7L32EAABEAABEAABEAABEAABEAABEAABECgUQIyKz09aVyBEKyQGuiNNrLSTiF+Pv3RzPZWMhm2qk9ATjihjPQ7yFLLlnb3OLQb/SUddBA97/HMJMHZk/4qUrid5+FpQ96/IaPzaLIxaB4K+2c703Zt2G87n6zoUOnJcibXpldl69cj0fpfbM7DvBhQlxnqQ/vtr1tHXRXQsAMEQEAdAijl7v9YgJX/rNASBEAABEAABEAABEAABEAABEAABCKUAFVf1pc/u/mXtISxTCCttjYGnuTTo35mbR9gvYoEZEY6lXX/oYq2+WOTxsVN/rSTbYIOGnNP9E85Y1RG1LpbTLSj8scPXv9p99REv4FZ11t7WC6DticPfWMPZ2zgxWfv/1MZL1LbJ9iyVK9ITuhXt466XEO9iXLvXPC2ygwEDAEBEDCFwOI1U6nsEL/BFGW2UMJvWLJ6ak9buAInQAAEQAAEQAAEQAAEQAAEQAAEQAAEQkpArv+sMT6VlFg221YCohjew3lzcvqFFBaERySB9KTxf2BcvG9F52mSDFUl928LKoguLzouxCz/VKjZSgbQH/9u5sGEuOhMNS2EVY0RUClo25h9kbbv0/f2MZ/Xp4TbUU6tf3ys84wSxoTGiKi69dNluXfKTg9q7fTQ2AWpIAAC4SDg891LaoP6HhcOcxXQqQmhy/L32EAABEAABEAABEAABEAABEAABEAABECgRQKvLNi0lnF+DzW0cgXUKMq6/WWLzqIBCARIQFZt0DUxk7pZsWLDtWS/X89V/WrUkB11+jnti2q43yrvZaBNBtBd0c4hVrEZdtYTOPjZUaBQiEBVeY1SlQF6pCYeUQhPyEyR2ekX1k4XnO8VTCSFTBkEgwAIKEmArvsCJQ1T2CghxHSFzYNpIAACIAACIAACIAACIAACIAACIAACihFYNn9T8fnS7tYNpAtWkDdrZJpiaGGODQgUP/3RQbo+/mJBV2J3lb3dxx+7Aw6iT58zfDDVupezbyy5yQD6Yw9c/w0C6NYbvnOlVUoFbK1HMDQWf7Fdnbh1355JZ0PjpZpS5drptaMzBtZe129E/uycyWpaCatAAASMJrBo1ZR0KsiVYbTcCJCXWc8uAjyFiyAAAiAAAiAAAiAAAiAAAiAAAiAAAoYQkKXdqSqoZdd/Jgiapuk/MQQGhIBAAwIOXTxJuyyXjc4F8yvJOuAgus4cvyAgAfdrwDUsb2UJ90dnDjsuyz6HxQAobRWBI3tOtKo/OoeGwKGdx0IjOAipvbsmOYPoZvkuMjOdc/H6tDkjNhfMybrR8g7BARAAgRYI6OpOZuTsaTK+pAUHwnaYC19+2JRDMQiAAAiAAAiAAAiAAAiAAAiAAAiAgCUJLJu/eT4lNBRZ0vg6o0VB3rys3ta1H5arSuCVhSUnOWMvqWpfU3Zxrvds6tjl+wMKhk+bmyWznu68XIBVXkc5NDdKuFtltBq3c//Ww40fwN6wEjiy9ytl1kVvn+zqGFYY4VeeLZj2PgXTlxc8NrJL+M2BBSAAAqEgwAVXNRBc6Y0v+5kQXOEyTpq6ExBCcbJAJgiAAAiAAAiAAAiAAAiAAAiAAAiAgCEEYpNiHiJBOwwRZr6QKO7TZpuvFhojggC33gQTwXgff8YmsKxN4fgllXIPKPDujxEmtNFn3zd0O5VwzzZBF1SEiIBKGc8hctGSYj1uLzv2+desx6DOYbefqkx04zTtSdBCHBG+5QmPb9y0uSMKTya6fr++cL03wnnAfRCwDYElKydn6UyoWlHnb/ePWV/z/Jq8FVG+WnnfCex7pimjJPovWTU5854Jb2wxRR2UgAAIgAAIgAAIgAAIRDSBopV3TBacR0UKBK8Ws/6B24pPRYq/8BMEQCCyCLxYuL6G1hafpmk++Uwh3mre02Pz+2fMu/bHRU9/Wmk122Gv2gQGJo7dvKfs7QMUmfErMK2CN3Q9dPPHDr8fbtLNIY0x3x3+CFWtzXcmpb+fkujKVc0u2OM/AZ/Xx0pPlvvfAS1NJfD1l98oEUQnp2OTEmJOnj3n7mQqADWVtWGCPdOpvOb+vEezZxY/U4KAkZrjBKtAICACggllM6k5569JZ+RDs6KVEzdQmbPRATlnUmOahFBAqnBPNIk31ARPoLCwUOtz/Y40jYlMIfS+TOM9mS5SGeeJ9BnvOi/Zq3FeTud1Na3R9w0d/1II7Usn4wd1J//i3tteOxq8BZHRc926XOex6rapzOPtqTtYF+LbmdZG6y6ESNIEi6Up5NF0P3NpjMfqQpevE+rI0A1Z03gp7fMS+3NcZ7U6Z9XUTq4Fd4LkHKVxOqFzftxV5TySn19cERlE4aXdCSxfnpfgifOk0bzldHlv4oy3FVykakxL0XWRQtcDPY+6sIlqjWvVuhAVjAsPTXYuo2vja6bzgxpnhzh3HOwS/83hMWMw6fcCsUj9nyZhdojxeXr7qKwmnUs96JxpzzXWieksmT7n6u67F+/BnNXQvbZKstKZXkpVmr6iW/IZwdluB9MORFVF7VPlniuvFzerfZU+V6yYkBTU6ejyenOp43tBdbZ5p6K1UztrXr0LnbeptFJqDyb0jnX3UI3J5zft6r9rMAcFIJKuRiEq6H5a6xN6LX0/KaV76Rn63nGO7rhfUybJCc3HjrMo55ddY898hXvq1fSwBwSMJFC8cMO+/Nk5D9LSmi8bKdckWW083tiZpOuPJumDmgghQM8v9Py5Oa/Rd555FnLZrxiS30F0h+abTT+SLPel79acHh+m9UrJtdDAwdRGCCCA3ggUhXZ9c6JMGWs6t4//CkH0y4ZDsCGa4JvoQ+zXcYkxT8oZk5cdxUsQAAELEZABNcG2qVrK3e3xsFUXcAqNv0YBJSWD6PQAfxqxfFx+wb9gL/4HAVUILF4ztZvQ9dvo4entTGzLpQeqifQbjDaKSdWdsfR//Y6LJlOgof513X/0KJZ+tfpkIx9jRSsnUYaB2E8B+K3Cx98XDr7xO7e//vnFzhH0YvnavLbeWu81XoeeQRSHEs9B5H7PoxWMlgPyUcyG2EmG53HKOCAFZC6+p4kK9EbuOL/Ry3r29IIOybby6Pnu9KL+Faf/3bG19WPB2Zd0YCc12k3/79B49Kf3THiVZutjAwF1CSxePekaWqplFNf1G+g8v4ECgn0uneh0nUjT6UDdNSIvgis22n/xHiWvKtpkB7rY5H9CeNnRiiQvTb47TAc/oWzdDQ7BN3SJP7sDQSAJy57bklV39vHpvps0Lq6jM4GWjeTXMV9tovyYo4A4nRtUXFO6fv6b2sVzqH5v3TlUf0+Wjc6fg/S/vIfL/XTP1YtWTdpLk6E20HSnjTxae3vGuNdOyNZmb554Tz8yynLPUs3mZDd9dd/nfJ7r6fzMoFNzEN0j+5KPA5nHF19/WsszvO5mWPfvxXO9/l0TOOrvpxe/n1CrS99b6DqQZ5nPd/6eOukLerebNOyjSSi7dMa3HPgkYx9+/zSBFrtBIAgCy5/d9Aotp3kXdZ0aRPewdqHvWz+g+8GfcU8I6zDYU7kQ75NjVgqit/VnIPwKok9/NLO9rrPv+CNQpTbpvdvuGJPVLVMlm2BLcAS+OX42uI7oZQoBlcanW2rCuT0Hz5jit4WURNED3J9Vl9VMnD5n+D2vLPh4l4Vsh6kgAALnCfTL3D6GHoRQ1oJ6Gz2cef/+KW9c/LDWuOM1CuMtIEuVe2hIj6y6Dxi240ay7T31SMKiSCQgM6GPVCZOoey5B3Wf7xZiYOR1QyUG6QGuzjIouH4/BcFkwFY+yLX1Vpf5F+ceXRf4owANhWOGuD213WX8hSb4hGuLp2fjFLjnMnhPm3wY7j0/0YHtJNNKKJv3b1zzfHDvbW+hBFc9JPwbBgIvrMt1OSsTb6HY9yQ6T8cJnXWXwR564Boqa+i5FJeB+T4UEMqXQVAKrFcWrZxcIjTxpvxOgaoaoUJvjtwXXp+cHBXFJjBdH0vVOUbTva973TJsdepDcl5RERc2iIKNgyjK+CAFLnWaVLaNzuOVuuZ4xczJZJQ13P/89BFzYEOL6QTk97jjFcnD6C55M92/RtF4ZwqfT2aa19siY+XmbvJZP1WTZWny6qLJJPSNQ7C+mdvK6b5Kk5XEJkq0WOdJOLtBLsVlrmnQBgL2IqDrzjma5h1LXlmtrHv63vK3R5DdG+01IvAm3AToE2cDfebIX9xGPtMIpVvGBdF9vqgf0Bfc2FBaa7Ts+FjnmXvvSJMPmi1lt9Ec7CLv6y8RFFV5LE8fLVXGvJSkGMq7wtYEgQydOT6eNif7R8sWlCxsog12gwAIKEqAyv5NU/UhHH1D/uvl2OTD7qIVk7bSExvKwFBv82m+aWTVe+pZprZFlNX1Jj2JG6K2lSGyjmu/mTHhjeeMlF4fqEq+/0iF+BE95Ox+KavOSC1XyTpy1R4b7JAsY86lZHs1/VZimesWtdkU8XPKh8cyWF3/v7KOyodu2fSMXdr8iPBFU1bupC30fh2VdX0n0h9y0wN/qpxAhfYjcNM07c57bn9ju1muL1k5OUvn+kxWwQtIZ0qYrxu6LsTNNOnlZjkpjzLVP2BcW8ac2hvhyig2axzsokdOZqpxee5yaOxuyiS/ieJ4MVQqJVz3Y/kglxJseKam64WLV07aRJNCXvTGn10U6iAiTQw5P3HKLiMLPyQBufyA0+uZSBMUb6eKNrl0v0qR+8N2hkvlLW+JdfdVIe+r4ifOiiQ3fcZuoMtyDWeO11EZp2WAaAECDQkUL/zw8LRZOb9kmvhtw2PKvxdiBtmIILryA2UtA4sXbDpDcYf99Ik4wCKW02djy1uLmegzC3NdVWU1P2hZlFIt9EdnDjtOa3NG5kM+pYbCGGNKv0IyhjEkQyNFltuX69Y7nOF/vtUuKSbMz3tCw9hAqTSxiD877dHsEbrT+/3i32xRpxa/gU5CFAjYjYDMcDhawWWpMBU3nR5qr2xoGD2QeZWCQEoG0SlQlUdMH0Gp2Iaj1sJ7vW696D4ttLLlYcri6W2kY4tWTcyjQNUz9DCzu5lfXOhhvm2C6C+tnjLAIcQdxG+sXiFuoHV048k/O2zyN3o2+UWBdfEEPeQuX7xi4gpd44u7x5f9I/LuW6IvfXe1SiaDoecfrf/clQSGNIguv18cq0wuoHvcbJrIk0mfj4b6YJAwGn8+miZxjaaM4t/T9bCUOfhv7739zc8Mkg8xBhJYsmpyJmVff4/K/tPkT5aoK3hfJpNy6HzKofvrf9IEjf/yOGL+9MBtxacMxHBJVF0p70tv8cq6BOSyMG6vZxoldd9Fyw/cRBHzFp+pK+5tjAyq0wQXCqp7n6ZrYQfZ+7rGo4oQUFd85GCeUgROpsQs6FRWcw8ZlaGUYS0YQ78zplPcbw6W/WwBFA4HQYDL5eOsEkSnz8KWtxY/8KvOuqfQQ9AOLYtSp0X+uP4fuKKdo9WxCJa0lkDF2arWikD/EBOoOudmbVLiQqylZfEJcdF+3fxalmTzFjov0Gqdw6i8+1SUd7f5WMM9WxA4WtFmAjlSl+GgnkNiY2NZYT5Ne42yfZ5Sz946i9ofqUy6hV69rah9MEsxAhTC62SESUtWT+1J1c3+Qll5txohL1AZFIj9MtA+qrSXwb4T51JG+jR9AgX6JlFZ4P4yNqNgfMZoZImUMXkvTRC4l0pcn6YMypepDvzyeyet2GC0IshTi4DQtZA9h5HX05GqpH89UsHmUclFKtdumc0prwdaouLuRSsnvqXp7ClcC2qM3eKVk2+h+/GP6fPtZsWzcS8H1p4maBRG+WrnUgBxfkx1zDP5+cUVlzdo9ev6tbBbLQYCwkOA1gvW+ly/jarciAdoWRha4oIqKth2o+V/KAhIyy38XFb/EEJ70dfm7NJQV2uwLU44FjEE1heu9+bPGUHfp9jfreU0T6oud99BNhdby25YqzoB+j54QMlpuY2D0+RnPf01u+hbizO6qTTNg43LV3Nvry6Je4amdchS0zpYFSyB6gos0xMsO7P6uavcZqlqVk+sy0ml/7D5R4APoPLum+jLnvzShA0EQEBlApxPV9U8zrU3GrOtbr1JznY3dkyFfTRJVJZ0xwYC/hEQrJ1/DZtuJbPPdd23LVwBdGkZBTYON22hekfkD9pFqyaNpczTIgogf03Z5uspaj6PQuf91bPWFIva00OJR4TGP6TlFXYtWjF5pgyGmqIZSkwnoGmtv+80NFpeU4tXTaYJGYn7qFT6QnrAZaUA+uXuaHQ/u11eC5T5/DdZmeLyg3htHoGXV0wZTUtQbKaMtndkVqt5mg3VRKU8eaE7tvYg3Ve/a6hkxgYaLA/iTCAglyMoWjX54b6Z2/fSJLa1NHkvn9TaOIB+BdS66h8UD3iBqjUcX7Ry0lOL10ztdkULvAEBELiCwPIFm+kzkJVcsdMKb4TIs4KZsNFaBGji2QErWfxFxWstLgfebBA9b05OP3J4tFWcjnJo7vunDJIPEVp03Co+wc56Ah63FygUJ1Bb7VHCwiinI1kJQ6xjRBt6ePbGtLkj5lrHZFgKApFFQD7EoQc3t6vqNQXRr1gP/XI7Kdjz+uXvlXqtsztfoHWUlbIJxqhLQASfiS6DnJQ9vJALvpwcDGtFCQpyfKku5EuWyYx9yoL6RZ/MbYfkw+u6zNMws7tknSKvaJ1d+YCbJhccofPrCVlmVhHLYIZBBOh6TTVIVJ2YJasnD+2buW0jlW4vooBhHyNlh1OWnJhElW8+lfcMfK6bNxJy4gJVA1hVN7mJlp8wT3NINbWn++r/0rm03oiJGecDj5jkH9IhM1a4/CylyXv/QRMqDlPJ/z9F8KS9C2BT6HnRE8Ln2y8nNBpxXVwQjP9BwG4EuND/3YI+3SaXcrag3TBZYQKC8bMKm3eVaY6Etr6rdjbY0WwQnWYN/Au1b7ZNA3lhfXv3hLRNUU4tUrMSwso+1MpVCdCG2k8ry/fWtni/McU9h8YSTFFkLyUaZXU9QxnpC2V2ir1cgzcgYH0CtXGeyeSFqg/gttxz+2tNBuUcjKsbRKd1Op0VbcZZ/wyBB+YQEEGVVZYBnaOVSa/K7GFz7GxJi3a4pRbhOi4nG8hsfZlVShn7NHudF9KDW6tmyZqJMZXOr6eozOxhyk7/HYLpZqIPsS5uTCa6vA/Jc0PXxcdksV2CnQ3hU4YoL6Ssye0yM7rhQbw3joC8V8sJC3LigqwGYJxklSTx0XUTMygTuVVW+fS0VvVHZ9MIyEnLckIafZbup8l7PyHFYZ30aJrj/iuKkRMa6brYVbR60vN1yxP53xctQSAiCCx99qPV5OhWizkb7y5z51rMZpirOgHBy1Q38XL7erHc2svfN/a6yWBJbmGukx5azGysk4r7uqcm/DOtV4pdfxCqiNxUm9zVLZ7LptoDZVcTqK5UpeQ+l5noaqTFX41J6T10z39kT9napZiFqPQwwbgIJKALvUBdt8XK5my7Z8IbWyiDQ91STgqXyW+OK46FgwCndVMD2xavGZ8YVZH0Lk1UmxhYz9C1dlU5j4ROenCSJScqL/2ozKiW2frny903+Ts1OC0R0StelrqXAYBFqyc9IgNdEeG1jZ0UuujYWvdk9rmzMmlL/TIILBLOiTTKjH5HBsNayw79ryYgzyeaGLZDTligo3YvbR0jM5GpVP1rwU5OEpxhmYGrTyOl9tQtG0Ml/GUpfzkhjYxD8Lz5EXIynd1Pkx331U3ckxXTsIEACFwkIAS3XDY6VT6adNEBvAABIwhwUWGEGJNkeOi7QLProUs7mnw40bnM/S063skkY1ulhta0ZFTGXS7IjDLurSKJziAQPAGfp8X7TfDCA+wZH+s8F2AXNL9EIK+6rGbNjHnXqpr1eslSvAKBCCAgH9pRls9YVV0V3CHLUze7kf2rmm0QzoOCT6orlx9OG6DbKgQSZTanv8a+8PrkZOGL/hs9kM3xt48J7Urz84uV+UFbtHZqZ1kylTgdovLST5P/hpauNoGnqipS5FrXNClhZ9GqiTbNElUVvbF20ednwJN3LrdATk6h7PPNFEAfdPn+CHjtlMEwOv+X4TPeuNGWk3Mi9Hya4va4P160akp6oDS5EAMD7YP25hFYsnJyVt9h20pkCX/S2qr7rXlWK6OJJpnQxL3Y2n/SZ829ylgFQ0AgzAQGJY9dQd9BjoXZjIDUk734vRAQMTRuiYDGdBmntcgmqvwxtMkgOoXD7vZHgAptvjWix4euaOcQFWyBDaEhEBMbHRrBkGoYAVe8OmPUJj7KUmVDDBsE4wSNqfXFvY1AunFAIQkEgiXg9nruor6qZo7tu2/C63ta8k0T2msttQnj8Zjz5fLDaAJUW4VAVHVbvx6wyqCN0ynWkl+KVckSh1VgXbfe+aqJf2Ie30GUTA3piKQxwVdR2eU1KLsaUs4hFB7cMhLyHiSzZ89PTrF7tnDT/AXPd8fVlixZdWefphvhSEsE6s6nVZPelJNzqG2Enk+8D611uznQiUmU3YflJls6wcJwXE6KpGoVC3UmNjHOrg+DCXZSmUqfNUVyKR5817DTsMKXYAnIjFZNiEXB9g9Tv+5587J6h0k31NqQAGcOCyXm8eP+DEGjQfT6Ur5igj8Cwt0mJtpRedP1XXuF2w7oDy2B6Nio0CqA9FYTcMWr83vaFR1V02qHIGAkBdLfv/uJUShnhnMBBMJJQOjKTmqkGct+rXf++daMDwjhV+HE2JxuoTDj5uzGMfMJ0AP0FoPosoS2O9YtKzQoFkAnizj/0nxqlzQ+vyavw6KVk56SJUApuCvXmVXny+MlM234io8n5p8iU8yKQ8sDrgwoA8Z0D/qQvJ1iRY8Nt5my8HXhLVm8etI1hsuOAIGL10ztRpmm6ynjVJllScKIPZE+u94oWjX5oQBsSAugLZqaQEBmnzsrkrbT75hHSF2jz8RNMMN2KuRSPPK7RoDXh+04wCEQkAR8wvkS/adOuVY/hoV7HWP8aIYmIOAXAZ2zNn41VKORX88qG/3CUFVWcyv5YInAyaSb+3zi0Hg3NZjDilARiIpRNQkvVB5bT65KEx2SEqP9KsVhPcqmWzzM5/auREa66dyhEATqCMgHlxT1ulFVHA7G/Qqiy9nYlInT7Nrp4fWR3yqDe+G1AdqtQEDorF1Ldh47l/gCXbfjW2oXnuMiLKUFZWl7WbY9yld7kDMm1ylG8Nz8EyBRZootXjGxSI6H+eqhMUgC8YEsIyGDQzJgTPegjCD12bVbe7p//y2Yctx2BeKPX/J8Ej7fNmqb6U/7CGnjpHXS/yyXSmjJ3/prl/doqR2Om0NArn1O2edPUPb5BtKIyQ2hwU4TTcT/yEoo+K4RGsCQag0CxQs37CNLP7aGtfVWck3cYiV7YavaBOh7t3WC6Jyd8Idmo0F0WmO8wJ/O4W5D6x6fGZrWHj8Qwz0QJuiPdiET3QTMrVIRE6fO89AEV5SnVc6g8+UERrq9ca/XVyi5fDdegwAIhJyArk8jHY1+Vwu57hYUUPbGkXvueOOjFppdOsz5q5feKPfKGaXXlc1XzjAYpBgBzjo3Z5F8qC44V3ZdSC744ebsN/qYzMqXa+hSafsD58u2W6ism9E01JAnz0+HU3z68oopo9WwCFa0RCC6qq1f2eiLV06+hYJD75K8FitmtKTTpsdTqZrIuwik+ze658+nv+N8apQXVeoVT7cUSI+qSupPvZEN0ihCc3cuX5vXtm/m1lX0++UpjIkp7Kc4nfoWKvGOCTim4IYSFQlwJp5X0a6mbBKC4bdBU3CwP3ACGusVeKfw9KCA/+f+aL7qwWxuYa6cWXm7P53D3eaub/f/lGZZYyZ9uAfCBP1xbVwmaIGK1hCIVqhaQEqyy90aX9D3SgI0serW6rKaRXL29pVH8A4EQCCUBOgB3fRQym+NbLoZ+JWFfkFH9/iyf9Dr8gvvlftf1E1YUM4sGKQWAZ2Ltk1ZJIOSdM3+uqnjSuzn/KhZdsgAzNHKpB3n19C1RIUzs9iEWw9VA+ju4/o7coJDuG2Bfj8I6HqLQfSilXdMpoovq0kaJqo0j7QukI410puHJNf9Pn8+JTbfMrKPykB6c/dRKm89MLIJqeH9ktWTh9Z4arerWyVIDU7GW8H70DWwYdGKyTONlw2JIKA+AfoN9CZZaZmS7vT7oGvBYyO7qE8WFlqBAE0i6WsFO+tt5Dv8sfWqgEhqWVUOfblI8qdzONvILPS0XinZ4bQBus0jkJCC5wHm0Q5cU1yii8XERQfeMUQ94lyY8B0CtHm7y9YuCIFciAQBEGiEwEurpwyg3QrP3ucrGjG7yV1jxqz3ciEC6tOksJAc4DfWl88PiXAItQsBwTo25opcDoCCkkvpmNJfQDSdH2nMfiP3yeuIAjDLKADzDq2hO8hI2ZBlKAGnnOCwaOXE52TFAEMlQ5ihBHSuN7vciAx4UtEaef9RpyyYoQQMF5aqM+/KxWvGI0DcCFo5AYrW/ZbVg3A+NcKn4S66jy5YtGpiXsP98r0muIUeIDfmgfX30VIyY3VdvCcnj1nfG0t6EMO5eEEu6WNJ62E0CLSCwCsLS04yzna3QoTpXfVaPct0pVBoTwKCWeY7kOBspz+DcFUQnb4wK7qG35Xu1Gehs9gr9+KdXQl06dvsswO7um0Zv9p2VmveTWyMkyp1YTOaAP34fKRgdvYPjJYLeSAAAlcT0HSfslnoZO3prgln37va6ub36BpTOIhOZfPry+c37wSORjYBIRoNotNa3/9DYFJVhyMc/FAobaRso+/S+rm76Pdkfij1QLZxBDjjDx6pSHwjkHW3jdMOSf4QELrW5A9hGSBCwNMfig3a0AQf4YuSEw+wXUZg8ZsTR9IEKJk5hwD6ZVxaeKnRUilFkl3DdkJjckIstjARKFo1+WFaSmYVqceEmTCNwQW1ckkfOcESk/YuEMH/kUJAML7WSr7SB5rCSRxWIhnZts6Yd63MhB1mEQrnBieNPeCPrVcF0WmdtNv86RjONlEOzT2gZ3J6OG2AbnMJtOuKqv3mEg9MW4dubQPrEOLWiQkxUSFWEbHi6TPi9wWzsyjjBRsIgEBoCWj3hFZ+K6RrbKXMLA9Ugqsq5i3q4w60n1ntVS6fbxYD6GmeAAUcr1prmNZElWugT2m+pxJHvV3izhwLhSUy+5zWvfwbZRv9L8nHw+pQQA6hTDqvb3dWJK5dvjwvIYRqIDpIAprG2jXWVa41S4EJZAw3BsevfXx8S2ta+yXGJo1kBSSh8ZXkjnzwiS0wAjHE7o2rKhrpqMYSGEbjWi9eOekJWqb0TyQRlVaMw9o6STTB8mhF4gpM2msdRvS2FgGHYHJJO8tsPqUrIVoGY8Qb6vXF30gQrBKXeY+WrvVr2YUrgujTZ2XL9bauUX20x97YczPnvMW1wVT3A/b5T6BdFwTR/adlfsuUVLWel7qiNfxYCt1pQJXptFemzxk+OHQqIBkEIpuAfDDOmOivLAUh5EP7gLf8/OIK6rQm4I7mdcg8X0bfPI3QZDEC4oqM0OVr89rS5AtLLHVCJXpOBDP5paUBkpmwlH2+jda9vLWltjiuMgE+2h3rXoWH2+qNEWUGX1XlYsnqqT3pmpMZlgh4tmLI6P79n/XfuVohxAZd5WeZptedTyk2cCdcLrQXum9pg0xbZKKHYTSKVk78BX3neSoMqqGyRQJ8vLMieTUm7bUICg1sQiAmKWY9uVJtFXeo+ui1VrEVdqpLwMfZLepa18AyztY12NPk2yuC6D6Nj6OWV+xrsmcYDwwf3KlLGNVDdRgIyPW25brb2NQk0LGnWpnosS4nHiiF9lRpo3PH0vMlWkKrCdJBIAIJ6EwUKOx2uTe+POgZ1TQJ8jWFfWOKl9FXGV2E2MavCKLXeNy/Jsevyk5XEQbn7LCRdtGMbU0+qKZMWDkxxhIMjPTfnrL46OjK5BUNgkD2dNVKXvErM9Fl8EHXvbLk9lXBdSu5pYitMbrQ/y+Sz3npu9vjpu9mCk/eVORkadEMwUYerUyqC94+vyZPfl/ApIQWoRnboH7tbV5orFRIM5aAuJkm7b31wrpcPOA1FiykKUjgxcL1NWTWVgVNa9QkCqJ3xnPeRtFgp58E5DMCqgSj8tKUDTzR/X62eUXAnNY+uKmBJOXe9uqSuCfKqambnaUcMfsY1D0NzwlUHc0u/dQqDOHQNKzjFuqTRbAhtSJWlm3FBgIgYCAB+aVTCDbNQJHGiuJi7f1j6n4MBiU32hklA24Bl4IPSlkwnTjWcg4GWwT16XjB1yWrJw+lMtjfvfBe/f/FMaNslFmL/a/fvpaxugfVV/yeNEoH5ISHgKwocLQq6bnwaIfWRgnoV2ai17rcf6ZrL6PRttgZBAGecawiaV4QHW3RpT7oy0fbwhkVnBBs7uKVk29xeb2DVDAnkmyQyzPItbcjyWfr+spH0TIyr0XyBCbrjh0sD5QABaY/C7RPGNtrNSJ2YBj1Q7XFCewre/vbdM53tYgbR9ITb/P7+rzioYcQPEd1J+8Y0+eM6jbCvtAQ6Hddj9AIhtRWEejUqx1rkxLXKhlGd3Y6eKLRMiGvEQI6LyiYk/1QI0ewCwRAIEgCA4btuJG+dHYPsnvIu1F5xL+2Rkn+uOIzGud+l0xqja6g+go2SAZHg+qLTpFAIOnCAz9d158kh6/4LaU2AH7YCPtkdp3bW/sByrcbQVNRGTq7v249WUXNizizxKUKGEWrJj8sOL834hiE2GH6bvPTorVTO4dYjXLii1ZNvJ1R0Fc5w6xtkCaY/pyuieut7Ya1rF+0YvJMWp7ht9ayOtKt5eOPViYuufC9OtJpwH/7EqAEiS1W8o4mI6VbyV7YqhYBqqr5A7Usatoa+k21zN/10KWUiw9+pj+aKcvwpTUtOvxHYqIdlZ3bxw0LvyWwIBwEel1rlYks4aATPp29r+kWPuVNaKZywQiiN8HG6N2C8fl5s0Yq/dlhtM+QBwKhJODlvntCKb+Vst2uqpi3WimD6Yy93loZoexPwUGVxyCUrkN2ywS0o+62HV5eMYWy9vj4lpur00JwdsQIa3rHniolOfIPm40JUFDxP2U2pY1dtI5rXNStm7V49aRrqDziAusYbilL44XH+0tLWdxKYxevmdqNCV5EYi4+E2ylSHS/SID3oYBuRJ1PF10Pwwsq4T6Wc/EXUo1zOQz8W6VS/H/23gQ+quru/z/nzmSHBBAFFFxwAdwQUEFxCbUWZA1oAsji0j7+u4p20ba2z5M+3dRWLfaxPrW/iiWhQqKsAfFpLWiLiBoFN1TcQYGCEEK2ycyc8/+ekGASssxyl3PufO7rNcnMved8z+f7Pndm7tzvOd/DiygTyH1J2UBlENCdgLS26S6xjT7BT2/zGi9AIEYChbddqiZnT46xuOfFJBdL4xFx9CIjKtKUo0dfx2PErbIXnn2CmmKf5VZ7aEcvAn1P6o110fXqkiY1p553ooaqWFZawArpKMyHmnIsK/rXG4uxppUP+xYuuUxAjcSn9NDTXW425uYkk38vKiqviblCZwWD1ko6RLF0PTet0+nriSylVPFotK+05F2mOc2F+MQOzePGbYxwKzCLbO23wx5saEuAZlPK0lScnatfj/B+6vpACraItGHJKoc6iK6/bvrL2ulnOWReO7P0nfAoicKa3c71TI5zpmG5hcDiiunDaNZkGb0OtuzDf7MI0KC9WynLCrIbmtVtUBsHgaze6SqWpe29j/auWJY8uf0+vAaB7gioZSkpNnB3d+W0Oc7ZG+X3bYkrS0TroPlYbRzpRMilIwZQhlNsqUxg8Pn6zXpO5f5Qvp96zklaIjipX48PjuududOOR05WUC0jEdbSUT1EjayrDv1YDylQAQLmEqCUduNJvcoMpOcmraRSubc4NW/C8t2Ms80tr3X7r9Lpl66aqv11sW7cUkUP3QEZR9kKjJuha1mBj+zqo7kTl++ime0qpbQxN4Ts8j3F7PSn2bl/SjGfdXQ358i61WyUjuJ8pCloMfFDH/nTqStqWQAsydEpHhxIjkCEMbktYrF/J2em+9pl6wv7cBmtoJLIQtg9Lr1LSPkQst/o3UVQlziBx4o3NlDtdxK34G5NIbi2Swu6SwKtxUPg7aqnvkEZjq6Ip46XZbmUv4+3/aOj9eiG4cXxVnazvErl3js383w320Rb+hEYdsnp7I1/vaefsBRVNHj4QJaRna6l97cUnuvEOi71lJqtOhKV1TV1jQf+faC+/r2PqzI/2XP4uD376k4OR0XKzg6hL6AfzvzuxU8uu/9Fs1IVaXn2QlSqEuCCzaLAlK5bJBJMW2uXOJrxtYJmOWobqJYBNod83WSXv7DjHwL0Pv0pedN6ILIRzoV42qd2Cp0/edXTlEL11zQD7C477cKWXgTos3pSaUXB3LmTV5bqpSzF1GDdanc6XLB5S9bO+NmcScs/dqdB91sh/04RIvob91tGiz4koDL/bWVcvkKXRVvpwqiyMafqzZvGNQWMHHVXzXgLR7ZSGlY+2NGGYNwtAkH6XbiUlpkYoQZqutUo2gEBtwhQprtdnJux1ji32AC3uKAdfxAovP2SM+gz/B5zvJGH0gL1S+LVezSITilUztX3vi1jzancx8TrIMr7i8CQi09tSuleV60GcmHzmsAF44Z6LcHt9rNovfWstCDvR4N6mHoMOfVoFjzR0Bh54+PPDu/f+s6+ntve3q8G/aS5LdDD9tKYtP6SX5x/4cbijTQCHRsIgEA8BMrKCnuEeKO2qdzpJtVzN08s3xePT12V5SxAQfTIb7sq4+kxyadT+txbVepqT3WgcR0J6JstonNatXa+f1uaGZRzqHhXTe5l9PlwZcs+/PcfARpA+gDN+FtXNKH8gP+8M8Yj4wbuGEO2rdCgkNFv064ftN3tn1fk34PkDVKN+6dL3fKkmmaYv0oDq7Yxzl+iwPm2k7IPbffqOvn0Ua/8VEh+tVvOox1XCPRl0WgZ/f66wqvzyhUv0UhKEqAU6TulxrMl2nSKlJiJ3gYIXnRFYPb3RvUVQq6mMsZcW0pu/ankt6/VduVXR8eaguiz7mrm5OIAAEAASURBVBh7ogxHj++ogC77Rp7TL6qLFujwjkAgGGBDLjqNvfrMdu9EoOUmAmkZQXbWRaeCxhcErMz04LkqqK4eM8efWbV7f/2bf3/+kx7bPzxwHhVLhZtfw/tVN9xKvt7/BRY8AwEQiIVAY3a4gEl9LzxpDehVsfgRa5k5k5/8oGTNVMpcwYfHWsflcv131uaplN1Pu9wumgMBJwg4MqtH3eSkNbNns3D0FRLd3wnhsKkFgb6N4cb/IiULtFADESDgJAHJbly0If+nN7kwm9ZJNzqyXVIxdRJda07t6Bj2gUArAvstzl+NSlmpZpkHWFqlum5vddzTpyrtN814+4mnItC4IwRoct8ln9bk3UfGcb3hCGEY9YqAiPI9NMPbkI3n3Vicn9mcht4QzZDpBYF53z8/pzGappZVcSITsFMuHQ7wxoRmzTcF0XlYnE9fVtpulPKC9T8u6wxtBUKYqwQu+NJQBNFdJd5xY+dedqa2qdw7Vuz2Xt5rQN/ssfOmDmVRIXe9vmP/+89s2Tn484MN/h7VJ1kxDcxauvTeTZ+5TRztgYDJBOhmUKHG+oXFA8sd0LeCbOoaRKeJNmwm6UMQvVXH09IdtxGYyyWXIyj7yAialXQ6HTbmlkArV1LqKd0M/8Qph+dNWL6bbmjPpc+w9dRG029Lp9qCXe8I0L2Cby6umP6/8yev8GAks7i2acAV5yMpHeYIujXg72tp77oZLR8h0Detttd19LTUT0BoYEAmq2FqFjo2EDhKgD7bd9L17qtMqpTschsPpL2sczpttQ56KNyo3pu43jjai/56Qufkt2m5oHVq2SB/eQZvUpmAxeVnkumc/7lt74QO1ufRHqQAbosFr1oRoBTufRqFUPfzRrfarf1TyfnvHr+vcn8iQpsuPIRg5+l8+2tgvx47KIXymYk4iDr+I3Dy2QNY73657OBeyiiFzTMC515+hmdtm9ZwwOIDLxhyvHqI3fvrNpU//c6Je/bXn2aaHzHq7SnD4m4qOz/G8igGAilPoPmG0HiNQbzkxA01bvHlUrBibf0WrIBuOn/Tj7PREmU+d9rqTVRXPZo2tQxBJDMyKhIQw+m2wAVMyJEU7DqHDuLmZjMjHf4JLnc5qWPulJXPUGaJX1DfFzvZDmx7SiDIWVT1rxpc5Oo2b8qaldSgejRtj64rPD4oGkdaFFDHgJ4WKvhvJwEhxSyyV2qnTa9t0cCAb9Fgp8Fe60D7+hCgz8+i+ZNXl+ujqHsloUjoYbrWQOab7lGZXMKijBl/WrSi4Pybpq+sMtkRaAeBFgKCWZ9yOrFN2SIs2Iu07jVFL3S6S0CtgW4xsZZJfpa7LSfd2gGZ1qiynSS0HbnBZVEQXeNt6Gl91BsXQXSN+8htaZdOu4CtfeQ5t5tFe80E+p16HBs8HJNAEjghLDU7/dY5I8TB6oYtS596t8/OPTU+/GyTc2YtGPPQ0oUvbEmAEaqAQMoRCEXCasZThq6OU3D0aPDCTo1zJ616vWRNwQ6a+aLr52DvYE3PCeSzI/7bydIrW0VF5TXU9rPNjyYZarZbek2v8wWnoDoTF9CPKwqsq+f6nuNNwv38R8iPnXbv/cqRPz/zwq1jhZRXO92WS/Yj1E4VfT7RqF1+kCaPNFiM1wnJArSPZmdI+h3N+1GZE+iRGtkYJL+OZqMP82Y2+he9fvPE8n30Ss1QOzpLrXTdNblWJHOEGtBjReVF0qLPHcnUjZ0j9zu+qI5nINAtAVr3+csUwOnllwBO82DNu7p1HAVSigBd39eZ5PDiiqmFdE1ZZJJmaE2MAJ2bg9IC4vdUe15iFlALBPQiYEm525Ql0RW5AIv20osg1OhCoOj2MTdwJhbS72CVrcCoTUr+g/J7Kg8lKrr5R6XUeuTA0MF96DsUGwh8QWDE1cPYhqUvsrpqZBf5gop7z8Zdf7F7jfmzJat3bubob8w8X+zcU/3c4tVvn1tbH+njI1ctaTH6UmVjfOQTXAEB5whI92f2xeNM1LKcSOV+RAKntdYl+348elwty/lsam+lq20a3ljzzP0XyQ31aNo2bMgPflqXN4xufg6nlKEX0Wy44fTDi9LBs9zmIvjnIAEpLceD6MXFxYJmCM8JRhsr1c1PB92x27SggPjrFCR/ntK7vU2fR+9Ibn14cvbBD9Sa7901ps7tz+r6nBSV0aFfzIzmX6J6fbura+BxWhlA/IB036yb9rkTn6LBDp0O6BklpaA08E0Des6lctoOWtONawrryQgEWAH5/5gfGIQijT8iP3r7wRf4kJoEmgeC/CE1vU9Nr+mabC6ldS9FWvfU7H+/eS0DooGWQjPGLcoYiGsGY3rLHaGFCy472bIiD1Frk+k+jjuN2tvKprN7jX+Msc0JW20ZmX1qwhZcqHhCn6xTXGgGTRhEIBAMsDFThrN/LMFEV7e7Tc1CH3LRaXTDMUVm3TgL2BrUP/eKu265qGrDi5/+6+8vfHIZrfXol200jVCbUvbAC2v84hD8AAEnCJSumzFQRqP5Tti2xSZnb90wacW7ttjqwIgleblgUt8guuSTVMry5hnXHXiAXbEQaA5Gvk5l1aO0pc5f1k4/i8soBdb5SPop9k3aj6B6Cxwb/1uc7bTRXKem1Azhv66ePi/Kxd+pUMvvzE7Le3eA76CBHE9yLv/FrfA/mwOwCclpPrfVIAX1aJoZTQMKLJqVP4I+22ZRUH4u7fdP6lnBrqfBEnc2zwZPiJlblTob0PNZXa9zo1F2AbfExfTZ8w239GjejhqE0Hgk8wI7TDfHaACJbL6B2pRxIUdz/bbLowEjasbrY7YbdtlgyfoZA1g4+h2Xm/W6uVoSoM7jw4zLMA3ey6Tn2bRPDaBp+e+1RrQfB4GGcOhuGgjlx8Fp7Snsoc/edyg+sZcL1kgxt8M0c+4QrVsflFLm0X+a+ccz6dpiCFU8nR4aX2u1dy3+11zKP1CGq3Oav8/jN4AaIKAJASEDtWqdAlO2qGT0vYkNBBib/b1RfaMi7aecRf6DeGQZyqTeYtH/Tw36T0Z/8Mbi/Mz6Qw3HJ2PEybo5WcEDaj1hJ9uAbTMJXDzxPPbCmm2Yje5y940tUBPHEEC3FzvvNe7igZdddO4JlX9Y+vrAqsMhlR7U+I0CIj+nL6m1yX5RGQ8CDoBAVwSEUOvLajssmX7qrehKfrLH5kxZ+eLiNdN20ueFrjNXcxqzw2o22tHAb7I+o/4XBJoHaKhBGuUla6ZNp/8Ion+Bx7ZnUYu7EkRXgq+fuuLZ0jXTfkqfHb+2zQFbDMkPJONl9Lty2ZxJK7faYrITI83XPZV0uJJmqv9oZ23udC4ZpVKmTAzmbxnp0cavkht3m+hK86AH1f9bKQX8chlNT7Ugurp59Cp9526iWX5v8qh4MyysN7tLW64GkzVkRwZxFh3MJT/vyFr0vs240Hxq86vV7NeiCeUHTDzXj2qORL9Lz1Xw2Keb3EbB1WeF5K8FLLa1Mafqze4Cbksqrh0sWHiYOpcpwH4OvRe+THD8M9jJZz29ZE3BxTQoTX3v+G2LUHqXDVEuK6yIrEzPyNgez+eNyoRzNMuTEOPpPJ5AgHw20IAPDtTm/YT8Ug9sIGAsgfSIaIgE6erLkI1bLM0QqZDpEIHZt190Dq1i9m0h2Bw6c3s61IxLZuWPHn/gpTeTbSxYezB8imXpe/P25P656qaPn9IcJ9tnqN9MICM7HbPRXT4b1Cz08648C7PQHeLeIzt91B03j6xa9vSOym1v7x/lUDNumh3+VtXTKkD4uJuNoi0QMImAFDRTUePfUwHOn3CaJ80GrdB5NqCQYhYxQBDd6RMB9p0iIET2wU+cMt6R3blTVt29eM3UyyiwMamj4+7u4/+ggN+98yevPrp+tpvtNwdtyymw/uQZF269nmaSPUDtG32TmwYj3Ew+GBlEd7PvNWorQtcZ62gQx1puWevmTly+K15tzdlYtlM99Vir6tM5bZ05auuFFACaSpOr5tOljK6D4ZTcRLZgQyR0FVUsT6SyDnWaU2D7b6AIZUmigUklarmhRLIlzZn85AfUP+rRdC6rvlKB2iiT02mmrzqfz1b7sHlPQH3OCPaqSuOu7YDj+CnJZ2lt5IcsK/z0nCNLkcRvgmo0X1+oDE/qUaqC6rsP9x4bDYgbGGWNoX2+GDxD7/Xv08CXR5vft+QWNhAwj4BIjzQwYU5cWjLhi88P884UbxUfSdkepokNvJACP2O9VWNb6xXD8q75PWNbkjYYDFqiKS9z0pYcMnD6KXlVDpmGWR8QuLTgAvbmpvfY3o8+94E3+rsw8T+uUCJ99ANGR+a818zxZ426YMjxG/+yarv60jLnSqsDnBQc+yn9+F1GD/oOxgYCINCagEplzYS4sPU+vZ7LD+ZMWuXojE3lL5fWk5RaWdubvBQIHO+L2Wh6nVxQ4x6BA93NynNCSmZaxvyGcONWjwJrFDSUy2mc+L1zJq9UM8I935qvg0opFfrTadHGP5IglXnB0E2euaSiYJQubA2F6Ibsg5QR4o9WIPBQIoHz7gQ2n9MvUrkXKXhTvKum52Ra7/MuCthrfF3TnVdtj9OSM5fRHmOD6KFw6Dt0leWfVPwUPKfrxWIaFGV7n6jMSOpcpsePaFmSK6M8eiexG0+vce+DIHi1HRl8xvwwuUDQdckTlrTumzNllTrPbN+ag+rPkuFnaRmHu2Q4eitdg32TXpue5SmDMkf8mvxQkzOwgYCRBII8XN9o0q1dYaUbCRqi4yIw646xJ4pGWt7KYmNp+YwvMRYZSdc+cdnQvPBHNGDtJrviEUEaXXKyzoBOOykvqHmHQJ6HBNTa6Cqwu+guR7PNeuihPk2PuGoYO/nsAfoI8rmSIaf2zv/xf1xYed9fXh0aaoyafPNj2NtV666h7jo60t/nXQf3QCBmApaIztb5GoxxvjxmZ5IoeFKPqmd31eTtJxO6zs4MhiLh60jfI0m4iaog4A0ByT7yomGVkpRm9l1HKVg3Uftu/Z6rpZ/9f+Y8uFDXGUvNa4nPWFwx7Rc0u+pHxMbIAE3Teu+Urt6LcwttdktgP62j+/No9qFH3BpA0xy8WUnKVi6umFpI2WXuo/ei8TPTKWB7Zbe0NS2gZqXuquFf11RevLIOcs5vfe/lC/5q143QrgSoZUno+LNL1hZcQNmIfkTns7oGNPKzuis/dT+2aEN+pqiRv/LB7fx3uJBfnTtttboecmWbN2H5bmroRxRMf5CFow/Rc4MH7pF6eg9i8J4rpw4acYjAzh59Qv0ONThk3X6zFhdu/XazXzwsHiVQeOeoPNaQ2T8QEMdRWvYTOBen0ASRoTTIdgg9zqLBVidRBh76jD1axUdP5CGLicmP31ep7jPasgVp7aABTcBsMWe/kd656Xn2W4VFPxFQgV0V4H31GZVdDpsTBNIygmzcnNFOmIbNLgio9O53fnXUG/c99sqJtfURY5e1kNz6KbmJIHoXfY1DqUqAUxBd341Hpboh7vimbr6XrJ22hlIP3uR4Y4k2IIVKi4ggeqL8UM87ApyppbE82dTMvtKKgh9SCvPfOiwgRL///yjTAnfPPXLj2OHmkjc/f/KqnyxeO+3fXLCFyVvzwIJkU6jVH3jQMprsnECE3gd/SE9L/1k86+p2bi6xI2qWMGVveSYUCT1MgY+ixKzoUouft2hFQa/u1ozXRW1rHZ/W9qKlaKQP1vmWz1pW8IY5k5Z/TGM0Wrvo+PM5k1aqbEwzS9cUXEUDhxbR+8v4gSGOQ7OxgbTaXt+igSwmM49Q2vZ7ojmHfuHWgKb2+JuD6TNK1kwpoHEgD9NxUz8TLCHZvaRfLbGBDQSMI5DP8sV2tt4c3dKkafNaYR0/8/YxBzRQpGKpFmtUf2mxGgqSH4n98qPxcrqm8fMWpu/f6Y/fn/w66K0hWTRLX+vATFow0Ku1YDwHgY4IqABvdm5mR4ewzwYCX7nhUtazd7YNlmAiXgKZ6cFz77j5ws979czYG29djcqPLrzt0ks00gMpIOA5ATWankQM8VxI5wL2vPfqyM2dH7b5iBCrbbZoszl+eem6GQNtNgpzIOA4AfqB7FkQXTk3d/LK++ifUymjInSD/U88EDiD1mFf0Hyz2HGmdjUwf9KqBynIVWyXPZftDKE1Sge73Caa64yAWiPaYiPV+8DLAHqLPKVh3uTVM+nzR2VbMHlJJyuYJoxcE5IGL327pT9M/U/nz4MDe1R/+UgA3Tsv5k5Z+UxmffrZlI5bBSFNPp+9gxhny2oWOp3DP4yzmk7Fa+lUKVQD5rwKoLeGMW/KmpWWFRhD9//far3frOfyS6Wrphr5eWwWZ6gFARBIgoBajrW3Bo9Uzp4TphEDc8ru37IhiX7ssKpF0/hV5+q6hQMWP1FXcdClDwEV4J367XH6CPKRkiEXncouvOZcH3lknitpQevM7904Mnxc70xPb4QnQ87i+q53nIxfqAsCiRJoToWbaHXn63G5wo2UmS2ORHocVkOz6YaTthtlgxIztVUHYX4iUE3OHKSHSj2m/qtHhB6JbZx/klhF+2pFIvxmChZ/YJ9FCmJwWWbx4JD5U1bf4sR6zzZq7dLUvCmrf0YFnBpk0GXbyR4ULDo+WRuobwMBiy3KqEsfPXfSqtdtsGarCQrq3003slQw19jAozyyLrqtXJw2trhi+jBqw+g0cjSD6JdqUEjzUgFOI+vWflFReQ0NDPkmpZW/gQqHuq2AAkkRCNTl3UIGdF3mqTvf9tNstS+pwHV3Bd08rgajRMKcgtD8H262a2dbtFTJXXbagy0QAAEQAAFfEQjTdXvRsvs3lzvhlUU3cbW9MKGA0R5yOpVHTzjR5761OeSi09iYKcN9658XjvXul8um3/ZlL5pGm+0I0ICigbfNHcFzsoI6pIZppy6Wl/K62d8bpe33TSweoAwI2EWAgtMWpVTSOiArGV9ll7+x2GmapcGl1ss+SCFnxeILyoBADARqaTbQahUkkFwW0QzS8wf2OJQ2b8oqTo88evShx/HN/9XzpmPvV44IZKSlH6ceLC1wIgWRT296WHyExfmFdNN2NA2Q/rJ6UJB5cpNtbj0Rgx5Hi6hUyBa3VFpnOwIPlbS26BVqlquu657HC5P682uUZc+4gZJciEvj9RXlbSUQoRtFX5s3adXNKsBnq2Ubjc2bvPJh+qz7tY0mXTVFiS+Ny6bFmaCBSyZvsljN4NXRA8quUkrfsZNImxrwhs0BAhs25Adp2M33HTDthsmDtJTdFWo5Gzcai7cNdT02sEcVDYCTz8ZbV4/y/JrmbG56yIEKEAABEAABXQjUcimml/1us2MD2IIUoe6ni7ftdfTMStf2x2B7rXitB4Evzx/Ddr27h+16x+TM13qwVCqu+/5XWEZ2uj6CUlyJCqTTjPQ37vlzZUaoMZpjGI4sEUm/iTT/xjDdkAsCthM4a+S2y6N6r6t4cFDOoWdsd7wbgxREeoIzpu/6qZxdqNIX+yVw10134LD9BPZQYHuFGqBC62M+m0h6z+bsEEYOppszeWVlSUXB7bQo2x8SRLufZrTe9f7LF/w/N7NkJKg1rmoq9TWtHf9jSl1bEldFjwtTYBRBdO/6gAakiFnzp+o107EzHB+8POI/Tx/1ykiaAXlNZ2X03c+H6KvtWGUqALmrht147BFD9lCWERokpTJ0aLup9O6la6ddJgX7PxLZX1uhhgr7tLbXLBq8YuJa6BEaYFE4b/KK7TqjV9kdytYXzghFGv9Ji+OerbPWjrQJJu6g/VoPRu9IN/aBAAiAAAg4Q4AGFe/mkk9buvCFl5xp4YhVi74085xsIBnbebnpdcnUR93UIxAIBljRnddgfXQbun7SLVewE884wQZLMGEnAbVG+vduGPE22QzbadcVW5b4mivtoBEQ0JxA1Ipq/cOfS7nWi/SZlhV+mrrOjpmqjp0BQobnOWYchv1JgNafpB92N9FM80EqFSzNrns6kQC6H+CoGakqDXvcvqh01WnpQ6j+I34LoLewULMb6fmWltdm/OeDS9bPGGCGVl+pDNH76FrdUgV3RVi9by0r+A0qo/OyLZ250J8CTn06O6jb/l21uWqZBTOzf9H3ZUZdxld1Y9qRHrV8AmV/mUbHTDynO3JJm32U+WmBNmLiEELXel9XAyziqOJZUTV4z+KBiSRAZX81a6NACa49zOoyqAUBEAABBwlssdKtC5ctfN7RALrST9d9TNtppif0zq53EDJM+5SAWh99zk8ns7SMoE89dN4tlRYf66A7zznRFnpkp4+6YdqwTYnW964eP2vWgjGjvWsfLYOA9wSaUhRKXui9ks4VUAroJzs/6tyRuROfotSYUu91+jgvco4ALPuKAAUDaKbo9PdfHnHe/KkrH/NiYIqOPI8ESPiOWLSpFOc023lCU7pquuEbSx2Ty9Bn732m6ZeR6PmmaTZcL60tLmbRgBytlz/piLFaj5fWk/6vjo7pvi8cDp+hu8aj+ji/9uhzs57UCm5N13lpgvY4j6TsFnNpP70vsdlBYMmagovpHvWFdthy1QYNEKRrvT+72maSjanPZBqQZeIkhwwWjtySpPuoDgIgAAIgYDYBQfcKHszKy8xfeu+mz9xwRa03rm0QPSMjEHUDAtrwHwE1g3rWj65BID2Brj33sjPY+JvH4odgAuzcrDLk1N75w4f2rXSzTTvaEha73g47sAECphIwYIZQbaTH4fVe8ZXS8iSAH7O/lPaQUnieF3N5FExFAoKWJXgwknNolJop6teZ04l2rAqQWFbTsg1dZ52g2edWoPFcNXM/0bZMqzcop5rS/Ru2NjpnRqW6Nu2cOFav/G+TZqC3159el/ZH2re//X7dX0cNSXncvJZ0ge48O9Ynf3PDpBXvdnxM373q/UiDQ+7QV6FZyqQU3zFLcZPa/WEr49sG6mZqQBZlIFOZcAzb+NebPu8MUw25IAACIAACthDYS7PCJ5U98MKCx4o3NthiMQYjWgfRszMxkziGPkSRTggMHj6ITflGfidHsbsjAoOHD2QFC65Sh9RnAzbNCcwcf+bpvXpm7NVcZnt5s/OL8/Hh3p4KXqcMAS7YLM2d/T8vU01HgmmriU9EZ0ZCYDCQzv3jsbb9tB7mV+ZOWbXAy/eRxwy6bX7OpJVbKe3ptzopWE0BiXlq9vmR7BSdlPLhbpWtgHO2zCjXhDzXKL0mi+Vs9fuVI39usgtHZhnL/zHOBy6NGCzSPFCzt3F8mfwg0qP6HvN0H1FMy3HcR5mUnjVVvy66S9ddkys5n66Lnlh10DXL7TdPLN8Xa3ndyqWnZ6j0+aalde/f/HmnG07oAQEQAAEQcI5A0+xzkR4e8vgDm12f+KN1EN055rCcKgTOu/Isptb2xtY9gYFD+rGiOyYwta48NlMI8Nxb5w5XP9iMyRxAs/OOP+FQQ74phKETBOwksGhDfqbuN4foRtByO32O19aRm1BS6+UqOJNI6R5vx6ZA+SOpx60rTFkP0+suUWlPj5n9RCnwLR4c0bw+uNcSPWk/IKwKTxpOsNEAt05NsCqqxUmAZlz8tx8yW/BAUKU8Nua3i+omGtxydpzd5VXxSV41nFy78numDzyzeNrNxKDrDCvJQfJ9bRHJmEFO5hjlKGebTL9mUeuj08DGHxnF/YjY+QZqhmQQAAEQAIHECLzChDVGzT4vv6fyUGImkquFIHpy/FDbAAJqbe/CH4xHavcu+mrIRaeyG39RwDKytV3doQv1KX3IykwPnnv1JSc/bxiFKYbphVwQsIVAoDZXnfs63xwKhcPM8wCOtLwN5Hff2Xxw6aqpY7svhxKpQ0B+EODB/PmTV2xPHZ+T9zS9IeMbtPYprR1Pc/iYXJtRlz56zuQnP0jesrkWBvQ8qAYR1ZriAU0HONUUrcbr5MwXS93Nnbh8F/WF1oPljjlXpDzlmH067pBsvI6yutFUafISBS2+qe8uGoh6V8tr/I+fAA1WmRd/LW9r0MA3X/T5oJ5VpS3XY94SjaN1yactWlHQK44aKAoCIAACIGAaAc7eoNGsRcPyJly0bOHzL3kpXwXRtZ12mpURpEkd2EAgeQJnX3o61kjvBOOIq4axwjvGYwZ6J3xM2D3u4pPOzckKHjBBq9JIs9Gn00wa9f2DDQRSigCleZ6rs8MW58/dNH1lldcaAyywijToPUvN4piN7vWJok/7B2kG2tWpHvxNpDtUamfJrOsogP6nQT2qC46kek7Ekn/qqJTuNKTgVXM8kieboxVKdSEgLfaELlpi08H7xVbOu1KLK6YPo19Zg71TkFjLkktj07gf47FlmbUcxzEOeLejdN2MgfTdl++dgvhbpt9Nf7t+6gpfpPFX1x50LVYcPwVPa2QEAqzAUwVoHARAAARAwBkCLcHz3AnDl92/uVyHbFwqiKFtyqH6UIRiLdhAwB4Cao10Nds6OzfTHoM+sPKlOaPZ1G+PQwDd+L7kveZPHfqGQW4MevPwUyMM0gupIJA0gbL1hX1oqqXWM4Qoaq3FTe05k5Z/TKxeSRq6gwZolGfRhg35QQebgGkzCAjG5TwE0BPvLDV7f/6U1bccCR4nbsdPNWnAldaff+1YZ5SVFfZotw8vQaBrAtL6W9cFtDvaV/cBwBaTE7Wj1q0gvmNQTvWKbouhgO8JSCFUti6jBtnLqPiZnzpm/uTV5TSQYZtJPnFLTjdJL7SCAAiAAAh0SUBIyf5G99qmDtMoeN6iWF2k0Gh3bCCQGgROPOME9vXfzWKDh9NA1xTe0jKCTSnuL79uVApT8Jfrg/rnXnbqibnGpJENSP5lf/UAvAGBrgk0NIbVj/yMrkt5elSwoLXGUwWtGqeUjk+2eqnj0/6f1vS6Ukdh0OQeAcnZr+dNXr3WvRbRUioQEBZ73yQ/wznR40zSC63eE2he+mK/90piVhA8+eI3tT7PaRbpFTF7o0tBzh7AACpdOsNjHZJd57GC+JqX7OW501abtSxFDB5Kaf0uhmL6FKEB6hjIp093QAkIgAAIJEOAAujPUFalRVZaoFKHmeftfbEout/Qfqcur+saEN/XpS/8pKNn72w2r3iqULOwU3EbOKQfu+W+QqZS3GPzFQHr+kln1ZnikRDsKlO0QicI2EGAgsLX22HHORvy+XkTlu92zn58lgW3VsVXw/3S0pJz3G8VLWpDgNbyHpRzqFgbPRDiGwJciE/Mckb0Nksv1GpBgLPntdARo4igiPSNsajrxZpmyUt2uesNJ9dgLbdCS5Izgdp+INCUrcuwQSCS8Yf8wL69D9GeVUtpn0kDnDIaskPXtPcDr0EABEAABMwjQPdMr+Zc/lWGo5/OvH30O7NuH/Pw7NsvmZBfrEcGSDUTvVFXrKFQVNv12nVlBl0xE7DULOx5xVNSKr37mCnDm1La9z0J97piPlMMKtgjO32UKbPR6cvxshuL87G2gkHnF6QmTqBk/YwBlB5P6xlCnFsrE/fQ/ppNs9QoSGm/ZRstClawaAM+x2wkapgpeQdm0BnWZYbI5YLvM0Rqk0wZETkm6YVWPQjQZI7X9VASm4qgYCfEVtL9UmdetPV8atWoH/hcyhVzJz5V7T4ttKgbgYZISA2uN2mJpP3NwWbdUCat56ZxGxsoy9IfkzbkogHOOYLoLvJGUyAAAiDgDgF+Fv1W+Lpg8ql+hxr2zvru6D8X3T7my14G1C1adDzsjvPxt1JXHzbpQip+B1HDcwJqnfRbH57LVHDZz1u/U49jN/1yOht/81isf+7njibfCsefYcrNiKyGQ3UX+bw74B4INBGQ0WghPdH6moazgHZrUtJFs3aa2p3SvYM1PSe024eXKUGA/wNp3FOioz1xkgetWk8aTrBRiwe0/n5L0C1Uc5iAxfjbDjdhq/mIFdU2iB7VfKBmhx3Brcc63I+dqUdAsqtNcpruof9VBZtN0hyP1gAP/InKi3jqeFlWCvZlL9tH2yAAAiAAAo4T6CMlv5m+f/92QlXok6LbxvzX7O+Ncj1DFP12YTWOu5pgAwcOhbISrIpqIBAzgYzs9Kbg8n/85jqmUp37aVNrn6u09cq3k8+miZDYfE+gd27mRf37Zn1ohKPcutQInRAJAkkS4EL3VO6scs7kJz9I0k3bqwcY1z2ITks28dm2Ow6D+hPgbJn+IqHQVAIRxo1ZnkcxjlgCmYVMPdk81M0le9fD5uNumjPL9Zt1sYq0otKogck0SHLne5UXbIjVP5TzNwG6KW7WMm9Clvm5R+ZMWv4x9ckWU3wkrYP+snb6WabohU4QAAEQAIHECVC69wGU2bZYiLRPVLr3wgVjhyRuLb6aFpNM23RxBw/X58bnDkqDQOIETjzjBPbVu68Vk265gvXuZ/app4LnI64axr5Ds+xV2vpAECsjJH5mGFfTmn7V6TtNUC0lu9gEndAIAskQWFJx7WCqr/nNTbkmGR+dqjtn8spKdaPVKfu22JV8UllZYQ9bbMEICIAACBCBoLQiJoHgTGImukkdpolWkWbp/f3ejhMFarLb7dLmpeRc8+vMtqjoBmgFreNuzEzXturxyk4CR34ncfVbyYitaQDIqyM3GyE2CZHCYmptdGM2S8qrjBELoSAAAiAAAnYQyKLv5K9bVvT1prXTF4x2fFasWhN9vx3KnbBxsLpR25RZTvgLm1oQsC685lz2rf+ZzWbc9mXjguktwfNb7itkU789jvXsre1vfS06268iBvXvqdbF03apjhbu9IU3uuU5/oOAXwkIGZ5HvqnrLW03yQPazqggcLrPRs9pzA4XaNu5EAYCIAACIAACGhIYmHFATeYwJ5AqZZqGGFnpumvU6P8zddTWhaa1XRzDoRQiEBXRK0xyV/0uSYUBIDwQKKd+MebzmQuBDIcmvZGgFQRAAATsI5CmgunC4u+rNO83Fuc7liFNrYn+uX267bUUaozmMCar7LUKayDQPQE1c/u8K89it/7vXKGC6WpNcZ237NzMpnXd1cxzFTzve1JvneVCm+MEeK/hQ/u+5ngzSTZA3z8nzbpj7IlJmkF1ENCbAOdFmgvcMX/yiu26arSktVxXbS26JJOFLc/xHwRAAARAAARAoHsC48ZtVBkXDnVfUo8S9F2foYeStiqsSOYI2qP1YM22illtJKf6mXb78DJFCXBLGJaZjq9Oha6aN2H5bvLzJVN8lZwhiG5KZ0EnCIAACDhDIEelea8/FHpz1u0XX+5EE0Eh2AGu8SV3OCL3pQV5Lyech00QiIGApYLp6rH/04Ns++YP2Kt/384O7q2OoaqzRdSs88HnD2Tn5w9hQy4+FSnbncVtnPUrRg1s2Pa2tolGjvIU4ejZ9OKzozvwBAR8RGDJ2oILhJDqHNd4k31L1kx7WVeBURalNME05EbnTbLxZesL+xRNKD+gs0xoAwEQAAEQAAG9CHD6sSKNGP0tGXdsZksyfRJh8gzNr5LauEeDETbeNG5jQ5udeJG6BCQ3KYgeCveo2pQqnUWB6b9zaUrmQD740XWFx988sVxlOMEGAiAAAiCQsgTkYMmsjUW3j/lNdl5m8WPF9l1zBrkl/63zzcmausYDvWmWLTYQ8JqAmt2t1henh/hg205rR+Un7MPXd7G9H7mXzEHNOB80pD87Y8TJTYH9jOx0r7GgfU0JDOibPTIjPVB7JKOHpiJJFq2jeQ79+7u+CqEMBBInEBVypgE3NtXN61GJe+l0TQMIMpYRioSvIxKPOE0D9kEABEAABEDAPwREnc73olpzpnkn2a1f6/Kc7ucNZZTH0pTNYvxfpmiFTmcJLNpAKVdr2HBnW7HTOt+USgNALMk30KCXu+wk6KStNBFSAzKwVISTkGEbBEAABMwgoDKv31l/qOFqyn47Zem9m2yZuBdk3PqMSX2vuv99oL4eQXQzztAUUmkNHj6IqYfaDh+sYx+9tosC6p+yz97/Nzuw+xALh1R2uuS33v1yWd+Bvdmgof3Z6RcMYieecYJal0jj3BHJ+wwLthHIGjq4dyXNRtc4OKZum/GhtnkMQyCgGQEaJFJkys1hzdCZJ0eymSQaQXTzeg6KQQAEQAAEPCPA7fnR7IJ+yfVcE51cP8sF9+1rQsh/2mcMlkwmkF7T63zBJGWcMmUTz5mi1A6datZ9sCYvRLa0XMqivY9c8vNoH4Lo7cHgNQiAAAikLoGRolG8PHPBpdOWLXw+6SVKgizKP2KWvkH09z6uyhxyqhEZvlL3lExxz3v2zm6aFa5SvjdvglK/W9X7a9iBzw6xzymoHqprpMB6mNUdbmCNDeGjQfacvCyWlh5kKjV7WkYa690/lx13Yi/W64SeTeuwq7XZ220IoLcDgpedE7hgyPGHdU/pTjekNE913TlfHAGBrgiUrpo6llJ/Du6qDI75iYC8omT9jAHNawj6yTH4AgIgAAIgAAKOEKBZIo363olq5zLXM507zUIf0k6pzi9D4dzqSp0FQpt7BKKSnU3rlxqzBWRgozFibRCqZt2XrJn6Ag0Iv9IGc46boPtKIxxvBA2AAAiAAAgYRYBzOYBx+ezM715yw7L7N5cnIz5oBUMfCpGWjA1H676/q6qfow3AOAjYT8BSqd/Vo2W2uv1NwCIIdE/glBN79u2+lLclpOSne6sArYOAMwRkgM0xKb2mMxRSympQRqOF5PGDKeU1nAUBEAABEACBBAlQquBGUzL28Kh+M9E3bMgP7qphJv2W2ppK6bATfFukTDVaiuAcg34rCRFseDVlOqfFUc5foj4yIohO3yXntsjGfxAAARAAARBoRSCLsrAvLbrtkmDZ7zY/3mp/XE+tx++r3E81auOq5WLhPfvrT2FMVrnYJJoCARAAAV8QyEwPnq3WRdfZGRp8PiC/ON+gNG4604Q2XQiom5pMchVQxZZCBLhg16eQu3AVBEAABEAABEDAQwKf1PVWGY+M+R1Fv/u2eIgLTWtGwGLcoPXQ5UdzJz5VrRlCx+XQ0nvbHG/ErgYkO6vpN7hd9mAHBEAABEDATwQsmpVeSjPSE75PeyQ1NGcfakzFqqkLv6+xPkgDARAAAV0JWLQu+tu6imvWZR1fUzdIc42QBwJxEdhZm3cVVdA+E0RcTqFwLARGL6m4Fin8YyGFMiAAAiAAAiAAAkkRsGT0zKQMuFxZcv6my02iOY0JCCnMyaLA2csao3RMmmDcpOUXgs0DixzjAcMgAAIgAAJGE7BoRvqSWbddPCkRL44E0SX7KJHKbtV5b+ehGrfaQjsgAAIg4CcCg/r31P7zMxBlA/3EHL6AgCXkXFBITQJSRopS03N4DQIgAAIgAAIg4CYBzqyhbraXbFsBwd9J1gbq+4PAkRnD/GRjvJHsLWO02ih0UM7BHWRO68yGrd3lUpzW+jWegwAIgAAIgEA7AmmSW8tm337ROe32d/uyKYjOpXy925IeFnjno4M9PGweTYMACICAsQQG9cuhzHl6b5IH+uutEOpAIHYCizbkZ9JMm6mx10BJPxGQnM3zkz/wBQRAAARAAARAQE8CtKa8Ub+hgulBre876tnL/lT1We1xKoBuzFIEdH2fkkH0ceM2Rmh51fdMOQsp/TwygpnSWdAJAv4kECa3Dhr0qPdnN3TrVY5ggfLCO0fldVuyVYGmixbBrNc5k6126/X0rR0HzmXjmerYLL2UQQ0IgAAI6E2gd25mjt4KSZ2QcX1xae8PBKY0gUBt7hQCkJvSEFLZecnOLl077by5k1bhRnEqnwfwHQRAAARAAAScJsDZcRrfxmvv/Z6iCeUH2u/E69QkIGXUqBnDAWl9nJo9pbzmH9AfQ9avlwiip+6JCs9BQAcCTy974AV1P9Co7cbi/MzGhkhWuF6ewAORE0n8SZbkJ1Ok+AIaSEWf//wM2nckm7lRnnUpdpjVmPZocXFxIT1ElyWbDzYF0QM88hpF4GMp70mZcFRk1NQ1VvbITh/liQA0CgIgAAKGEsjKTOunvXTJe2uvEQJBIEYCXPLZMRZFMZ8SEJLNJNcQRPdp/8Kt1CGgMovkhI7PDrFohhXhWVEmMgJMZsuoyGSWlSm4pN/S0vZBU1EeGcD1Hd+eOicAPAUB3QkINRNd+6RjRyhy9r7uOKHPRQKcDTBoAAgLBdI+dJGOXk2p964h1yS86TNRL3xQAwIgAAK6E3iseGMDaVSPg/Q4Zumded8/PycSzbk8yuQ1lPFjMv3+9cuApRlvVz31DfL5IXp0uzUF0Xfn5bzT71CD1jO9X9vxec2lwwd06xAKgAAIgAAIfEEgYHE1ikzrjXOBILrWPQRxsRJYtKKgF11QToy1PMr5kwAtk6QGUvzEn97BKxDwBwH1eZ1miXNEgJ3IOFdB60Hq5iutkUavKTAl2UBWw3JDrLHJYTU8XYWqmoapW+qZpGLqkAMBLENuVivvsYEACHhIQPLjnfgIcsYj+akzdmHVUAL6D/T/AmztzRPL933xMtWeqZnoZlyYNF3DpVr3wF8QAAEQcJhAyW9fq6Um1jc/FhR+b/SogGTflJKrySP6Z7/tgg8txfnrwgWXrSlf+K9PuijWdKgpiL6xeGNk5u1j3qU92qZoefmNPScjiN5dd+I4CIAACBxDwEoLWCGV0eOYI5rsEJwb/aWrCUbI0IBAIMAKSIa27zUNEKWIBD54yZqCi+dMWfliijgMN0FAWwJqNnl6ba9zooKdxy15jsX48KiUQ2kps0EUBj8SCG++N0w/oskPemHGvWJtmUMYCICAOwRoneZ+DgzjcUg87/bmpEMNw6yGBCRTWRQM2Tj72BClDskU9N415JNGDYLEBgIgAAIg4CiB8vu2VFIDX6U1xb/LQ2m30U/oH9BrU+/r92RW5H9Jf7eToZqC6Ios57KSRhBoG0Tfs7/+tHBE7EgLWmcqvdhAAARAAARiI5CebtWG6/UNoluMpcfmCUqBgN4EAha7nlJ5YwMBisHJOYQBQXScCyDgMoGy9YV9QuGGKzizxtH78EpWw88RTAZb4uP03JRbwS6TQ3MgAAKmEaCwVh9TNFPAf6cpWqHTeQJHMr8YEpiVfI/zRPRtwWLWHnXtZMQmaZkAbCAAAiAAAq4QKL+n8hA19LPZC0b/rwywX1Fc+UZ6Tbf4zdpI8DVF3x09t+z+LaVdKT/qmBR8c1cFdTj25vuff6aDDmgAARAAAZMIZGYGVeoVfTcuEUTXt3egLEYCJetnDBBSjouxOIr5nADdairasCH/6GBVn7sL90DAMwJlZYU9StZMKShdM21hyZqpW0PhRkq5aq2g9+CtNExcDRDH+9Cz3kHDIAACThFQn31k25hZP1yo2azYQOAIAcGZOcu5cbE/tfstoNbINWXLKy4uPhrnMEU0dPqfwEa2Eeel/7s5ZT18fOGWvUvv3/JV+v2tMnMeMBKE5HffWJyf2ZX2o29ii0e1D6I/s2Xn4K6cwTEQAAEQAIFjCWRnBBuO3avPHimtNH3UQAkIJEZARqOFVBPBmsTw+bFW/09rel3pR8fgEwh4TUClaC+pmDqpdPXUklBWI80QaxM0P/r71mudaB8EQAAEnCIQzhYnOGXbCbtccBrghA0EjhCgOehqEIgp2+emCHVCZ1qd9W8n7Dpk0zrj4i0mnVsOYYBZ3QgMqjlg1JJ/lLcrpBtD6NGfQNkDL6wJRqQaxL5Nf7VtFdJ1yUkN1Q0L2u5t++roTYYheZO20yGtRwt8frBhUENj5I22LuAVCIAACICA0QQ4JX7BBgKGE+CCXW+4C5BvMwHBxEybTcIcCKQsgdJ11+SWVhTMLamYtipYk1fFJK+gNcznEhBjZmKmbOfBcRAAAQcIRM2Zyau8D/JqByDApLEEuDGBTkpPq9LVpuxWVFReQ84bFFDLyk3ZzoLj2hKIyLQsbcV1IIyWYAl3sBu7QKBbAkt+v2WXSA+rySRbui2sWQEp5Y9mf29U385kHQ2iU8oTQYWe76ygLvs3b91TpYsW6AABEAABEwjUhSJdpiTx2gfOpNYz5b3mg/b1J7Ck4lqVKeci/ZVCoZsEOOPXIaW7m8TRlh8JlK6ddh7NOv+DjKZ/Rj9sS2hZzqnkp1GzOfzYL/AJBEDAWwIyKrT+fXcMHW5USuhj5GOH3QS4MYFOi/MUT+fe1PfGpHQXQva0+2yFPRBIlkAkkpWdrA1X63MZdbU9NOYrAmqt9PRA3VXk1CtmOcbzZDT43c40Hw2iqwKcs391VlCX/c9VfjqCMYlAui4dAh0gAALaE2hoiOg9S0vyRu0hQiAIdEFAykgRHW5zTdVFcRxKHQK9d9Xmjk8dd+EpCNhDQA0+WVwxtbBkzbTnpGCv0azzb5Blva9l7HEdVkAABEAgJgIWDxi1hFB6TQD38GLq2VQpZE6gU3CJGZlM1plyZgakOeeWKUyh0w4C0qiZ6JxZBmWfsKN/YMNuAiW/fa2WpwWmUDaX3XbbdtIeZWH45rzvn9/hfYc2N3xl1PqHk0LssB1qjObs3HP4NTtswQYIgAAIpAKBxkbR4ReALr5TGhQE0XXpDOhIiABdaM1LqCIqpQKB+angJHwEATsIlJUV9ihdM+2Hu2rydnLJy8jm5XbYhQ0QAAEQ8BuBiGXUTPRQc0pov3UD/EmcgDGDQOh6BFnzGDdmIIEUIi3x0xI1QcAZAlYgbFT2GBrEbMx73pkeg1U7CCy9d9NnFo+qJQ5V9nNDNp7XGM36Wkdi2wTRh/X+SqVkbF9HBXXaV/Z/751GegzqAJ3oQQsIgECKERDhqNA67aklZW2K9Qnc9REBlWqY0guf7SOX4IqdBCSfpAKDdpqELRDwG4FFG/IzF6+ddmsoq3EH/Rb9NfnX328+wh8QAAEQsJMALYdlTBCS/DZmFqudfQRb/iBAwSQM+Ddo+T3TsnT4410CL7ojwKOWUUF0ZolD3fmE4yAQC4GlD7z4T8n5/bGU1aaM5N+hZc/bxMyVtjY71LrotH7jem1EdyLk84MNgw5WN7zUyWHsBgEQAAEQaCYQFfIz3WFIaRmzxpbuLKHPfQJCsOvdbxUtGkQgpyE7dI1BeiEVBFwjoNK2l1QU3BKoyXuXC7aQGkbw3DX6aAgEQMBoAlKaNNsSa6safbI5Ij7dEasOGLUsFnHArFkmpTkz0Sn9vkkDjMw6D6A2YQLCYickXNmDipRpsdqDZtGkTwlkWLXF5NpHxrjH2envHHr6K+31tgmiq4NSsqfaF9LxdcXGj8waxaMjRGgCARDwPYH6hvBe3Z2kC7TPddcIfSDQGQGaCaTWQ8cGAp0SoAGqczs9iAMgkKIEStcUXLWrptdb9OPzj5yxQSmKAW6DAAiAQEIEaFaPMUF0yjBSn5CTqAQCGhAQTGBtYG7OexhBdA3eNJBwDAGLyQHH7NR5B5cHdJYHbWYRUOujM87vMEk1pT8/ZrLUMUH0QKDxb+SU9qnSt394YHhNXWOlSR0ArSAAAiDgNgHK2mFCqnRcoLl9YqA9WwiUrpo6ljE+2BZjMOJfApKNL1tf2Me/DsIzEIidgHovLF4z9RHJ5P/R8O0zY6+JkiAAAiAAAi0ELGZpvVxXi071nwacYm3V1kDwXBEIAINJBCipvSGbYUtdGEIVMpMlIAQ/JVkbrtaPBpDO3VXg/m9sWO74J+mC8A1zPJUz5n3//JzWeo8Joj9+X+V+KrC5dSFdn/917bvZumqDLhAAARDQgcDOvbU0+F/vzeJRzETXu4ugrhMCMsDmdHIIu0GgNYGMhsbw9NY78BwEUpFAaUXB3FC48R3KzvAf5P8xv0NTkQl8BgEQAIFECNByQsYE0enjHuncE+lk1AEBEAABEPAFASsgTVqySpyTN77KF+DhhDYE1BLiUvBfaSOoeyE5oUjO1NbFOrl5IctbF9L1+UefVQ/DbHRdewe6QAAEdCCwc8/hHjro6EpDNMB2dXUcx0BARwJqLV8mOQKjOnaOhpo4PzYdlIYyIQkEHCGgZp+XrJm6TkpZQg30daQRGAUBEACBFCLALWbMmtKMYyZ6Cp2acBUEQAAEQKAdAZqJbszSVVLyvSrg2c4FvASBpAlk98pYQbP89iVtyCUDnMs293s7DKLztKAKohvxhnl0xZsqPaYRWl3qYzQDAiAAAi0ExHsfV53W8kLT/2Jfj+ydmmqDLBDolMDO2ryr6KBJI4o79QUH3CAg80vWzzBrLTQ3sKAN3xNYUlEwKhQOvUQJfa/xvbNwEARAAARAAARAIBYCyE4QCyVdynAe1EVKdzok45HuyuA4CLhNgAbUD3S7zUTbo8DhJ4nWRT0Q6IrAY8UbG+j4412V0ekYBfzzaUDJ0dj50SetRS69d9NnNFr0X6336fp8z/7603buqTZCq64MoQsEQMCfBMIR8X5tfUT3dXg/3Vi8ET90/HkK+tor+iE009cOwjm7CVgyGi202yjsgYDOBEoqCm4RUm6iAPpgnXVCGwiAAAiAAAiAgKsEjAmiW8wyaOkEh/rQoOUjLIkgukNnAcwmSODG4vxMqnpGgtU9qMb3eNAomkwRAlxYpaa4yhk7fnv1uvNa9HYYRFcHuWBlLYV0/7949dvnMiaxXoPuHQV9IAACrhL4YNehT11tMJHGuPwwkWqoAwJeEli0gX4ICXatlxrQtnkELMFmmacaikEgfgJquYvS1VNLmJR/pNq4+Rw/QtQAARAAARAAAT8TCJninBAsaIpWx3RymeaYbbsNC6FmOmIDAW0I1FfXDSExxryHOJO7tYEHIb4jMKz3VypNSunOooGvtHRC50F0yZ6gQuGWgjr/VzMtn9+2Z5vOGqENBEAABNwmsPWdfT3dbjPe9mhk13vx1kF5EPCaQKA2dwppyPVaB9o3iwD9WBi9pOJazMg1q9ugNk4CZWWFPXbV5K6WnM+NsyqKgwAIgAAIxEhACtYYY1Hvi0kW8F4EFOhEgK6JjbjXrJhxi6XrxM4bLVzNpDVi45ZlzLllBFCITJqAlNYFSRtx0YDkbIeLzaGpFCNA6dEFt+QzxrhtsbEtWjsNoj++cMteulxY11JQ9/8VGz+8vKEx8obuOqEPBEAABFwiUP/2BweHutRWws1IyV5LuDIqgoBHBLjksz1qGs2aTcCSMlJktgtQDwKdE1AB9FB243r6DYn1zzvHhCMgAAIgkDQBy2LGzOSlrJHGzMBLumNgICYCNNPRmECn5NKYAHJM8BMqZNB72DJogFFCfYFKBhIYaZJmLsQ7JumFVvMIyKj1N3NUy+EtWjsNoqsCXEb/1FLQgP/WI+Wv55DOegO0QiIIgAAIOErgYHXDa6HGqPpM1HqTjL+ptUCIA4F2BErXXaNmoE9stxsvQSAmApJJpHSPiRQKmUZALXMRygqvYvKL0dqm+QC9IAACIGAKAcGEMUF0+r2HILopJ5Z7Og+711RyLdEa2zh/Gc9OjqKLtWWg2sXW0BQIdEuAsm8eXVO528IaFIjyAILoGvSDnyVwK1ppkH8nF945Kk/p7XJtl6G9Jj61/dD6nVRukAnO7dlff9rz23Y/e+nwAVeaoBcaQQAEQMApAs+/upuypOm/WWmBt/RXCYUg8AUBEcmYwbnUfo1fmjVRlBnMMCdN0heIE37WEG7cSj9SNb9m5cMXV0wfNn/yiu0JO4qKIKAZAUrLZgVrX/kLzTb8kmbSIAcEQAAEfEmArnfqTHGMtGaZohU6XSNgTBBdSNnXNSr6NtRbX2ltlaUFraq2e/AKBLwjkF+cH2SH6mkmOn0TmrGF9+VlfGSGVKg0lcDe3Ow3+x1qUBlpTBikZgUaA+eT1n92GURXeeqLbhvzZ85ZsSkdo9K6n3/mcZU9stNHmaIZOkEABEDAXgKy6sXX946w16Yj1vYuvXfTZ45YhlEQcIhAwGLXC/2HqFRHc6rXFI3b2OAQBi3Nlq6ZtoK65lYtxbURJebQy5+02YUXIGAwgcGjXv0lkxxLFRjch5AOAiBgFgEurQbKbmOKaKz70goJAABAAElEQVSJbkpPuafTmCA6DZ5umoHmHhq9Wmpaqoc1aj+AvIXa8Rn7MBO9BQb+e07g+KrGixjnJn2GvLexeGPEc3AQ4GsC6hybefsYNaFuuAmOSmkNIZ1dB9GVI1IGF3Ee+U962mXqd1VWk836w9LXB95x80gafcZ7aaIJMkAABEDANQI79xx+LRwVV7jWYMIN8RcSroqKIOABgZL1MwaIcHScB03H1ySX629KsQB6EyAhy5jFtQ+icylnk14E0eM7q1FaUwIla6YUkLQ7NJWXrCyVLvkNes9ulxbfIznbST+Od6sZoCqARSleI4LLLgelJyJAsmhP+um9IpG6qAMCIJAaBNTnT5QbE0SnzzRsINCKAGeHzRkDwo5rpTzlnoZzoscxYYzbtePGIQBoTG+lgFDOxFeMcpOzV43SC7EmE3iXxJsRRGfsJAW62x/95Qv/9QmNDlhJZWeoCiZsVYdD/ZY9vaNy5vizMBvdhA6DRhAAAVsJVDz70QBbDTpkjEZ1b3bINMyCgCMEZDRaSMGTbq+dHGk8DqN0S/WJOIr7puh7r47cfPqoV/eQQ/31dooPXrKm4OI5U1a+qLdOqAOBrgmUrpsxkD4XH6VSpgy27tohxmppCPlzFDBfTw5tOCn70HYvbsaWrS/sEwo3dqcVx0EABFKYAC3bU2+Q+8HSddfkzp34FGaIGtRpTkrlkgamOdmAnballdrp3KUwxn86pw7Y2fWwBQLJEqDMzlcna8PV+lLi/oSrwFO3Mfq8VgPTjdgsfuT+Ymw3goV1N7OEMUF01QPb3t4/6oIhx28ccmrvfCN6BCJBAARAwAYCB6sbtuzcUzPaBlPOm5DieecbQQsgYB8BmvBjQrriUGZdxlP2eW2OJbUMUUnF1BWUVvobuqumFKwqpTt+pOreUdDXJQEZjTxCmb+MWSezc2fks5Sm7bHMhrQniorKazovhyMgAAIgoAkBizUaNDuUcZmlvisQRNfk9NFAxm4NNMQoQaT0THTBBA1ONiPUQSqxVGCMZzWKOU+g8M5RefRNfbHzLdnXAmfyFfuswRIIdE6AAtOfSUNG05HMgcqTmGYNLFv4/EtUdlPnrut55C+rtl9RU9dYqac6qAIBEAAB+wlUbPwo036rjlisTws04ALNEbQw6gSBJWtnnEJpBy9xwratNjl7OpWDQJRi+UlbeTpkjC7EiyjoH9N1uEMSYBYEkiKweHXBjXRT9ZqkjHhbWdA94dUW46PnTVmdP3/qysdS+bPT265A6yAAAnETkAGzAtIGzWaNuy9QIW4CQvJ9cVfyrAI/2bOmtWjYMsd/zvZqgQwiQIAIWOF0lco9zSAYAvdoDeotw6UKyVQGSVO245XQmG/eScl/a4pnrXRa9/3l1aHhiNjRah+eggAIgIAvCTQ0Rt7Y/uEBI9YUoQ54oeS3r1HaVGwgYAYBKaJqHeuYr5u88koKntLr6J7Uo+pZYr/fK/5xtNv/jFFbx8VRHkVBQBsCZWWFPWhJll9rIyhuIXwHZ/wr8yavmoZlFeKGhwogAAIaEEirs/6tgYyYJdBso14xF0ZB3xPgljDp5nlvtRyB7zulUwfl4E4PaXdAfqqdJAhKXQKSqcxzJm2v4x6tSd1ltlbOeZ1BHjRNVoz5ZvDZvcavphlY7xvkYJPUUGM058G/bs2UUmJEmmmdB70gAAJxEShf/140rgoeFqZUW3/3sHk0DQJxE6D027PiruR+hUhmetpq95vVp0W1fjH1lREDCSg94kx9yEEJCMROoCG78YdUmtJ7mrfR9ceDkR5V58+dsvIZ89RDMQiAAAgcIdCcOcOYAck042gQ+g4EWghY3DIq2MllhkGB5BbKNv2X7HSbLDluhkv+ieONoAEQiIHA7AWj+zEmJ8ZQVJsilClPTUbABgKuEOAialIQPV1BiTmIrtaZlJz93BWSNjfy+cGGQX964s0DZLbeZtMwBwIgAAJaENi9v26TQbPQmRTW37QABxEgEAOB0rXTzqO0xQZkeeDPFU0oV9c7qb1xbkRKd5oJO33DhvxgancWvDeNQNn6wj5csttM0016Q5RZ7Wtzp6xacNO4jQ0G6odkEAABEGhHwJyJIpyLU9qJx8sUJiB56AOT3BcieqpJem3WalA6d77LZt9hDgQSIiAspiZgmJTKXfmJiU4J9TYqJUJAWAbNRJcsviC6AvLvvMwlNJLm3UTgeF3no8+qh5WsfltpRyDd685A+yAAAnYTqC9Zvf0Mu406aG/vsN5fqXTQPkyDgK0EaPaMGTOGOXvCVscNNTYo55CaYXrQAPl9d9XmjjdAJySCwFECoXDoO/Qi5+gOM55EGBOzaN3zP5shFypBAARAIAYCnO+OoZQeRSyOILoePaGFirkTn6omISYsv9TEi/OAMbOx7exgmkynJt4NtdOmk7ZokKeR8QonmcC2VwT4TV61nGC7QqaHn0uwLqqBQNwELGaF4q7kVQWeQBB9YzGlyJRWsVeak21XzdJc9vS7b5EdBNKThYn6IAAC2hB4ftvuF6sOh/ppI6gbIZRKdYXKbtJNMRwGAW0IcCnVeui6b4IFrZW6i3RDn0rpTrmWjGDBRdModTewoA0QSJrAog35tB4Y/3bShlw2QGuu3TRvyhojPhNcRoPmQAAETCYgmTnrogsE0U0+1RzS/r5Ddu03K8QF9hvV3+JpF21TEzWMGTgZCqR9qD9VKPQ7gcLvjR5FPhqQxbBNT7xUfk/loTZ78AIEHCQgpMx20LzdpqPKYMzp3Ftap7XRlzHO3mh5bdr/bW/vH7X22Q+3kW4E0k3rPOgFARA4hkBDY+SNio0fXnrMAY13UArjVRrLgzQQaENgyZqCiyloNLjNTg1f0OCULfMmLDdnRpLTDKU0IqW75Hz6kcCk00BgHwSSJ5BW2+s6stI3eUsuWuDy4bmTV5a62CKaAgEQAAF3CHC5x52Gkm9FMnlm8lZgwU8EaJDyDlP8oaVNzzNFq506uYyaFAg8ePPE8n12+g9bIJAIAUvwHydSz8s6dC9ptZfto+2UJJBljteyUWmNO4h+ZPYg/29zHD1W6aatu8dgRvqxXLAHBEDAOAL1Dy19LY9Um7TWzsHdeRlYa8e4Uy11BdNNvzlGeG/IOuBusYzkVKuU7ipVpO5bTqA2d4ruIqEPBBQBusEy3ygSnL1FnwXfNUozxIIACIBArAQk2xtrUa/L0ffHSYtWFPTyWgfa14gA529qpKYbKfyclBz0KvnIbsBodFi+ppEYSElRArNvv+gccr3ANPc5i2Kik2mdZrpeyXsY4wLniQXRlYPDcser2T2bjHG2A6FqRvqRNdJlVQeHsQsEQAAEtCegsmp8frBhkPZCWwnkXK5QS4O02oWnIKAtgQ0b8oOSsSJtBbYSxllgRauXKf/0pnEbG2iGy2oTQHDJTVguwASU0OgggUfXFR5PadfGOdiE7abp8/u76rPAdsMwCAIgAAIaEKClFndpICNWCVZGgJs0qzVWv1AuQQKSy9cTrOpFtWB6XS9j1ga3C1CAc5WW2oiNsh2qjLPYQMBTArS+3p0kIO4Jq56KZuyjxx94yaBBTR7TQvO2ELCY6GOLITeMSJZ4EL1pNjoX3yKdRq9pq9ZIf3jZ6/uiQpr048ON0wNtgAAIaE5g557q51RWDc1lHitPyseO3Yk9IKAngU9rel1Jyvrrqa61KrltzuQnP2i9B88Zo5tzRqR0p76aiNlZOGN1JxCMhKeSxqDuOr/QJ5+aP3nV01+8xjMQAAEQ8BcBS4q3TfIoEhAIopvUYQ5rtXjQqGVCo0xe4TASrcyrweQ0ePJSrUR1IYaWyEIQsAs+OOQ8gcLbLzmD7kDMcr4le1ugQcdGTDyw12tY85qAsKxTvdYQR/uHVNmER8csu//FbTSj8LE4GtSy6M49NWfe99graeGIMGY9Hi1BQhQIgIBrBNQ66P/vibdGu9agXQ1J9v7QvIlGZzGxCwXsmEFAWoakcmcMs9A7OKUiPQ6vp921HRzSbVdGIGBe2jfdIEKPswS4Jb7ibAv2Wg/IwD32WoQ1EAABENCLQHpGxna9FHWthlK6X9B1CRxNJQJzJi3/mPw9aIrPXLB8U7TaoXP34d5jyU6OHbbcsGFJttWNdtAGCHRGwLLEz+mYSUttNrnChVXamU/YDwJOEaCskYOdsu2A3aZrlYSD6EoQj7If07/DDohz1WTV4VC/X/3ppRMPVjdscbVhNAYCIAACcRJQA35o4M+J4ajIiLOq58VphGNJUyYTz5VAAAh0T6Bp3TthRmCTW3x59x6lXommNM5crjXB84DFrjdBJzSmMAHJv2SQ95XXT13xrEF6IRUEQAAE4iZQNKH8AFXaE3dFryoIfplXTaNdXQnIF3RV1oGuy+leRlL30Duwqe2uKI/mayvuWGGhE3tUvXLsbuwBAXcIFN0+5stMcONmoROd7csWPv+SO5TQCgi0IXB6m1cav6BJ5E1LgSd1AfD4wi176UNCjbQxfgs1RnN+s+iV0c9v261uuBidpt74zoADIAACHRKQUu598K9bM2vrI+asHfKFJ+G0qPzzFy/xDAT0JhCs6TmBFPbWW6VSx3fMnbTKpDUFXUVKg3eecLXBBBtTa02XrJ8xIMHqqAYCjhJYXDF9GDXQ19FGbDQuLbbYRnMwBQIgAAIaE+BvaSyunTR5Jq512iHBS5MmMvU986Kt56dMl3F+tTG+cvbyuHEbI8bohVBfEbixOD+TM/mQiU5RhhjMQjex4wzXPO/756ssJ+eZ4oaQfJ/SmlQQXRnY2zvjAfq3TT33w1ax8cMrS1a//TrWSfdDb8IHEPATAVn1v2WvV39+sGGQoV6tXPL7LbsM1Q7ZqUiA89lGuM3lKiN0eiQysy7jKWo65FHz8TQblNFoYTwVUBYE3CJgMTnKrbZsaEfwQKDcBjswAQIgAALaE6Ab90atK80j4irtoUKgawRoHWuTZqIzKaQaZO37rWmwi2QmLR+42fedAge1JVBX1XAnTWw4S1uBnQsTURFEEL1zPjjiEIFQNPsSMp10TNoheceYtaTcqXYmLXhjMY324uIGshU+phVDd2z/8MDwX/zxxd6799dh7V5D+xCyQcBPBNQM9IeXvb5v556aM031i3P+O1O1Q3fqESgrK+zBJJ9mgueW5AgWddFRRUXlNXR4XRdFtDnEJSvSRgyEgEArApLJ4a1e6v1UslfmTVi+W2+RUAcCIAAC9hCgIOTb9lhyx4qQ4gp3WkIrJhCwrEYV/DRmBjFdD5mYrjnuU6F5YG8w7opeVZAC9+69Yp/i7RYuGDuEc0ZBdBM3vqZ84b8+MVE5NBtOgHOjrgUFsz5VxJMOoisjy+5/cRtdvC9Uz/2yqfTuv1+ydeyGF3f9i7Ejue/94hv8AAEQMIeAWgOdlppgJgfQifYrS+/f/Lw51KE01Qk0ZocLiEGG7hwoVfnOOVNWvqi7Tq/10SAeM9aMl+ySJWtnnOI1L7QPAu0J0GA+lc7djM1iG80QCpUgAAIgkDyBgDApnTvN1WN8yoYN+eYE55LvIljogsDciU9V0+HKLopodogPb17iRjNd9soxbGBvJCMt8zl7CcAaCHRPQKWktgJRtXRcVvel9StBg4L+Rz9VUJQKBCiL0nST/JQBYc9M9BanM6zaYrok/qDltV/+/23zJ5f98pGXBGal+6VH4QcImEOgoTHyxr2Pvnxc1eFQP3NUd6CU87s72ItdIKAtASnF9dqKayWMRkKuaPUSTzsjYIVW0yETUrpbUkTNWEagM9bY70sCNBDlNFMcoxtCGFhkSmdBJwiAQNIEgunB18mISNqQewb67z7ce6x7zaEl3QlIzv6uu8bW+uhi3YhsZa01x/O8dN2MgYwG9sZTx+OylUUTyg94rAHNpyCBsMh6kN4r5xrq+vaz8yb8w1DtkG0wgZnfvXi4ce+bYOQ9hdyWmejKUMlvX6uVXHyNnpp0Aa+kd7vV1kf6qFnpy55+txJrpXeLCwVAAARsILBzT/Vzv37k5TPV548N5jw0Id8dljv+SQ8FoGkQiIvAo+sKj6dBgVfHVcmzwlwFh7F1Q0DNcqHAmhE36FIlTWQ3XYbDuhGQbKBukjrTYxmW2rgzP7AfBEAABGIh0Bw82hFLWV3KCC5m6KIFOrwnQEtTbfBeRewKKBPYjbGXNq+kjEa+SqptixU4TcC0QRhO84B9dwgU3T7mBin5ze60Zn8rNBP4d8XFxb6L39lPChbtJiClZdSkEfrO/7T8nspDioOtX4xl92/ZQMZ/YzdgXexte3v/qJ/+fnO/57ftfhYp3nXpFegAAd8RqF/77IcvPLzsjSvCUaF9Ounu6EvGf4WLs+4o4bhOBNJE+DrSY0Kayf0n9aii6xFsMRGQlkq1ZsCWGmkiDegISGwmQN/h6vdiD0OAiHD2IaOCSYZwhUwQAAGdCVjMqGWz6J5hEVK663xCuaut+fdMtbutJtXakMUV08YnZUHTyos25GfSYPKvayqvQ1lWVD7V4QHsBAGHCKiZtJyxhxwy77hZCv7vzszLWux4Q2gABNoRKLxzVB4N4DDqO4Zmzb/V4oatQXRlNDsvs5j+vaKe+3RLq9j44ZUqxfs7Hx3cSD7W+9RPuAUCIOAyAZW+/cElr+7ZtHX3GJebdqg5/sG/8zKXOGQcZkHAIQJyjkOG7TVrsTXjxm2M2GvUv9aiUbaSvDMhpTvJFGacg/49XeBZKwJnXLxFBdBt/83Yqgk7n9bcNG5jg50GYQsEQAAEtCcg+Qvaa2wrsP+ntb1mtd2FV6lKQP2e4VIalV2LAmjf9GN/pdX2UoPJ+xvk2573Xh252SC9kGo4gcIFY4cwaT1NbuSY6gq35G8fK8bvJVP7z2Tdgca0b9FArTyjfOBse4te22+IqDeiEAG1lqivg8sqxfJfVm3Pv/fRymqVdtnv/racMPgPAiDgBAFZpTJc/PfDLw7Zs7/+NCda8MKmlOwnG4sR5POCPdpMjMCStTNOMWYNOCmxTEIc3XzT9JVVlOZZXa9pv3HJi7QXCYEpRCAr1yBn6wzSCqkgAAIgYAsByvz1T1sMuWiElq8xayaSi2xSsSlhMaOC6PR7cfKSimsH+62vpJS3meQTfY6sQdZDk3rMbK2FCy472bKifyMv+hnsyd50q+6PBuuHdEMJzF4wuh99Zt9hnPxWA1VtD6IrGOULN71D0/ON+vJNtBOrDof6qbTLv3zkxfqt7+yjtKqyKlFbqAcCIJB6BA5WN2y599FXQirDBXmf5iMCr5zda/wyH/kDV1KAgBRRtT6PI9dGNuOrjuRUP2OzTd+biwpmyGeSPHNJRcEo33cIHDSCgBCypxFCSSSlCA6bohU6QQAEQMAuAvMnr9hOn3877bLnih3JxuJaxxXSRjSSWZfxFAk1JGNUE1JL8MhPjIAbo8jFFVMLqahZvz84x6DyGPsXxZIjoAKAlhVWAfRByVnyuDZn95b89rVaj1Wg+RQkICz+e+NmoVM/yWD0aLYnx24UL31gyyMEpyRVzgs1M71s/Y4rf/bwi2kbXtz1L5WWOVV8h58gAALxE6ipa6wsWf32tt8semW0GowTvwW9a9CNnDsxKljvPoK6YwnQyEgzUktyuR4pi4/tv+72RIJpapaLESnwhSnnYnfQcdx4AgFpThCd0qv6aTCi8ecOHAABEHCPALfY391rzZ6W6FrnP+2xpIcVkwad6UHsCxVFReU1jMtVX+wx4Jlg8xZXTB9mgNJuJW7YkB+kTFg/77agXgX2DMo5hEHlevWJL9WoGegiwOk7lp9luIMfZeVm/sFwHyDfQAJFt11SQLLVQC2jNopr7Cv/7Ysftoh2LIiuGkgP1H6D/m1raSwV/ocaozl/2/zJZZSW+dyHl72240iqd8xOT4W+h48gEAuBluD5r/708qjtHx4YHksd88rwVWUPvGDcjRzzOEOxnQSO3AThRrwn6WLuCTt9TxVbN08s30c/fp8zwV9aDmMmDURy9DrdBA7QqAEBzqIaqIhVgjGz5rtyKMSiGV0dxzEQAAEQaE+AAmD/aL9P+9eSTS1dNXWs9jpjFSijv4m1KMp1SGBxh3v13UmBZ/FLfeXFrmzn4V43UOkhsdfwviQNnCwbNw5LB3rfE/5WMGvBmNGWFXmR0l2da7ynnN+BtdCN70XjHJh9+0XncC4eM044CeaWbDNQy9GbcypFhAiI6dTuARNhJat5556aM1Wq9x8v3Jyz7Ol3K3fvr9uEdO/JUkV9EDCRgKxSA2oeKX9ju7+D5019Uy8C0dtN7CVoTnUCYo4hBELNKQ8NkauZTG7GAAS6MTTorJHbLteMHuSkIIEo4yatM55Ttr6wj/HdFIn8zngf4AAIgICrBNKDaeuoQSOy7bQGIy3miyDk4tUFX+WMT2rtG57HR2BgTvXTVGN/fLU8Lz2tdE3BVZ6rSELAo+sKj+dc/iIJE55U5RZf5EnDaDRlCMz87iWF9B21gRz2Q+bQLcNyx2P5g5Q5e/VwVC2DIFiggsLReXooik+FjFpqCYejm6NBdNWKmvZuMa5uTIujrabek7Rtb+8f9fslW8dSQD1XBdLU+unNKd9TmUvqnQnwOJUI1KtZ52uf/fCF//qfLVlqQM1Hn1X7It1XV51IgZ9ftE530lVZHAMBnQhwKdV66PpvnD3dlPJQf6V6KgxaK0mYEddeUSs6U0+IUJVKBALcqCA6awyFjL7WKlkz9b+Y5EWpdI7BVxAAgeQJFE0op4krZmTbaestv1IFoNvuM+vVkoprB1MQ8n6zVOunVs0qpnsJf9VPWZeKLMnEI2VlhT26LKXxwTQR+h+S119jiR1Ik9vmTFq5tYMD2AUCSRO4sTg/c9Zto3/FpFxKxrKSNui9AcEFW4DlNr3viFRSMOc7owfSOuhqEMqppvqdFhX/11p7sPULp54//sDm9TMXXPJDZsl7nWrDILuWCqS1BNMyKOf94JPy3jtvyHFVZwzK65GTlTaQc+6HUU4GdQmkgoA9BMIRsWPP/prdz2/bk/P2BweH0vIOo+yxbIyV7Zl5mbiBYEx3QWgLgSVrCi6mdRkHt7zW+b8UfIXO+nTXNm/C8t0la6ZRZiCm/yxvyQtpjcJbkapQ97PK3/pCPFCXZlJGd4ur97Z6jxu3La6YWkgB9P80TjgEgwAIaEFAWnIV3Sj/khZi4hChAtBL1s74+5xJyz+Oo5oWRVX2k1CkcQ2JydVCkOEiopb1kCXEt8kNxyd82YeKD27ICql7ILfYZ9MdS6UVBXOllMYN3JPS+r07hNBKqhGYueDSi+qrGx5lnJufvr2582hw0iNLF76wJdX6Ev56R6Dw9kvOiDCpZnGf6p2KpFt+Zcnvt+xqbcWVILpqcNnCzb+ZdfuYwZKxr7cWkOrP1Rrqal1kehxFkZMVPHBy/9ydA/v3OHziCTmRE/pkZWVlBnPSgoFeAYsfRwX9MBLqqL94AgKGEainHxrVoXB0374DdQd27q2V7398qNcne6oH1dZHziRf1CMVNyGk9VWssZOKXW++z5JJU1K5RzLT01abT9xbDygt2xN0k1n/IDpjfXfV5o4nWmu9JYbWU5lAjxpWHzLolwd9nqt0uneb1mclFVMnUQC9hHQbFDgwjTL0goC/CQRYYJVg0QfIS9M+R3KFEI/SwMHxJg0cXLQhPzNU27ia1so9299nlnve3TBpxbuUkYXSuvNr3Gs1+ZYolf9XaSDc3+ZPXl2evDV3LCyumD5MSvGgO63Z2srBaM+qJbZahLGUJ6Bmn9dVNdzJuLiLPtPT/AJESr5bZDT+0C/+wA/9CahlEJgUfzI1hftRwoKrTBRtNteC6KrVoXkTvrX90PqB9HRyGxV40YYABeL6UFBdPdrsb3mRFrBCOdlpVYEgb0wLcHVDvaHlGP6DAAjYTyAqRPBwbTi3PhTpoQa+UAvqdjIyRrRCLTm/v/yB5ze32oWnIGAEAbphF9xVwwwZgc+fO5Ku0wi02oq0eGC5NOQmMwX7ZxFIBNG1PZv8L0wtH0HZG0LkaYYZ3vJLVWrdOZOf/MAMvYyVrJlSQAF09UPdEMamkIVOEEgtAmomNwUg/0k3Lq80z3P5pV11eY+Q7ptN0K4C6IGa3CdI61gT9BqlkbOHKIhlVBCd+FqcBsL9dfX0f18/dcWzuvMuWT9jgAxH1Rr0vXXXeow+zv5807iNuAd+DBjsSIRAfnF+8IRDDXPqqxp+yjk7PREbmtf5Zvk9lYc01wh5PiAw+3uj+koZvIcmHdJ1HOU/MHwTaVF1jddmczWIrtZfmPf982c1RrOfIxUj2yjBi5gJhKMio+pwqFUArz7muigIAiAAAg4Q2J6dm/FTB+zCJAg4TuDTml50o1H2d7whOxrg7JgLOTvMppqNuROX76Kg4Evk92jdfacBSlPVjVrcLNK9p3yv7yPycIghXlqChb9PWr9pgt7mVKqLSKurv8tNYAONIAACCRDg1v/f3p3AV1HeCx9/njknCbIFWmldW7UqFesGKlrUgksNkBDQJi4kKPZqa3uvXu3+Wu+bvtd7S1sFsV63ti4EFZKWhBCW1ipoQQiLilYUEPQV3IpliQTIcua5/yckAgIhy8w5M3N+5/MJnGXmWb7PnHPmzP9ZnpJ1XEMYRJe6umr8lOr898flzvx5J2qetF0enVPQL769foZcJL4gaZmmUUbrlg+c+5WzX14VwhH+WQntVsgI7yHjciveCGqTTZ0zvLdpbJoro+ePDWoZ2yhXvXZik9t4nZcQaJeAxKecN2r/fKXatvMu+Sw/OQIxvwPUW5eW3bu48gAv8BQCngnYjihHbNt5Q8LVd0novJ9nCacyIW1eKL976dufLULSp3kqvfvVOp0Ry5MTonWfLQyPEUAAAQRCJ7BTpjy6hmncQ9duFLhFwFXuVSHBcFXc4UeQR42ltQ7LdIu9Y3W98zyqNskg0EkBE5pR3c0VNPoGO01pJyublN3sLCil1fm/kd76T0iGBNCTok4mCERfICueYTtc2tlDQnnTRt0xZVb+L22AI4gVmDo7/7SMRP0SAuj+tY4dfCUB3l/6l4OvKffVxn1BRqQHsiPL1DlXHGMSGTKoTZ/hq4JPicuSPVNsZ2ifkifZNBC4+sdDjrrq9vNuf2Pb3Dekw1lZcwA9mvV+x81s+LdoVo1aBUGg4CeDsq+6bfCtX9y2a61R+uHIBNAF1ygl09Hvf0vJiem0Xy963zXxi6U47+xfJJ5BAAEEEAiPgPnZ9IlLV4anvJQUgT0CdoSvXKT51p5ngntPTkprinNmfBDcEoarZFo79iKzG4ZSy/SQ14ShnJQxwgI6dL/Zshzj/sEGqoPYKvYi9sa67AXyC92OmE/J7/EgulAmBBDouoBd9kcbE5aOggessJzz/vQrg17+Y1lZQc8DbpCCJ21Qv7R69E3GVQsl6HJCCoqQVlke3WOrLHESsg58e1rocBmR/mc708yep1J/78nq0YNMIiEzcYUzgC6CTTGdMSH1kpQgbAIyI3KPwtsHFxXcdt4cWcZgg5x/3xPh4LltHlcGDIxlGvewHanBL689F5L30rCrbzvvQachY4O8j+6VUh8X/JJ3qIRbuvc+7IAzgKbsR3v55IXvukpfZozmgnCH2pKNEUAAgWAISPRp7inZw38bjNJQCgQ6LhDf3itH9grHWnBa/6njNWSPgwnYdUPltZcP9nrAnh9hp14MWJkoThoJSEeOd8NWXelBfv6G7b0fCFq5m6dvTyRelgt4rKMbtMahPAhERcCohyJQlTH13RtqgjCi144+l+nFX5BRiw+LK+djSTi4hg1b0GSM899JyMqvLLLsTDNTZo165LGK0X38yqQ96doOhVNm59/iGvO8bB+OJcwOVDFHlY7N/VO4ZkY6UD14zneB60uGdrv6tnMvLPz38/7vVbed95wsKbxJfsuUSgBsuGSesjiY7xVvycAY9f+mTVz8YrLyI59oCxT88NzjC28777qrbx/8hze2zXtf3kvPye/s70qte0Wx5tIR9aGDzbSb0t755ZMWv3XNbedc5qrYCwL/uSjiUycEEEAgogLvxJ3GcXa6tYjWj2qlg4CWEb5yBhiGm1axijCUM0xllJFOf5TmHxSCMme5TVlXSDkfD0FZKWIEBYxy3wzjNSeZaeTGqbPydxblzbw11c3y5OzRZ8oF7PvlojrB81Q3BvkjEHGBovyqRaWzRslMYaEdcbq7hYwaICN6nyudnf+EisXuSPaMTDZ4Lp/ZN8vo8xulQCm9dhrxQ/aA1Tu219YnZNaW2+W32oADbhD8Jx17HhKPm7wp1aNuGZdblfQZIuwxvHG7+p385hkcfK42S1ivdew/2tyCF9NOwE4nrZriJzrGOUErc4LMXnGyDNTsv3PbroHyu+UwLQd+Gt6qB/TJ+U+llqRh1alyZwSa1zTf0fgF09TYTzqv9XPkvSSDnk+V715ZGk1/TSfMkTZdeW91Jvmw7bNTlhWafLBCp/xE8OlJy16/6vZzL5aGekaaIxoL0B9Mm+cRQACBaAjUOSqR+/Q9Kz6ORnWoRToK2Cki603DyHDU3ayk5733LZVwnBmO6/7S+5S9TzHmqGsl1ce9T5kUEWiHQEZGjWpMtGPD4G0iHWVuKZ2Vf6yONVxfNGJubbJLaNdm19r9keuaYsk75b+9/ai/Vk44ZnTxo/KkiUBABeT62m+1Nr8PaPE6UixHFt8Zr9zEtRJMf8pR+r6xIytf6UgCHdnWLvWUUdfnW7L28ncleC6dntLionFHiJK2rR2NXjor7w4JhoW9I/ERMnKvrLQqf7l29GQ7Vb2tm5+Qdup2V7k/lmPYdsIN/7mHVr9lLXQ/j5gOpX2ijPD+S4f26OLGEgy3x3C2/B3W8mfvd1MNzY/lrnxiy79p/3lt1Do3q7GIgU7NB0Oq/rnkqtvOX5eqzNufr+kh22bKe8dR23Zl737/yBmWPCnrm+8+82k+/dn9SvvTDfeWUtvfPT255qOD1SIQX6Z2Pd2CW4dcqJzEs9JGRx+ssDyPAAIIIJByAemUpsc/PXHZ6ykvCQVAoAsCDd0bR8sZoj15DMMt7BePAml83ciKNWEZqSUjWIc9Oqeg3w0jyjcFEpNCRVrAjv6T94pMoRnadWDHuInMs+Vi/C3FebMqk9FYU6rzL48p/QPXuJfId02kp450tflcMkzJAwEE2i+Q6LX1yfj27Ltkj/BO37xvdbNsMN1VZrx0jKqRy7xzHeXMXbvizOVdDRg8MXvMyVq5Odo1OWq7vkjCMWH5fbCvUAQf2e9sae+/SdUuDH31tDpbZjYo3bA9+7/lnOoPjnaqx+ZWrvCqXvZ3QrypcaQEHIvld8PFEQoofpwVzwxFp2ev2jLg6fSQY+yygJcxHYtXpxz3StZBT3nTS0cPOytCWG50FNyrpeqcjNiv9nq8391ABNFtqconL1pdcNv5Q2UKjmfk4XH2OW4IIIAAAsESkK/YO2V9nfJglYrSINBxAQlsXN3Sx7LjOyd5Dxm1MCPJWaZTdraDwhkhqHA8w238lpTzwRCUlSJGUECmNntRZnEL0UWBfRtBzl+OtaPZ5ML1QuleP+GYHrV/9nIkmARxnBPPeul819G58t1ypcx5d5IEe/YtREQfSeCJkegRbVuqFV6B8cMW7JLlLCbLp1AUg08yNbUeLJ+xJV8Z9PIW+Vx/Veq5RoKSq2X07bsyte9m+cz/xDhmp2ucppgy3eXjOCbb9DLa7SazZ3xVlin5igzA6i8Xuwco123paCB7cQucgHbU92VE9UtSsMBcv+4K0u7zEV0ige4S6SDwoXSzm6uMXhZz9apd8fiq9nSYteucv7uj7wnaJM6Q87MBct5xuUk0DJbzm+h12tP6jsKc8s1dMWdfBCIuIB8nuqhs0lJZxoUbAgh0RsAY9Zvpv170flv7Bu4sseDWC77kOI0SSNcnt1VwXkMAAQQQSK6AfGE8NG3SkpuTmyu5IeC9gO2pn5FosCdIIbgYo9cW51VyTuT9YdCcYvNUy8Zd5VPyHidrFhbnVYV/JI6o2It/7+/o8zXXqPOVNufIxe3B8vdVeSksF/9kWnC9XEarLZXRazVKpjtP9lqtHh9ch0yutHr0zRIYfuCQG4Zngw/lvKbMaPMX7TT+raNTvdspfzPr+pyacNVpOmYukhGSeVL1w8NTfQ9L6qjHikfOvMHDFH1JyrZZ1id9B7uOOVsCaOfKBcfzdwczfMnOj0Q/1Mb81VXOgpgTmx/GZV52n3/tGiJxnmFyserrEvA5U6BCcC7W3Jz18u8rcszUyKxcyxJaL7Uz2vjR0F6lOXXO8N4mkWmnFU3PzyavIKOajja5xblVs8NQvZYOIbeEoawelHGLnGPKsnnGnmtuk/Pk7XL+lSHpdpfHPeV56bim7QyuWR7kFegk5PN28Vsrzrqgq7NNBKmSdv3hL9buOFWW3LDffwOljoPk/9Plr1eQyklZwiMgg1G/M21SzSPhKfHBS3p9ydBuO7c0nKadxFnyOXeWdH6T/5vfHzLCmxsC/gjIcfZeVmxH/9K7X61rKwf5vA7eTUakf87RboX0xrsoeKWjRAgggED6CbhKzd2U3W3UghJ/1+9KP1lqnAqBMAWDJEj3u2N71n7PyxGTqTAPap42qBLbnr1GTohllGrgb67jxE4YO3LG/w98ST9TwCdnX/HlhGk6V0bKnCsXAs+zP4plk0hNlyo/vjbI+rOLJTi01HH18vpeW2rsSMDPUIT2oZ3u1nHd1aGtQNsFl9Mc845sslo5+kMZ8faR9ObY1rqLvJgtj7vLqnG9jGu+IJ8Xp8gxfJy8HpZOH1JUP2/6OensdYmfOXQ0bTszwAlnr+yvXDNYO6587kjAVulTJZ2wBGwPWeXmzxxH/VXW2n1Oa+dvQfxumDrnimNklO9Q6bRg/b8Rss5Sh2wD2UCCXWaJ/C+BdbW80cla2p5RpO1J2KttJPj4UzlWojga3Sui9E0nTEH03R1C7DlIy6wB6dtsaVTzJsfR54wdWflKWOtsA+ZHbqvrn1Cxs6UOrQHzgXKfgGBYGzVg5ZbfJHfJQKc7A1asdhWn+Ien99hlDvuqdvXXZAfeH+1SYyM/BKRj9Ziyexcfcsk3eb8F89bc+2TbrilSuoJglpBSIYAAAmkjsCgztuPyQ/XKShsNKhoqATsKR7tZJyWUK1PeyXR3Rp1otL5UKhGmizD1cuH5NRVTr8nF8tfl/ismw1kV9ZGvXh5oNqBy/DkrT2yd9lAudg+QaTwlkGuOl3zCFFRZISNSZPSzs06CEm/K7KTrj+2xZW2QOlnY95xKZJ0jtufI9N/ny/F6bsjeb14dek1i8Locay8a11kqwdma9cvPWB3m0TQyZa5cyNRhWP7AqzYknXYI2GCu45prGjKy1qQqgFg674ojVWPjYKOds+V78nx579kL1r3bUfwIbWLWS1s8K1Nav2DizrOpOEdont1FmQu1614on/82cH5ChIDbWRWz3i5/4caap2de0tBz66up7FBlOwvK2uhvS+HDdN7bTms265JAiILotp6l1aNGykCr6i7VmZ1DIyDfIf81Lnfmz8NS4IKfDMqONcRON0pLkNwZJL/XzpLfQLJkhLKzCHBDwHMBCeg99NXsnO+H4bflNT8YdHjCzThTAuZnqbg7UGbwkveJPlFQ6JDs+ZFBgh0UmDF90pIr27NPYIPotvD2gueqrfPu1FqVtKcybIMAAggg4LnAS7Gs+KVPTVgoIy24IRBMgbKygp6NPRpPTBj3JMfor8howZPlR6v9sz9cozyFpUz1p1+VKbz+7hr9akyr1zJ2ZqwqLCzfHsyWSk6pbDBFN7oD7DSxMlXzqSqhTpP7MnI0WiOf99K0wdp3JXCyTtYCfUs6ibwpU/6uc3Vs7Ze6b1nvZ4B9fvinZd+LMSl37dScy+W4XKyNuzxs08AzojEpx0jYM5Fp8Mxbcpyvl89dmUZaS2BXgrvaedurzyMbFMyo7T1IxZzzQjote7LaeLVcxH9OAuvzm5ysBV53cGj9/E8oc5F21VCplHReIFB7gMatl+dSOg28zMB0k8wC8/ABysZT6SwQsiC6barS2fmPSvBlfDo3W3rU3aw8pmft2X7+humKow0IKjfzbDmfP0OWJhkk1xwGyjmP7ZhNQLArsOzbAQFdekr25ddL3EwmzArW7eofDzlKNTSeJcsPna21nX3O2A7YxwWrlJQGATkyldrkZMTOnHaItdBbrQIdRG8t5NW3Db5JenPdL4/pwdWKwv8IIICA/wIrXaUvLp+0eLP/WZEDAu0XaB5VsyP7AZmmVUY4aRsoZ3TNHr6WaYn1SkfpCWPzKpfueSm693ZP0a++JafCdk25KHec6GgjSoBdywg09y2Z7vfZotzKezqawIG2n1I9qkBGe/6bvGanJIzUtOwHqq+fz8mPt+Zp4LPiWTcX5pQH+vs24lO6+9nMpL1boLnDj1xjfkeC3+s6ulRJSycO+ZxX9mJcmGYQCUL7yym9elO+D+4vzq18sCsFerL6yhNc0yjXZvQQSSfNRvt3RW6ffaVzslniKKckGedptsPDxu29l0ub2fcONwR2C4QwiG5nO3ITmX+XC9lhWIaJI61zAvXaUecUjZz5Wud292evgh8MHuS4zp3SMfBsOf7smvTcEEiNgGOmndJr+NggBdALbzvvUvlNe7u8N+z7o19qYMgVgQ4JuDKoYdS0e5fObu9eoeglNW1SzSPSe2WozFH/QXsrxnYIIIAAAl0SeMlxGi8lgN4lQ3b2SaBHfb/uu0chyPqaBNA/qyznds3Tp45JyPT1n30xuo9NjlyQvljqRwB930aWQJM5SY6J4ca4o/d9qfOPZMaHC2TvC+WPAHrnGZv3bL4QbHRhYyLRq4tJ+b77dSMr1kgmK3zPiAyiKiCfR/b7yVyslb5x06Z+3TpSUbk4Zz/DBskfAfSOwO3e1pHhFnJO4A7t+K777mFM4nj7nSLPEkDfl6Yjj/paw2Sdp9nRnDETu7UjBWRbBIIoUDRibq1dPkTKJp2yuEVRQGaU+3HQAujWWSeck+X8JV/O2wmgR/HAC0udJID+Ua/DioMUQLd0jlaD5CLUcALoYTmQKKf8rry/IwH05uM8LGzTJi5+MRZrsKOL5oelzJQTAQQQCKnAIjez8eKn71khU0VzQwABBBBAAAEEdgtIx+Z7sUAAAQQQCJfAtaMqnpelXqaGq9SUFoH9BYryqxZJoObO/V/hmdALaFM2buTM+0JfDyqAgA8C8rn3kB2BvqBkAZ2IfPAlyTQS0OaF7tndftLRGktHkfDcbEDno+xu35TeAnyphqfZKCkCCIRIQNZ0eiYztuPy8l+t2BaiYlNUBBBAAAEEEEiCwNE9tk6T32IbkpAVWSCAAAIIeCjQEM+6XZKjk7SHpiSVGoGivJkTZFTw3NTkTq7+COi12mm80Z+0SRWBcAvIb69fTZu05OagjUAPtyqlT08Bvd7RTVc+XrJgV0frH6oguq2c7XFTNmnJrbLOp51C7KOOVpjtEUAAAQQOLKC1efQffbqNKL371boDb8GzCCCAAAIIIJDOAnZaYEfryelsQN0RQACBMArcMKJ8k8wmclsYy06ZEfisgI41Xq20WvXZ53kcSoFa7Zgr7XT9oSw9hUbAPwFZt9n8q8TBfupfFqSMQHoI2GXCXaUu7+ysu6ELorc269OTFs+TtXDOkMrT+7AVhf8RQACBzgm4MgK9ZNrEmm8zNVDnANkLAQQQQACBdBHI3JHxsNR1S7rUl3oigAACUREoyq20U7pXRKU+1CN9BWzA1dXOGBHgfCTch0GT0aowiOugh5uV0kdA4BNt3FHT7q35nwjUhSogkGIBs007ieHlkxa/1dmChDaIbiv89OSaj07NzsmV3oc/kIc7O4vAfggggEAaC9Qpra8uu3fJL9LYgKojgAACCCCAQDsFCgvLtxtHlbRzczZDAAEEEAiQQFZG5r+wLEeAGoSidFrgupEVa7TSBZIAawR3WjG1O8r55A/G5c78c2pLQe4IBE1AppxWifOn3bt0dtBKRnkQCKHAZuXGLps+cenKrpQ91EF0W3G7HsT0iUsmyofLOfKwpisY7IsAAgiklYBR65R2h0yfuLg8repNZRFAAAEEEECgSwLHdt/2gKxH2qUfol0qADsjgAACCHRKoDCnfHPcOMWyM4HHTgmyU5AEivIqn5VlCsZLmWSiUm5hEpDOPBPGjZx5X5jKTFkR8FtAZgl9xnEaBj89adnrfudF+ghEXcBO4S4x44umT35xWVfrGvogeiuA/XA5JTvn63Ix59/lubrW5/kfAQQQQOCAAtWxbvFzutoT64Ap8yQCCCCAAAIIRFrAro2uXfV9qSQXrSPd0lQOAQSiKHDtqIrntVJ3RrFu1Cn9BJqXKdD6X9Ov5iGusTYPjsub+bMQ14CiI+C1QPMymwP65OR0ds1mrwtEegiEW8CsMfHEEK86pEQmiG4btXlU+qSayTojdrJSema4G5rSI4AAAr4INNr1z6XTUf5TExayfpgvxCSKAAIIIIBA9AWK8qsWKUc9Ef2apqyGtZIzI0VTxk/GCERboChv5gSlTVm0a0nt0kWgOLfyQRlUVZIu9Q1zPbUxU9ctH0inhzA3ImX3WuAjo82ldplNG9vyOnHSQyDdBOyMDm5m07nldy9926u6RyqI3ooy7deL3p8+afFoWee3UJ57p/V5/kcAAQTSXOANmb79HE7M0vwooPoIIIAAAgh4JJBVl3mLJLXao+RIZo9Afcw4o5RWa/Y8xT0EEEDAW4GsHVnfZmkOb01JLXUCxXlVv5AZFhjdnLomOGTORpnfvfXSwOsIFB6Sig3SR6DccRq/VjaxZn76VJmaIuCbgGu0vtvO6FD+qxXbvMwlkkH0ViC7zu9h2d1OkZOoO+Q5pnhvheF/BBBINwFX1pu6LzO2g+nb063lqS8CCCCAAAI+ChQWlm832hkjWfBbyztnGX3uXm2nW5Ygeo13yZISAgggsK+A/QxXGfHhEkhfv+8rPOqogFx3ZG3njqL5sL2dYcE46lZJmtGcPvh2JUn7HhmXV3UTAfSuKLJvdATMNq3Md6ZPWlLI9O3RaVVqkjoBiXts0sYdVTZx8Y/8+J6JdBDdNtvjJQt2TZu05L9bpngvlac4kUrd8UzOCCCQfIE3tNYXlk1acmvp3a9ygTv5/uSIAAIIIIBApAXG5VbYc43vRrqSyatck0zneG1x3qzK5iyNXpa8rMkJAQTSUaA4Z8YHRsdype4fp2P9vaiznZ5aO7GJXqRFGl0XGDdy5n1yXnKdpFTf9dRIwQMB184QIB0cbOcGbgggoNQMnREfMG1SzSNgIIBA1wUk2DvXyYidOe3epbO7ntqBU4h8EL212i1TvI+TqYwHtqyXTjC9FYf/EUAgigI75YfKXTIbx8BpExe/GMUKUicEEEAAAQQQCIZAUW7lVBk1fXcwShPaUsjFfrdgXG5VeWsNHKNWtN7nfwQQQMAvAdsZytE6R9Lf4lce0U1XP9fYq/bG6NYvnDWz5yWyLMrlUnqO6dQ2Yb10DrzazhCQ2mKQOwIBEDBqnaP0cBl9fqWNUwWgRBQBgZAL7J7RoXzSkhF+v6fSJojeekRMn7h05e710m0wXdkLFATTW3H4HwEEoiJQ7cbcU2UWjjvtbBxRqRT1QAABBBBAAIHgChTnzvyRXesyuCUMdMm22Iv9n45AbynqUT23viR3awNdcgqHAAKREBibW7nCcfTFUhlGpLe/RVfoWP2Y8cP4zd1+suRtaZdFcR3nPMlxdfJyJae9BD6UgOFFe3cO3Os17iKQTgKfyCCnOw7r0+1rT09aPC+dKk5dEfBJwNXaPOq4qn+yZnRIuyB6a8PtDqYvKXSNc4E8Vy1/BNNbcfgfAQTCKrCypVdjXvndS98OayUoNwIIIIAAAgiEU2D9ioHftdPahrP0qSq1Xmsv8jevgf6ZIgwbtkDWR1fPfuZpHiKAAAK+CIwdWfmKdtTFsq7kBl8yiFSiZmVjLHN40Yi5dHQKcLteN7JiTdbOzLOVNmUBLmbkiiYzWzwj74/Tx+ZVLo1c5agQAu0XaJTv0/sc15xklxpmkFP74dgSgTYEFinXOW/axJpvPz255qM2tvP0pbQNorcqlt/74mKZRiPPVbq//WCT53e2vsb/CCCAQEgENmhlvnNKds5AejWGpMUoJgIIIIAAAhEUKCkpcY/uVTuei9XtbVzzfFZGxnn2Iv9B99CaESsHxeEFBBDwWqBo5MzXnFjs60qZlV6nHaH0VmRlZF18w4jyTRGqU2SrUlhYvr04t+oqpfX3pJKsk+5vS0vnP1NyVI+tI3h/+AtN6oEWkDCTekr+GVA2acmtyQz0BVqFwiHQNYGVErsdJXHcC6ZPfnFZ15Lq+N5pH0RvJSuftPgt+8EmvYOON1r/pzyftJ4MrWXgfwQQQKBjAnq9DZ7Luucn2+lL7IXrju3P1ggggAACCCCAgLcCdvT0uuUDr2GN9EO4OuqxY3rWXlqYU765rS0dFftrW6/zGgIIIOC1QNGIGRt1rPEiCYbN9TrtsKdnR9jqWMPFh/rsDns9o1j+4tzKB412zpK61USxfimvk1arZGbEIcV5Vb9omUkn5UWiAAgkWWCnTNv+kB2oOX3ikrE21pTk/MkOgSgKvCSd4ArtwEGJ3c5KVQUJon9G3vYOKpu4+D+kYY6S3g2Xyct23fTGz2zGQwQQQCB1Alr9XT6frv8oO6t57Q+mBEpdU5AzAggggAACCOwvYDv2Na+RbvR4eZVRX/sSfWy0KSweOfOG9lxkHpv7p/XSIWHVvknwCAEEEPBXwE5Tvm7FwFw7qlRysktLcJPOT3aELVO4h/dQGJdb8cYxPbddIIGun0ktOD/xpimb5PrUhKYe2wYxfbs3oKQSLgE5/jfJ3690RuxEmbb9ZoLn4Wo/ShtIATtIsFor9yIZeT5o+sTF5akeOBgPJFMACtXSMLbX/18Lbr3gS1o3jddaXS+Pj5M/bggggECyBeQLRM8yytw/oHfOc6n+8kh25ckPAQQQQAABBMInMG5U5eNPVY15O6HdP0rpDw9fDbwusYzqzIh/e1zOjA86krI2qlQuzv2yI/uwLQIIINBVgZbfnL+YOmv0QleZxyTweGxX0wzp/vUyCuq24pGVD4a0/BR7L4GWDmwTnqy+ssxVTZOUUaP2epm7HRLQz8lsrv9qOyd0aDc2RiAaAi/J7KAPZ8Z2Pll696t10agStUAgdQLG6A9kWbgpJuY+XH730rdTV5L9cyaIvr/Jfs+UT174rjz5C/t31a1fP8fETKE25ip5nK4/IPYz4gkEEPBHwH6BOMp9PGEyHmr5LJKMlviTGakigAACCCCAAAIeC1w7quL5R+cUDMhw6+9XRhd6nHxYkquTAMztMjr/kc4UWOt4mTFN/yX7MpNcZwDZBwEEuiRQlFf57GMVo0/PiLm/lYBZUZcSC93OZr2jnGvG5lYuDV3RKXCbAs0zvSiVP6U6/3LpIDJRgukD2tyBF/cSMOuNVj8dlzvTzt7KDYF0Etgg34PTtUpMnT5x6cp0qjh1RcAfAbNNfuJWyY/cp/r3ufwvQR00yI/wDra+Xbhepnv/kUz3fpzWeoiMCLhPprda08Fk2BwBBBBoS0B6MGo74uiyAX0uP2bavTX/Z08Ava3deA0BBBBAAAEEEAiewA0jyjcV51ZdZacxl9J9HLwS+lqiCseJnSprsXYqgG5L1nKhf5mvpSRxBBBAoA2B8WMqtxaNqiqWwFmO/FZd28amkXlJZoH7XdbOrDOYojoyTXrAikgg+M/rlp91mlzjLU6XY/uAEO14Uq5RbZBOgd85pmdt/3G5VQTQ22HGJuEXkOP+Pelo85Cdl52fdQAAG+1JREFUWtrGg2xciAB6+NuVGqROQN5Tm7Q2j8rAwTGHZR92xPRJi8c9PWnxvKAG0K0UI9E7eby0NOqLsrv9UwU/PPf4WEJfZpS+VB7KjwrVyz7PDQEEEGinwGbZ7ln5IpmdFdvxxz1TATHqvJ1+bIYAAggggAACARewF1xlVPqCeKL+v7RqXi89wr9HzUqtnB/YEZyeNIvWTyhjBnuSFokggAACnRSwAcf584cOeG979g/lt6tdV7p3J5MK8G56rQRMbi7Om9nuz+8mZbLCNEpJG2dXgBsg6UVrucY7VY7tae/V9bnaGPeHElA/I+kFCWyG0nFGq0mJHlsfGz9sAcdOYNuJgnkkYNdjfsUYVSWzEVef2mv4y3uCe0xK4pExyaSXwCfyfrIBjkVy/jFnQN9vrtjzngoHRIQvWiS3AVrm6bejCx65vmRot1219QNNQg2RCfdktLr5upyA90tuicgNAQQCLtAo5ZP1c9QzSrl/+TC7++IFJQuaAl5miocAAggggAACCHRJwI5KlwRukrVIJxi38RcyJeK18jhMsYdD1X+1jLi/0+sRWtqpf9IkMn8jmfc4VAF4HQEEEPBToHVN6bJ5BY/samq4XRv1b5JfFILptfL7/JeNPbfe29FAYVyZ7jbqEpabYzTXHg7QWC3H9lR5aerUWaMvke/zW2Sa91x5HKXzlAPU/IBPySGtFyjtTpSR+nPDFvA4YI14EoEDC9jrs6/Jb5LnpMPqC/Gs+MKnJizc0rppuappvcv/CCDQPoF35Pvjb9q4NcYxC0/pPeK1fb9Dmsckty+lgGxFEN2Hhni8pLlXXuso9d/IQeK8vuWZk7R2hyhtzpCT8tOkx+7XCKz7gE+SCARWwGyTaUqWKkcvcdxETSIrsbD8Vytk3Q9uCCCAAAIIIIBA+gm0TFFePHV2/q+NMT+X9dLzRSErvBJmoSzzdc8xPT+pbrkI72lVikbMrS2tHjVFnG72NGESQwABBDopUJhTbmdT+7kE0yc2NDbcJBG378l1rmM7mVwqd6uTcv+hIZZ5V0tHr46XxVWZHd8pdXu4JkEQ/RD8LTPJPDt1zhXHqESiSK7jXi+79D/EbqF/WeopU7arKTEVf7TlXE3qVBX6elEBBFoEdsr/a2Qq6RXKVS/JefXybn27rWyJ5YCEAAIdE9ggI8zfdLRaJx1Q/u5qvdrJiK2a9utF7++bTPhncCCIvm+L+vKopafFaknc/n16u+bWwV9MOPo0rcypMg38CTKl4Zflwstxu/909qcbcgcBBMIkYC8kvCM/Ot6UHvmvu0avMsZ549S+l63dt9dVmKpEWRFAAAEEEEAAAX8EikbOfE1Svkqmee+X6TaOkx/i35HfQyf5k5vnqdbKrGPTY8r5/di8mb5fHXC084hrDEF0z5uRBBFAoCsCLcH0CTIV9t0b6nqPkd/B42UE0mWSZqCvOdpgoQwvfiAzI/ORljp0mkEbfZgMmun0/sneUcedumTnGdb8ikbM2Chln2D/npw1+tyEMmOk08UYeRyZgHrLe6HCMc6MNS+d8TeuXYX1aKXcIrBTZo94XznmPfke2ijxlvcd133HBveMG19zat9LN3J8c5wgcEgB29nkY/nbJB0kP3KU/tho9ZHEMD8wrv7AxNw13fTON/csRXvI9EK/QaBPaEOve4gKPD255iPZxP799bObXvvTC/o27jRfiDmNX3BN7PPy+ufkfPzzMgWCvX+YnOg393KVEx37mBsCCCRDQKtGeR/WyhdIg5yUbZaei1vlS+SfMePIF0vThnis/p2DfYGUq0XJKCF5IJAWAnVZm3bEm/pIkIVbWwLG0XZWnLS4yfnQA1rr2WlR2c5W0rj/6Oyu++3nmjIVc17f73me6LRARl3sn53eOSI7toz+u0eqc89TVWO+4Wr3CrnwNTyAAfV66Sz5Z+kAXd7YY+sfOzrlb1eaa+zIylemVo8uls+87l1JJwj79uu3qYNrqroTlI59IQhlD2sZJMi3rqtlNxnOKtXkcg7WVUjZP4rnaS2zcJRL9cpL511xpEkkCrRrZxkxF8lzQbn+KJ/hZqZ8vzx6bI9tz3o1c0iTk/iCvMc8ODKSlISJ1SYpp0hlMzav0naYs38/m1I95hRHmRGyfvolEqwbIs+FaUmDeinzIgmIPCO/oZ4Zm1u5Yk9DVey5y71mAXlrL5O25rsvxceDq9UOrRw5duVbxRh7HrnTcdUnCRXbGstSn3TrnrH5UCPKy9XCFNcietkb5c6T30Vbolez6NXIaKe5nVrfP7aGEmvc3XZN8e0qo7Ghm9r1j4PFNqIn0v4ahegMr/2VYksEEEAAAQQQQAABBBBAAIHwCzwxe8zJWrk52jU5csH3HKnR4UmvlVar5BLD83LF7i9NPT+Zl8zAedLrSoYIIICAxwKPVYzuE8twL5MLkMPkc/wb0iH9q5JF0taYtqNstSODV1y3yq/P8NLq0TfLd8QDHtP5llxWRubnuzr63rfChTBhmYUh/l5t78HSyfQ8CSidK1GJs+S84StSlaQd522xNb8HlFou70HpAKCXNfbcuohzmbbEeA0BBBBAAIE9AgTR91hwDwEEEEAAAQQQQAABBBBAIMACdm1Sk2g8Wy4Cn9H8p2U6VaPsCGUvguuyRqx5V9JdKf/v/svIqCnOmfFBgEkoGgIIIBAqAVlD/XMNjY1nyaweZxptTpV1aQdIBb4sf0d4UBEZUWVelVFxK2VptZdjTuyFPes6e5D6QZKYUp1/l8xad8dBXg7a0+66FWdlMKWxv80ydc7w3qox4zRXOyfJ7Af95QJ8f8nxS/J3tPzZ8xavA+wyQ6J5TwLmG2V0+RtyLrM25urVu+LxVS2z/UiW3BBAAAEEEECgowIE0TsqxvYIIIAAAggggAACCCCAAAKBEnhs/tBumXWfP0q77rF2Wl1HOVlyIbm7FDKmjcm2hZX1y7MksNI8DaTSutF11T+1TmyNmfgWE9PvHNV983teTe0bKBwKgwACCIRAwH6OOzv6finWlOhnYqqPTNvbVz7He7V+htsq7P057jpqh2P0Zhn5u8XRzntG168vGjE3JdOUl87Of1Q6A4wPAbMt4sfFeTP7haSskSxm88j1nZ87Qs5ZvmiM6mNUopcxsT4qZnrL9NT23KX5tvfxbp8wWm8zriwv6Li1sn65LDGotsppzpaGHv98n5Hlu834FwEEEEAAAa8FCKJ7LUp6CCCAAAIIIIAAAggggAACCCCAAAIIIJAWAqXV+Qslwm/XxQ7Bzawszqs6MwQFpYgIIIAAAggggEDKBbyeOiblFaIACCCAAAIIIIAAAggggAACCCCAAAIIIIBAUgRM85T0Scmqq5nY6b67mgb7I4AAAggggAAC6SJAED1dWpp6IoAAAggggAACCCCAAAIIIIAAAggggIBnAqXzrjhSEuvrWYI+JyRTgL/rcxYkjwACCCCAAAIIREaAIHpkmpKKIIAAAggggAACCCCAAAIIIIAAAggggECyBExT4vRk5eVFPtpoguheQJIGAggggAACCKSFAEH0tGhmKokAAggggAACCCCAAAIIIIAAAggggAACngoYNdTT9HxOzCj3TZ+zIHkEEEAAAQQQQCAyAgTRI9OUVAQBBBBAAAEEEEAAAQQQQAABBBBAAAEEkiWglRqWrLy8yMfo+Gov0iENBBBAAAEEEEAgHQQIoqdDK1NHBBBAAAEEEEAAAQQQQAABBBBAAAEEEPBMoKysoKckNsizBP1PqCnRY8vb/mdDDggggAACCCCAQDQECKJHox2pBQIIIIAAAggggAACCCCAAAIIIIAAAggkSWBX9/rhklU8Sdl5kI15ffywBbs8SIgkEEAAAQQQQACBtBAgiJ4WzUwlEUAAAQQQQAABBBBAAAEEEEAAAQQQQMArAa10kVdpJSMdo9TSZORDHggggAACCCCAQFQECKJHpSWpBwIIIIAAAggggAACCCCAAAIIIIAAAgj4LvBYxeg+yqjLfc/Iwwy0dl72MDmSQgABBBBAAAEEIi9AED3yTUwFEUAAAQQQQAABBBBAAAEEEEAAAQQQQMArgVimGSdpZXmVXjLScbRanIx8yAMBBBBAAAEEEIiKAEH0qLQk9UAAAQQQQAABBBBAAAEEEEAAAQQQQAABXwXmzx8a16651ddMvE98y9plZ77qfbKkiAACCCCAAAIIRFeAIHp025aaIYAAAggggAACCCCAAAIIIIAAAggggICHAhvqeo9RSp/gYZLJSGpBSUmJm4yMyAMBBBBAAAEEEIiKAEH0qLQk9UAAAQQQQAABBBBAAAEEEEAAAQQQQAAB3wSaR6ErXeJbBn4lrPUzfiVNuggggAACCCCAQFQFCKJHtWWpFwIIIIAAAggggAACCCCAAAIIIIAAAgh4JrBhR/b3lFEDPEswSQk5KvbnJGVFNggggAACCCCAQGQEdGRqQkUQQAABBBBAAAEEEEAAAQQQQAABBBBAAAEfBB6dU9AvI9GwWpLu60PyPiZpVhbnVZ3pYwYkjQACCCCAAAIIRFKAkeiRbFYqhQACCCCAAAIIIIAAAggggAACCCCAAAJeCWS4Db+XtEIWQG+ufYVXBqSDAAIIIIAAAgikkwBB9HRqbeqKAAIIIIAAAggggAACCCCAAAIIIIAAAh0SmDI7/xaZxn1Uh3YKyMZGx8oCUhSKgQACCCCAAAIIhEqA6dxD1VwUFgEEEEAAAQQQQAABBBBAAAEEEEAAAf8Fps4afYlRiV7H9PyketiwBU3+5xjMHKbOHDXEOPpZKV1WMEvYRqmMWl48auY5bWzBSwgggAACCCCAAAIHEWAk+kFgeBoBBBBAAAEEEEAAAQQQQAABBBBAAIF0FTDavUkpp2Lj9uwNU2bl//LJ2Vd8Od0sps7OP00C6LOk3uELoEuhTUyVplubUV8EEEAAAQQQQMArAUaieyVJOggggAACCCCAAAIIIIAAAggggAACCEREoHRW/iapyuF7VceORpeAsjslHUanNwfQXfXcZwz24gj83fqsjMyjCnPKNwe+pBQQAQQQQAABBBAIoABB9AA2CkVCAAEEEEAAAQQQQAABBBBAAAEEEEAgVQItAeRX28h/izZmttLO40V5lXaq80jdplTnX66NsmuJ9w5rxYwyvxuXVyWzCXBDAAEEEEAAAQQQ6IxAvDM7sQ8CCCCAAAIIIIAAAggggAACCCCAAAIIRFTA6G/KZOBtVa6v0bpItikqnTVqvdJ6hk6YyrdeHri4pKTEbWvHIL82f/7Q+Hvbs39ojPpPKWeor5vGHOeBIFtTNgQQQAABBBBAIOgCjEQPegtRPgQQQAABBBBAAAEEEEAAAQQQQAABBJIoMGXWqGqt9MhOZPmhjICeJUH1PyV6bHt+/LAFuzqRRkp2ebJ69CDXmIcl80EpKYCHmTpaPzM2t1I6QnBDAAEEEEAAAQQQ6KwAQfTOyrEfAggggAACCCCAAAIIIIAAAggggAACEROwo7E3bs/+p1Srq1OZ10sw9wVjzHPa0fPWLjvz1SCOUn9i9piTHeX+VLmqWOoc6tHnrYdizDhDrx1V8XzrY/5HAAEEEEAAAQQQ6LgAQfSOm7EHAggggAACCCCAAAIIIIAAAggggAACkRSYOnPUEOPohT5U7mOlJaCunKUq4S5p7F27IlUj1XdP297nG0a7NymjvyV1dXyob4qSNM8X51UNTVHmZIsAAggggAACCERGIBK9KyPTGlQEAQQQQAABBBBAAAEEEEAAAQQQQACBFAoYR13qU/aHS8C6UKZ7L1SOVvHt2U2lVfmvKMcskxj2a9qoNSrmrC4aMWOjH/k/OqegX4Zbf66kPXLjdl0g67nb8viRVSrTdLWr7khlAcgbAQQQQAABBBCIikDkzhSj0jDUAwEEEEAAAQQQQAABBBBAAAEEEEAAgWQLlM4atUAp/Y1k57tXfnVy/00Ztb5OG23XWN+stPOBMol/aFdv0jFH1lmPbbHbG8c0ZDqxHfZ+g5voLq9nKpXoa4zq4xp1nAToj9fKnCTB8jNkk/52u0jftCkrzq26KtJ1pHIIIIAAAggggECSBBiJniRoskEAAQQQQAABBBBAAAEEEEAAAQQQQCDIAo/NH9pNbdfnpbiMPST/QRL4HmSaCyJjgCQqbmdcl1Hyctfeb2p+RSWUqk/IPy233dvvfqDt0KHmJ9JmDFG9ozJ+1mrB/wgggAACCCCAAAJdE4jQej9dg2BvBBBAAAEEEEAAAQQQQAABBBBAAAEE0lkgY3ufIVL/rHQ2CGvdZWb6u8fm/ml9WMtPuRFAAAEEEEAAgaAJEEQPWotQHgQQQAABBBBAAAEEEEAAAQQQQAABBFIgYLTJSUG2ZNllAb020WPbXV1OhgQQQAABBBBAAAEEPhVgOvdPKbiDAAIIIIAAAggggAACCCCAAAIIIIBAGgu4aqhKm9nPI9PObszoG4uHLZC14rkhgAACCCCAAAIIeCXASHSvJEkHAQQQQAABBBBAAAEEEEAAAQQQQACBkAo8VjG6jwTQzwxp8dO22NLn4f5rR1U8n7YAVBwBBBBAAAEEEPBJgCC6T7AkiwACCCCAAAIIIIAAAggggAACCCCAQFgE4vHEUCkrs1aGpcFsObVa1dhz20/CVGTKigACCCCAAAIIhEWAIHpYWopyIoAAAggggAACCCCAAAIIIIAAAggg4JeA1t/0K2nS9UWgzijnW+OZxt0XXBJFAAEEEEAAAQQIonMMIIAAAggggAACCCCAAAIIIIAAAgggkO4CRl+c7gQhqr9rtBk/LrfijRCVmaIigAACCCCAAAKhEiCIHqrmorAIIIAAAggggAACCCCAAAIIIIAAAgh4K1A674ojJcX+3qZKan4JGKV+PS63qtyv9EkXAQQQQAABBBBAQCmC6BwFCCCAAAIIIIAAAggggAACCCCAAAIIpLGAbnIvSePqh6vqWlUd23PbneEqNKVFAAEEEEAAAQTCJ0AQPXxtRokRQAABBBBAAAEEEEAAAQQQQAABBBDwTECmBmcqd880fU2oJmtH5thhwxY0+ZoLiSOAAAIIIIAAAgioOAYIIIAAAggggAACCCCAAAIIIIAAAgggkL4CxlWX6vStflhqvjorI3NEYV759rAUmHIigAACCCCAAAJhFmAkephbj7IjgAACCCCAAAIIIIAAAggggAACCCDQBYEnZo85WQLox3YhCXb1XUCvVRmxYYU55Zt9z4oMEEAAAQQQQAABBJoFGInOgYAAAggggAACCCCAAAIIIIAAAggggECaCjjGsB56oNter9Ux5+KinBkfBLqYFA4BBBBAAAEEEIiYACPRI9agVAcBBBBAAAEEEEAAAQQQQAABBBBAAIH2C7hD278tWyZVQKtVzQH0ETM2JjVfMkMAAQQQQAABBBBQBNE5CBBAAAEEEEAAAQQQQAABBBBAAAEEEEhDgZKSEkcZfXEaVj0MVa7JimdeWEQAPQxtRRkRQAABBBBAIIICBNEj2KhUCQEEEEAAAQQQQAABBBBAAAEEEEAAgUMJnHT2K2fJNocfajteT7KANmVNPbcNZQ30JLuTHQIIIIAAAgggsJcAa6LvhcFdBBBAAAEEEEAAAQQQQAABBBBAAAEE0kXAKDU0Xeoaknq60ia/Hpdb9bOQlJdiIoAAAggggAACkRUgiB7ZpqViCCCAAAIIIIAAAggggAACCCCAAAIIHFzAGPcSpfTBN+CVZApsUdoUSwB9djIzJS8EEEAAAQQQQACBAwswnfuBXXgWAQQQQAABBBBAAAEEEEAAAQQQQACByArMnz9UBtfoiyJbwVBVzDyvY7HTiwmgh6rVKCwCCCCAAAIIRFuAkejRbl9qhwACCCCAAAIIIIAAAggggAACCCCAwH4CG+r6nqSVy7XB/WSS+kS9zANQcnTP2ruHDVvQlNScyQwBBBBAAAEEEECgTQHma2qThxcRQAABBBBAAAEEEEAAAQQQQAABBBCIpsCjcwr6ZSYavi3rcN8qNTwimrUMaK20WmSUc+O43Io3AlpCioUAAggggAACCKS1AEH0tG5+Ko8AAggggAACCCCAAAIIIIAAAgggkO4Cj80f2i1e12e8Mu4PZYr3E9Ldw+f6f6y0/o91y898uKSkxPU5L5JHAAEEEEAAAQQQ6KQAQfROwrEbAggggAACCCCAAAIIIIAAAggggAACURKw66RvqOs9Rhv1fQmmXyh1c6JUvxTXpV5p9duseOYvC3PKN6e4LGSPAAIIIIAAAgggcAgBguiHAOJlBBBAAAEEEEAAAQQQQAABBBBAAAEE0k3gyeorT0iYphvl4uH1Unemeu/8AdAkXRFKHRO/a2zun9Z3Phn2RAABBBBAAAEEEEimAEH0ZGqTFwIIIIAAAggggAACCCCAAAIIIIAAAiESsKPTN27vlWuU/het9OVS9HiIip/KotZL8PwpguepbALyRgABBBBAAAEEOi9AEL3zduyJAAIIIIAAAggggAACCCCAAAIIIIBA2giUzSv4XENT4wjXuFdLQP1SqXhW2lS+/RX92Cj1eycW+5+iETM2tn83tkQAAQQQQAABBBAIkgBB9CC1BmVBAAEEEEAAAQQQQAABBBBAAAEEEEAgBAI2oL6roXGUdswYZZQdoZ7OAfUmpcwzRqvHEj1qZ40ftmBXCJqQIiKAAAIIIIAAAgi0IUAQvQ0cXkIAAQQQQAABBBBAAAEEEEAAAQQQQACBtgXKygp67ureMEQuNF6qjLlMKX2a7OG0vVfoX3WVVotlRH6FiTtPFefM+CD0NaICCCCAAAIIIIAAAp8KEET/lII7CCCAAAIIIIAAAggggAACCCCAAAIIINBVgUfnFPSLu/VDZYT6ZRJkvkjS69/VNAOyf60EzhdIJ4F5Ku5UEjgPSKtQDAQQQAABBBBAwAcBgug+oJIkAggggAACCCCAAAIIIIAAAggggAACCOwWsEH1DLf+XGP0BXIxcog8e678hWH6d1nf3NRImZdpV/316N61NcOGLZCp27khgAACCCCAAAIIRF2AIHrUW5j6IYAAAggggAACCCCAAAIIIIAAAgggECCB+fOHxt+v63OGUeoU15hTtVYDlNGnyLrix0sx4ykoqit5v6O0/rsxapXS5iWjYyuvG1mxJgVlIUsEEEAAAQQQQACBAAgQRA9AI1AEBBBAAAEEEEAAAQQQQAABBBBAAAEE0l3gsflDu2XsyD7JGPMlWVL9aGXcIyXQfrS4HCXTwh8hge6+MpW6/KlM+evRDq962eYT2a9WgvSbjTYfaUf/QwLl70t678ko8/VGO2+73be8O37Ygl3tSI9NEEAAAQQQQAABBNJEgCB6mjQ01UQAAQQQQAABBBBAAAEEEEAAAQQQQCBKAmVlBT2391SHZbluL1svN252ZqmYDZyrflmbapl63UpwQwABBBBAAAEEEEAAAQQQQAABBBBAAAEEEEAAAQQQQAABBBBAAAEEEEAAAQQQQAABBBBAAAEEEEAAAQQQQAABBBBAAAEEEEAAAQQQQAABBBBAAAEEEEAAga4L/C9MQjgYjIbVdQAAAABJRU5ErkJggg==;" parent="1" vertex="1">
          <mxGeometry x="830" y="289" width="240.26" height="59.68" as="geometry" />
        </mxCell>
        <mxCell id="rASXjI5uIFe1J0LXfNXR-18" value="" style="shape=image;verticalLabelPosition=bottom;labelBackgroundColor=default;verticalAlign=top;aspect=fixed;imageAspect=0;image=https://upload.wikimedia.org/wikipedia/commons/e/e5/Neo4j-logo_color.png;" parent="1" vertex="1">
          <mxGeometry x="857.59" y="395.27" width="185.08" height="69.46" as="geometry" />
        </mxCell>
        <mxCell id="rASXjI5uIFe1J0LXfNXR-19" value="" style="shape=image;verticalLabelPosition=bottom;labelBackgroundColor=default;verticalAlign=top;aspect=fixed;imageAspect=0;image=https://janusgraph.org/img/janusgraph.png;" parent="1" vertex="1">
          <mxGeometry x="812.76" y="484.26" width="274.74" height="91.49" as="geometry" />
        </mxCell>
        <mxCell id="rASXjI5uIFe1J0LXfNXR-39" value="" style="shape=flexArrow;endArrow=classic;html=1;rounded=0;strokeColor=#2671E5;" parent="1" edge="1">
          <mxGeometry width="50" height="50" relative="1" as="geometry">
            <mxPoint x="1240" y="320" as="sourcePoint" />
            <mxPoint x="1080" y="320" as="targetPoint" />
          </mxGeometry>
        </mxCell>
        <mxCell id="rASXjI5uIFe1J0LXfNXR-12" value="wiktionary-data" style="rounded=1;whiteSpace=wrap;html=1;fontFamily=Ubuntu;strokeColor=none;fillColor=#60C203;fontSize=20;fontColor=#FFFFFF;" parent="1" vertex="1">
          <mxGeometry x="1250" y="300" width="190" height="60" as="geometry" />
        </mxCell>
        <mxCell id="rASXjI5uIFe1J0LXfNXR-45" value="" style="shape=flexArrow;endArrow=classic;html=1;rounded=0;strokeColor=#2671E5;" parent="1" edge="1">
          <mxGeometry width="50" height="50" relative="1" as="geometry">
            <mxPoint x="1240" y="429.5" as="sourcePoint" />
            <mxPoint x="1080" y="429.5" as="targetPoint" />
          </mxGeometry>
        </mxCell>
        <mxCell id="rASXjI5uIFe1J0LXfNXR-48" value="&lt;font color=&quot;#ffffff&quot;&gt;&lt;span style=&quot;font-size: 20px;&quot;&gt;graph-db-import-web&lt;/span&gt;&lt;/font&gt;" style="rounded=1;whiteSpace=wrap;html=1;strokeColor=none;fillColor=#61DBFB;fontFamily=Ubuntu;" parent="1" vertex="1">
          <mxGeometry x="1250" y="500" width="270" height="60" as="geometry" />
        </mxCell>
        <mxCell id="rASXjI5uIFe1J0LXfNXR-49" value="" style="shape=flexArrow;endArrow=classic;html=1;rounded=0;endWidth=46;endSize=11.67;width=39;strokeColor=#2671E5;" parent="1" edge="1">
          <mxGeometry width="50" height="50" relative="1" as="geometry">
            <mxPoint x="820" y="439.46" as="sourcePoint" />
            <mxPoint x="670" y="439.46" as="targetPoint" />
          </mxGeometry>
        </mxCell>
        <mxCell id="rASXjI5uIFe1J0LXfNXR-53" value="" style="shape=flexArrow;endArrow=classic;html=1;rounded=0;strokeColor=#2671E5;" parent="1" edge="1">
          <mxGeometry width="50" height="50" relative="1" as="geometry">
            <mxPoint x="530" y="438.96" as="sourcePoint" />
            <mxPoint x="370" y="438.96" as="targetPoint" />
          </mxGeometry>
        </mxCell>
        <mxCell id="NWTZMO9rAcA71ZL6jhak-3" value="&lt;font style=&quot;font-size: 20px;&quot;&gt;wilhelm-data-loader&lt;/font&gt;" style="text;html=1;align=center;verticalAlign=middle;whiteSpace=wrap;rounded=0;fontColor=#FAA627;fontStyle=0;fontFamily=Ubuntu;" vertex="1" parent="1">
          <mxGeometry x="1075" y="240" width="190" height="30" as="geometry" />
        </mxCell>
        <mxCell id="NWTZMO9rAcA71ZL6jhak-5" value="" style="shape=flexArrow;endArrow=classic;html=1;rounded=0;strokeColor=#2671E5;" edge="1" parent="1">
          <mxGeometry width="50" height="50" relative="1" as="geometry">
            <mxPoint x="1240" y="529.5" as="sourcePoint" />
            <mxPoint x="1080" y="529.5" as="targetPoint" />
          </mxGeometry>
        </mxCell>
        <mxCell id="NWTZMO9rAcA71ZL6jhak-6" value="&lt;font color=&quot;#000000&quot; style=&quot;font-size: 20px;&quot;&gt;REST API&lt;/font&gt;" style="text;html=1;align=center;verticalAlign=middle;whiteSpace=wrap;rounded=0;fontColor=#FAA627;fontStyle=0;fontFamily=Ubuntu;" vertex="1" parent="1">
          <mxGeometry x="360" y="400" width="190" height="30" as="geometry" />
        </mxCell>
      </root>
    </mxGraphModel>
  </diagram>
</mxfile>
